SplineFontDB: 3.2
FontName: Caladea-BoldItalic
FullName: Caladea Bold Italic
FamilyName: Caladea
Weight: Bold
Copyright: Copyright 2012 The Caladea Project Authors \\(https://github.com/huertatipografica/Caladea\\)
Version: 001.001
ItalicAngle: -9
UnderlinePosition: -204.8
UnderlineWidth: 102.4
Ascent: 1638
Descent: 410
InvalidEm: 0
sfntRevision: 0x00010041
LayerCount: 2
Layer: 0 0 "Back" 1
Layer: 1 0 "Fore" 0
XUID: [1021 282 2012869056 6401122]
StyleMap: 0x0021
FSType: 0
OS2Version: 4
OS2_WeightWidthSlopeOnly: 0
OS2_UseTypoMetrics: 1
CreationTime: 1578911677
ModificationTime: 1719082979
PfmFamily: 17
TTFWeight: 700
TTFWidth: 5
LineGap: 0
VLineGap: 0
Panose: 2 4 8 3 5 4 6 9 2 4
OS2TypoAscent: 1843
OS2TypoAOffset: 0
OS2TypoDescent: -512
OS2TypoDOffset: 0
OS2TypoLinegap: 0
OS2WinAscent: 2150
OS2WinAOffset: 0
OS2WinDescent: 512
OS2WinDOffset: 0
HheadAscent: 1843
HheadAOffset: 0
HheadDescent: -512
HheadDOffset: 0
OS2SubXSize: 1331
OS2SubYSize: 1229
OS2SubXOff: 0
OS2SubYOff: 205
OS2SupXSize: 1331
OS2SupYSize: 1229
OS2SupXOff: 113
OS2SupYOff: 717
OS2StrikeYSize: 102
OS2StrikeYPos: 594
OS2CapHeight: 1366
OS2XHeight: 991
OS2Vendor: 'HT  '
OS2CodePages: 20000093.00000000
OS2UnicodeRanges: 00000007.00000000.00000000.00000000
Lookup: 1 0 0 "'aalt' Access All Alternates in Latin lookup 0" { "'aalt' Access All Alternates in Latin lookup 0 subtable"  } ['aalt' ('DFLT' <'dflt' > 'latn' <'CAT ' 'dflt' > ) ]
Lookup: 3 0 0 "'aalt' Access All Alternates in Latin lookup 1" { "'aalt' Access All Alternates in Latin lookup 1 subtable"  } ['aalt' ('DFLT' <'dflt' > 'latn' <'CAT ' 'dflt' > ) ]

StartChar: .notdef
Encoding: 65536 -1 0
Width: 1402
GlyphClass: 1
Flags: HMW
HStem: 123 74<346 1118 346 1221> 1169 74<346 346 346 1118>
VStem: 244 102<197 1169 197 1243 197 1243> 1118 102<197 1169 1169 1169>
LayerCount: 2
Fore
SplineSet
1221 1243 m 1
 1221 123 l 1
 244 123 l 1
 244 1243 l 1
 1221 1243 l 1
346 1169 m 1
 346 197 l 1
 1118 197 l 1
 1118 1169 l 1
 346 1169 l 1
489 389 m 1
 676 690 l 1
 492 977 l 1
 604 975 l 1
 737 768 l 1
 866 975 l 1
 944 977 l 1
 776 707 l 1
 979 389 l 1
 866 391 l 1
 715 629 l 1
 567 389 l 1
 489 389 l 1
EndSplineSet
EndChar

StartChar: A
Encoding: 65 65 5
Width: 1257
GlyphClass: 2
Flags: HMW
HStem: 0 82<-113 -102 -102 -102 -102 350> 426 129<406 739 406 762 340 739> 1325 41G<666 879 879 879>
VStem: -113 1350<0 82>
AnchorPoint: "Anchor-3" 772 1366 basechar 0
AnchorPoint: "Anchor-2" 1012 0 basechar 0
LayerCount: 2
Fore
SplineSet
-113 0 m 1
 -102 82 l 1
 -24 88 23 110 39 143 c 2
 666 1366 l 1
 879 1366 l 1
 1124 164 l 2
 1134 117 1176 94 1237 82 c 1
 1229 0 l 1
 664 0 l 1
 676 82 l 1
 735 90 786 106 811 133 c 1
 762 426 l 1
 340 426 l 1
 197 143 l 1
 232 110 292 90 360 82 c 1
 350 0 l 1
 -113 0 l 1
406 555 m 1
 739 555 l 1
 657 1047 l 1
 406 555 l 1
EndSplineSet
Substitution2: "Single Substitution lookup 14 subtable" ordfeminine
Substitution2: "'aalt' Access All Alternates in Latin lookup 0 subtable" ordfeminine
EndChar

StartChar: B
Encoding: 66 66 6
Width: 1245
GlyphClass: 2
Flags: HMW
HStem: 0 84<-10 0 0 0 0 569> 0 127 655 129<549 596 528 602> 1241 125 1282 84<182 768>
VStem: 881 328<367 523 321 532> 944 305<991 1122>
AnchorPoint: "Anchor-4" 553 0 basechar 0
AnchorPoint: "Anchor-3" 768 1366 basechar 0
LayerCount: 2
Fore
SplineSet
-10 0 m 1x74
 0 84 l 1
 68 94 104 112 147 145 c 1
 317 1221 l 1
 294 1250 239 1274 182 1282 c 1xac
 195 1366 l 1
 768 1366 l 2
 1096 1366 1249 1267 1249 1077 c 0x72
 1249 905 1160 784 963 735 c 1
 1123 684 1208 594 1208 453 c 0
 1208 189 966 0 569 0 c 2
 -10 0 l 1x74
549 784 m 1
 602 784 l 2
 817 784 944 872 944 1067 c 0
 944 1178 877 1235 717 1241 c 0
 649 1239 626 1229 612 1182 c 2x72
 549 784 l 1
559 127 m 0x74
 788 133 881 268 881 465 c 0
 881 600 770 655 596 655 c 2
 528 655 l 1
 463 242 l 2
 459 213 457 194 457 182 c 0
 457 145 489 131 559 127 c 0x74
EndSplineSet
EndChar

StartChar: C
Encoding: 67 67 7
Width: 1110
GlyphClass: 2
Flags: HMW
HStem: -20 139<574 648> 1272 109<634 804>
VStem: 76 338<382 669 382 778> 887 285<1136 1192>
AnchorPoint: "Anchor-5" 563 0 basechar 0
AnchorPoint: "Anchor-3" 752 1366 basechar 0
LayerCount: 2
Fore
SplineSet
571 -20 m 0
 245 -20 76 166 76 510 c 0
 76 1047 318 1380 793 1380 c 0
 1022 1380 1171 1282 1171 1137 c 0
 1171 1026 1079 934 977 934 c 0
 911 934 852 973 836 1028 c 1
 867 1069 887 1114 887 1157 c 0
 887 1227 842 1272 766 1272 c 0
 502 1272 414 834 414 504 c 0
 414 260 488 119 662 119 c 0
 771 119 886 172 997 272 c 1
 1055 207 l 1
 903 64 725 -20 571 -20 c 0
EndSplineSet
EndChar

StartChar: D
Encoding: 68 68 8
Width: 1343
GlyphClass: 2
Flags: HMW
HStem: 0 84<-10 0 0 0 0 451> 0 129<-10 736> 1239 127<623 678 195 623> 1282 84<182 623>
VStem: 1012 319<743 1001>
AnchorPoint: "Anchor-3" 803 1366 basechar 0
LayerCount: 2
Fore
SplineSet
-10 0 m 1x68
 0 84 l 1
 66 94 102 112 145 143 c 1
 317 1221 l 1
 294 1250 239 1274 182 1282 c 1x98
 195 1366 l 1
 623 1366 l 2
 1033 1366 1331 1245 1331 846 c 0
 1331 418 1127 0 451 0 c 2
 -10 0 l 1x68
532 129 m 0x68
 940 129 1012 609 1012 879 c 0
 1012 1125 893 1239 678 1239 c 2
 623 1239 l 1
 465 252 l 2
 461 232 459 218 459 195 c 0
 459 150 485 129 532 129 c 0x68
EndSplineSet
EndChar

StartChar: E
Encoding: 69 69 9
Width: 1163
GlyphClass: 2
Flags: HMW
HStem: 0 84<-10 0 0 0 0 1014> 0 127<444 827 444 1014> 639 127 1016 350<1052 1078> 1241 125<623 969 623 623> 1282 84<182 1198>
VStem: -10 1208
AnchorPoint: "Anchor-3" 727 1366 basechar 0
AnchorPoint: "Anchor-2" 977 0 basechar 0
LayerCount: 2
Fore
SplineSet
-10 0 m 1x6a
 0 84 l 1
 68 94 104 112 147 145 c 1
 317 1221 l 1
 294 1250 239 1274 182 1282 c 1xa6
 195 1366 l 1
 1198 1366 l 1x6a
 1153 1030 l 1
 1124 1022 1098 1016 1059 1016 c 0
 1045 1016 1028 1018 1014 1022 c 1x72
 1012 1081 1004 1171 969 1241 c 1
 623 1241 l 1
 545 762 l 1
 731 770 l 2
 780 772 833 827 866 907 c 1
 952 907 l 1
 885 483 l 1
 799 483 l 1
 779 594 754 633 707 635 c 2
 526 643 l 1
 444 127 l 1
 827 127 l 1
 890 207 933 314 956 377 c 1
 985 385 1012 391 1051 391 c 0
 1065 391 1082 389 1096 385 c 1
 1014 0 l 1
 -10 0 l 1x6a
EndSplineSet
EndChar

StartChar: F
Encoding: 70 70 10
Width: 1101
GlyphClass: 1
Flags: HMW
HStem: 0 84<-10 0 0 0 0 616> 618 127 1016 350<1054 1080> 1241 125<623 971 623 623> 1282 84<182 1200>
VStem: -10 1210
LayerCount: 2
Fore
SplineSet
-10 0 m 1xd4
 0 84 l 1
 68 94 104 112 147 145 c 1
 317 1221 l 1
 294 1250 239 1274 182 1282 c 1xcc
 195 1366 l 1
 1200 1366 l 1xd4
 1155 1030 l 1
 1126 1022 1100 1016 1061 1016 c 0
 1047 1016 1030 1018 1016 1022 c 1xe4
 1014 1081 1006 1171 971 1241 c 1
 623 1241 l 1
 543 741 l 1
 729 750 l 2
 778 752 831 807 864 887 c 1
 950 887 l 1
 883 463 l 1
 797 463 l 1
 777 574 752 612 705 614 c 2
 524 623 l 1
 449 145 l 1
 476 116 561 98 627 84 c 1
 616 0 l 1
 -10 0 l 1xd4
EndSplineSet
EndChar

StartChar: G
Encoding: 71 71 11
Width: 1204
GlyphClass: 2
Flags: HMW
HStem: -20 139<569 658> 516 119<692 1174> 1272 109<659 846>
VStem: 74 317<379 722 379 780> 948 283<1133 1193>
AnchorPoint: "Anchor-4" 631 0 basechar 0
AnchorPoint: "Anchor-3" 801 1366 basechar 0
LayerCount: 2
Fore
SplineSet
569 -20 m 0
 241 -20 74 166 74 510 c 0
 74 1051 327 1380 821 1380 c 0
 1069 1380 1231 1280 1231 1137 c 0
 1231 1026 1138 934 1036 934 c 0
 970 934 911 973 895 1028 c 1
 928 1073 948 1110 948 1155 c 0
 948 1231 897 1272 795 1272 c 0
 525 1272 391 934 391 510 c 0
 391 248 479 119 659 119 c 0
 733 119 791 141 799 186 c 2
 846 477 l 1
 807 500 755 512 692 516 c 1
 709 635 l 1
 1174 635 l 1
 1092 135 l 1
 940 37 747 -20 569 -20 c 0
EndSplineSet
EndChar

StartChar: H
Encoding: 72 72 12
Width: 1423
GlyphClass: 2
Flags: HMW
HStem: 0 84<-18 -8 -8 -8 -8 567> 635 129<539 946 518 967> 1282 84<174 772 760 760 1489 1489>
VStem: -18 1520<0 1366>
AnchorPoint: "Anchor-3" 846 1366 basechar 0
LayerCount: 2
Fore
SplineSet
-18 0 m 1
 -8 84 l 1
 60 94 96 112 139 145 c 1
 309 1221 l 1
 286 1250 231 1274 174 1282 c 1
 186 1366 l 1
 772 1366 l 1
 760 1282 l 1
 692 1270 657 1256 610 1221 c 1
 539 764 l 1
 967 764 l 1
 1038 1221 l 1
 1015 1250 960 1274 903 1282 c 1
 915 1366 l 1
 1501 1366 l 1
 1489 1282 l 1
 1421 1270 1386 1256 1339 1221 c 1
 1169 145 l 1
 1196 116 1241 98 1307 84 c 1
 1296 0 l 1
 711 0 l 1
 721 84 l 1
 789 94 825 112 868 145 c 1
 946 635 l 1
 518 635 l 1
 440 145 l 1
 467 116 512 98 578 84 c 1
 567 0 l 1
 -18 0 l 1
EndSplineSet
EndChar

StartChar: I
Encoding: 73 73 13
Width: 706
GlyphClass: 2
Flags: HMW
HStem: 0 84<-10 0 0 0 0 575> 1282 84<182 780 768 768>
VStem: -10 791
AnchorPoint: "Anchor-3" 487 1366 basechar 0
AnchorPoint: "Anchor-2" 340 0 basechar 0
LayerCount: 2
Fore
SplineSet
-10 0 m 1
 0 84 l 1
 68 94 104 112 147 145 c 1
 317 1221 l 1
 294 1250 239 1274 182 1282 c 1
 195 1366 l 1
 780 1366 l 1
 768 1282 l 1
 700 1270 665 1256 618 1221 c 1
 449 145 l 1
 476 116 520 98 586 84 c 1
 575 0 l 1
 -10 0 l 1
EndSplineSet
EndChar

StartChar: J
Encoding: 74 74 14
Width: 675
GlyphClass: 2
Flags: HMW
HStem: -446 43G<-121 -121> 1282 84<174 772 760 760>
VStem: -145 918
AnchorPoint: "Anchor-3" 479 1366 basechar 0
LayerCount: 2
Fore
SplineSet
-121 -446 m 1
 -145 -334 l 1
 -34 -281 86 -195 117 2 c 2
 309 1221 l 1
 286 1250 231 1274 174 1282 c 1
 186 1366 l 1
 772 1366 l 1
 760 1282 l 1
 692 1270 657 1256 610 1221 c 1
 424 33 l 2
 381 -243 174 -374 -121 -446 c 1
EndSplineSet
EndChar

StartChar: K
Encoding: 75 75 15
Width: 1349
GlyphClass: 2
Flags: HMW
HStem: 0 84<-10 0 0 0 0 575> 1282 84<182 780 768 768 979 995 1454 1454>
VStem: -10 1477<0 1366>
AnchorPoint: "Anchor-4" 657 0 basechar 0
LayerCount: 2
Fore
SplineSet
-10 0 m 1
 0 84 l 1
 68 94 104 112 147 145 c 1
 317 1221 l 1
 294 1250 239 1274 182 1282 c 1
 195 1366 l 1
 780 1366 l 1
 768 1282 l 1
 700 1270 665 1256 618 1221 c 1
 449 145 l 1
 476 116 520 98 586 84 c 1
 575 0 l 1
 -10 0 l 1
961 0 m 2
 875 0 818 47 791 119 c 2
 565 698 l 1
 1042 1190 l 2
 1058 1206 1067 1223 1067 1235 c 0
 1067 1270 1022 1282 969 1282 c 1
 979 1366 l 1
 1466 1366 l 1
 1454 1282 l 1
 1413 1280 1330 1274 1264 1206 c 2
 879 801 l 1
 1126 184 l 2
 1149 127 1214 98 1286 84 c 1
 1276 0 l 1
 961 0 l 2
EndSplineSet
EndChar

StartChar: L
Encoding: 76 76 16
Width: 1056
GlyphClass: 2
Flags: HMW
HStem: 0 84<-10 0 0 0 0 932> 0 127<541 745 541 932> 1282 84<182 801 788 788>
VStem: -10 1024<0 385>
AnchorPoint: "Anchor-4" 502 0 basechar 0
AnchorPoint: "Anchor-3" 518 1444 basechar 0
LayerCount: 2
Fore
SplineSet
-10 0 m 1x70
 0 84 l 1
 68 94 106 110 147 145 c 1xb0
 317 1221 l 1
 294 1250 239 1274 182 1282 c 1
 195 1366 l 1
 801 1366 l 1
 788 1282 l 1
 720 1270 665 1256 618 1221 c 1
 455 197 l 2
 449 148 469 127 541 127 c 2
 745 127 l 1
 808 207 851 314 874 377 c 1
 903 385 930 391 969 391 c 0
 983 391 1000 389 1014 385 c 1
 932 0 l 1
 -10 0 l 1x70
EndSplineSet
EndChar

StartChar: M
Encoding: 77 77 17
Width: 1693
GlyphClass: 2
Flags: HMW
HStem: 0 84<-10 0 0 0 0 453> 1282 84<182 688 1755 1755>
VStem: -10 1778<0 1366>
AnchorPoint: "Anchor-3" 965 1366 basechar 0
LayerCount: 2
Fore
SplineSet
-10 0 m 1
 0 84 l 1
 68 94 104 112 147 145 c 1
 317 1221 l 1
 284 1254 245 1274 182 1282 c 1
 195 1366 l 1
 688 1366 l 1
 854 444 l 1
 1284 1366 l 1
 1767 1366 l 1
 1755 1282 l 1
 1687 1270 1653 1256 1606 1221 c 1
 1436 145 l 1
 1463 116 1507 98 1573 84 c 1
 1563 0 l 1
 985 0 l 1
 995 84 l 1
 1063 94 1100 112 1143 145 c 1
 1276 991 l 1
 807 0 l 1
 649 0 l 1
 459 991 l 1
 326 145 l 1
 353 116 397 98 463 84 c 1
 453 0 l 1
 -10 0 l 1
EndSplineSet
EndChar

StartChar: N
Encoding: 78 78 18
Width: 1372
GlyphClass: 2
Flags: HMW
HStem: 0 84<0 0 0 453 -10 0> 1282 84<182 612 1456 1456>
VStem: -10 1479<0 1366>
AnchorPoint: "Anchor-4" 666 0 basechar 0
AnchorPoint: "Anchor-3" 829 1366 basechar 0
LayerCount: 2
Fore
SplineSet
1006 1366 m 1
 1468 1366 l 1
 1456 1282 l 1
 1397 1274 1346 1252 1307 1221 c 1
 1112 0 l 1
 821 0 l 1
 455 977 l 1
 326 145 l 1
 353 116 397 98 463 84 c 1
 453 0 l 1
 -10 0 l 1
 0 84 l 1
 68 94 104 112 147 145 c 1
 317 1221 l 1
 294 1250 239 1274 182 1282 c 1
 195 1366 l 1
 612 1366 l 1
 989 332 l 1
 1128 1223 l 1
 1089 1258 1048 1274 993 1282 c 1
 1006 1366 l 1
EndSplineSet
EndChar

StartChar: O
Encoding: 79 79 19
Width: 1325
GlyphClass: 2
Flags: HMW
HStem: -20 123<531 739 531 818> 1270 119<645 853>
VStem: 74 319<348 609 344 772> 991 319<765 1020 596 1028>
AnchorPoint: "Anchor-4" 582 0 basechar 0
AnchorPoint: "Anchor-3" 793 1366 basechar 0
LayerCount: 2
Fore
SplineSet
586 -20 m 0
 230 -20 74 180 74 516 c 0
 74 1028 334 1389 799 1389 c 0
 1155 1389 1311 1188 1311 852 c 0
 1311 340 1051 -20 586 -20 c 0
606 102 m 0
 872 102 991 629 991 901 c 0
 991 1155 928 1270 778 1270 c 0
 512 1270 393 747 393 471 c 0
 393 217 456 102 606 102 c 0
EndSplineSet
Substitution2: "Single Substitution lookup 14 subtable" ordmasculine
Substitution2: "'aalt' Access All Alternates in Latin lookup 0 subtable" ordmasculine
EndChar

StartChar: P
Encoding: 80 80 20
Width: 1183
GlyphClass: 1
Flags: HMW
HStem: 0 84<-10 0 0 0 0 616> 567 135<537 545 514 575> 1243 123<685 782 782 816> 1282 84<182 782>
VStem: 958 303<966 1098>
LayerCount: 2
Fore
SplineSet
-10 0 m 1xe8
 0 84 l 1
 68 94 104 112 147 145 c 1
 317 1221 l 1
 294 1250 239 1274 182 1282 c 1xd8
 195 1366 l 1
 782 1366 l 2
 1101 1366 1262 1257 1262 1044 c 0
 1262 696 893 567 545 567 c 2
 514 567 l 1
 449 145 l 1
 476 116 561 98 627 84 c 1
 616 0 l 1
 -10 0 l 1xe8
537 702 m 1
 575 702 l 2
 860 702 958 893 958 1038 c 0
 958 1157 897 1243 735 1243 c 0
 635 1243 618 1225 608 1157 c 2xe8
 537 702 l 1
EndSplineSet
EndChar

StartChar: Q
Encoding: 81 81 21
Width: 1349
GlyphClass: 1
Flags: HMW
HStem: -10 43G -10 113 1270 119<660 889>
VStem: 78 328<371 587 358 792> 1004 330<785 1014>
LayerCount: 2
Fore
SplineSet
936 -356 m 1xb8
 662 -313 534 -172 479 -12 c 1
 211 27 78 215 78 526 c 0
 78 1056 328 1389 817 1389 c 0
 1163 1389 1333 1196 1333 846 c 0
 1333 371 1136 49 737 -10 c 1
 755 -135 852 -234 973 -283 c 1
 973 -314 956 -344 936 -356 c 1xb8
612 102 m 0x78
 884 102 1004 650 1004 922 c 0
 1004 1106 981 1270 797 1270 c 0
 525 1270 406 723 406 451 c 0
 406 267 428 102 612 102 c 0x78
EndSplineSet
EndChar

StartChar: R
Encoding: 82 82 22
Width: 1292
GlyphClass: 2
Flags: HMW
HStem: 0 84<-10 0 0 0 0 575> 618 125<524 563 524 563> 1241 125<688 772 772 815> 1282 84<182 772>
VStem: 940 303<986 1109>
AnchorPoint: "Anchor-4" 705 0 basechar 0
AnchorPoint: "Anchor-3" 774 1366 basechar 0
LayerCount: 2
Fore
SplineSet
-10 0 m 1xe8
 0 84 l 1
 68 94 104 112 147 145 c 1
 317 1221 l 1
 294 1250 239 1274 182 1282 c 1xd8
 195 1366 l 1
 772 1366 l 2
 1091 1366 1243 1264 1243 1063 c 0
 1243 850 1081 723 870 664 c 1
 925 637 971 588 991 516 c 2
 1094 168 l 2
 1108 117 1157 98 1231 84 c 1
 1221 0 l 1
 963 0 l 2
 873 0 800 45 782 135 c 2
 676 537 l 2
 658 605 600 618 541 618 c 2
 524 618 l 1
 449 145 l 1
 476 116 520 98 586 84 c 1
 575 0 l 1
 -10 0 l 1xe8
543 743 m 1
 563 743 l 2
 842 743 940 918 940 1055 c 0
 940 1164 893 1241 737 1241 c 0
 639 1241 622 1229 610 1159 c 2xe8
 543 743 l 1
EndSplineSet
EndChar

StartChar: S
Encoding: 83 83 23
Width: 1003
GlyphClass: 2
Flags: HMW
HStem: -14 117<387 475 387 568> 1272 111<573 688>
VStem: 125 293<1023 1069> 629 309<311 388> 801 231<1142 1197>
AnchorPoint: "Anchor-5" 451 0 basechar 0
AnchorPoint: "Anchor-4" 461 0 basechar 0
AnchorPoint: "Anchor-3" 635 1366 basechar 0
LayerCount: 2
Fore
SplineSet
418 -14 m 0xf0
 266 -14 115 22 -4 90 c 1
 98 453 l 1
 248 426 l 1
 240 358 233 307 233 260 c 0
 233 225 236 197 240 168 c 1
 297 121 359 102 416 102 c 0
 535 102 629 189 629 330 c 0xf0
 629 447 561 514 399 598 c 0
 227 686 125 782 125 938 c 0
 125 1200 362 1382 651 1382 c 0
 870 1382 1032 1274 1032 1139 c 0
 1032 1039 964 965 874 965 c 0
 823 965 776 983 727 1026 c 1
 772 1069 801 1120 801 1163 c 0xe8
 801 1231 739 1272 637 1272 c 0
 510 1272 418 1196 418 1073 c 0
 418 973 481 919 653 829 c 0
 841 731 938 623 938 455 c 0
 938 168 719 -14 418 -14 c 0xf0
EndSplineSet
EndChar

StartChar: T
Encoding: 84 84 24
Width: 1161
GlyphClass: 2
Flags: HMW
HStem: 0 84<176 186 186 186 186 844> 948 41G<102 102 1214 1214> 983 391<164 164 164 182> 1239 135 1241 133
VStem: 102 1174<989 1374>
AnchorPoint: "Anchor-4" 510 0 basechar 0
AnchorPoint: "Anchor-3" 719 1366 basechar 0
LayerCount: 2
Fore
SplineSet
176 0 m 1xcc
 186 84 l 1
 254 94 332 112 375 145 c 1
 549 1239 l 1
 469 1237 419 1231 360 1227 c 1xd4
 307 1168 260 1069 244 989 c 1
 219 985 195 983 170 983 c 0xa4
 147 983 125 985 102 989 c 1
 164 1374 l 1
 273 1368 445 1366 719 1366 c 0
 885 1366 1208 1372 1276 1374 c 1xcc
 1214 989 l 1
 1191 985 1170 983 1147 983 c 0
 1122 983 1098 985 1073 989 c 1xa4
 1073 1081 1063 1170 1038 1225 c 1
 977 1233 930 1239 850 1241 c 1
 676 145 l 1
 703 116 788 98 854 84 c 1
 844 0 l 1
 176 0 l 1xcc
EndSplineSet
EndChar

StartChar: U
Encoding: 85 85 25
Width: 1355
GlyphClass: 2
Flags: HMW
HStem: -14 137<611 796 611 815> 1282 84<143 741 729 729 1454 1454>
VStem: 147 303<271 366>
AnchorPoint: "Anchor-3" 874 1366 basechar 0
AnchorPoint: "Anchor-2" 772 0 basechar 0
LayerCount: 2
Fore
SplineSet
629 -14 m 0
 307 -14 147 113 147 330 c 0
 147 402 177 555 279 1221 c 1
 256 1250 200 1274 143 1282 c 1
 156 1366 l 1
 741 1366 l 1
 729 1282 l 1
 661 1270 627 1256 580 1221 c 1
 467 502 451 405 451 344 c 0
 451 199 526 123 696 123 c 0
 895 123 973 271 1004 457 c 2
 1120 1221 l 1
 1097 1250 1042 1274 985 1282 c 1
 997 1366 l 1
 1466 1366 l 1
 1454 1282 l 1
 1386 1270 1352 1256 1305 1221 c 1
 1194 502 l 2
 1143 170 1002 -14 629 -14 c 0
EndSplineSet
EndChar

StartChar: V
Encoding: 86 86 26
Width: 1216
GlyphClass: 1
Flags: HMW
HStem: -16 43G<557 594> 1282 84<106 682 1341 1341> 1284 82<670 670>
VStem: 106 1247<1282 1366>
LayerCount: 2
Fore
SplineSet
397 0 m 1xb0
 227 1180 l 2
 219 1233 200 1259 106 1282 c 1xd0
 117 1366 l 1
 682 1366 l 1
 670 1284 l 1
 621 1280 573 1266 532 1239 c 1
 641 379 l 1
 1044 1223 l 1
 1009 1256 949 1276 881 1284 c 1
 891 1366 l 1
 1354 1366 l 1xb0
 1341 1282 l 1
 1278 1280 1223 1263 1198 1214 c 2xd0
 594 -16 l 1
 520 -16 452 -10 397 0 c 1xb0
EndSplineSet
EndChar

StartChar: W
Encoding: 87 87 27
Width: 1888
GlyphClass: 2
Flags: HMW
HStem: -12 43G<529 563> -10 43G<1277 1309> 1282 84<94 666 2023 2023> 1284 82<653 653>
VStem: 94 1939<1282 1366>
AnchorPoint: "Anchor-3" 1145 1366 basechar 0
LayerCount: 2
Fore
SplineSet
563 -12 m 1x98
 495 -12 419 -10 362 0 c 1
 207 1221 l 1
 182 1252 143 1272 94 1282 c 1xa8
 106 1366 l 1
 666 1366 l 1
 653 1284 l 1
 594 1276 547 1266 518 1239 c 1
 618 379 l 1
 1047 1329 l 1
 1102 1347 1165 1356 1237 1356 c 1
 1360 379 l 1
 1745 1221 l 1
 1696 1256 1649 1276 1581 1284 c 1
 1591 1366 l 1
 2034 1366 l 1x58
 2023 1282 l 1
 1974 1278 1924 1266 1901 1217 c 2
 1309 -10 l 1
 1246 -10 1176 -10 1108 0 c 1x68
 985 881 l 1
 563 -12 l 1x98
EndSplineSet
EndChar

StartChar: X
Encoding: 88 88 28
Width: 1200
GlyphClass: 1
Flags: HMW
HStem: 0 82<-80 -70 -70 -70 -70 383> 1284 82<1321 1321>
VStem: -80 1411<0 1366>
LayerCount: 2
Fore
SplineSet
-80 0 m 1
 -70 82 l 1
 -23 86 41 104 72 139 c 2
 492 643 l 1
 229 1210 l 2
 209 1255 183 1268 111 1282 c 1
 121 1366 l 1
 391 1366 l 2
 465 1366 516 1329 551 1255 c 2
 723 885 l 1
 1004 1223 l 1
 969 1256 926 1276 858 1284 c 1
 868 1366 l 1
 1331 1366 l 1
 1321 1284 l 1
 1251 1276 1211 1258 1176 1217 c 2
 786 748 l 1
 1063 156 l 2
 1083 113 1108 98 1182 84 c 1
 1171 0 l 1
 901 0 l 2
 840 0 780 27 741 111 c 2
 555 506 l 1
 250 139 l 1
 277 110 334 86 393 82 c 1
 383 0 l 1
 -80 0 l 1
EndSplineSet
EndChar

StartChar: Y
Encoding: 89 89 29
Width: 1146
GlyphClass: 2
Flags: HMW
HStem: 0 84<168 178 178 178 178 795> 1284 82<109 682 670 670 1296 1296>
VStem: 109 1198<1284 1366>
AnchorPoint: "Anchor-3" 768 1366 basechar 0
LayerCount: 2
Fore
SplineSet
168 0 m 1
 178 84 l 1
 246 94 303 112 346 145 c 1
 412 551 l 1
 227 1192 l 2
 213 1239 162 1276 109 1284 c 1
 117 1366 l 1
 682 1366 l 1
 670 1284 l 1
 617 1280 571 1266 526 1239 c 1
 670 731 l 1
 997 1223 l 1
 962 1256 902 1276 834 1284 c 1
 844 1366 l 1
 1307 1366 l 1
 1296 1284 l 1
 1230 1278 1186 1260 1157 1217 c 2
 711 549 l 1
 647 145 l 1
 674 116 739 98 805 84 c 1
 795 0 l 1
 168 0 l 1
EndSplineSet
EndChar

StartChar: Z
Encoding: 90 90 30
Width: 1112
GlyphClass: 2
Flags: HMW
HStem: -6 147 1229 135<730 776> 1292 72 1331 41G<1149 1149>
VStem: 0 1167 171 159
AnchorPoint: "Anchor-3" 692 1366 basechar 0
LayerCount: 2
Fore
SplineSet
14 -6 m 1xc8
 0 92 l 1
 776 1229 l 1
 684 1229 514 1224 387 1212 c 1
 352 1138 334 1036 330 975 c 1
 314 971 285 969 260 969 c 0
 225 969 189 975 160 983 c 1
 182 1309 l 1
 242 1370 l 1xc4
 387 1368 545 1364 711 1364 c 0xc8
 875 1364 1040 1366 1149 1372 c 1x98
 1167 1292 l 1xa8
 371 141 l 1
 518 137 668 144 770 154 c 1
 823 232 861 349 881 406 c 1
 901 410 931 412 954 412 c 0
 985 412 1022 405 1051 397 c 1
 985 70 l 1
 909 -6 l 1
 741 0 629 0 467 0 c 0
 309 0 172 0 14 -6 c 1xc8
EndSplineSet
EndChar

StartChar: a
Encoding: 97 97 31
Width: 1155
GlyphClass: 2
Flags: HMW
HStem: -23 125<445 451> -12 43G<763 882> -12 154<763 999> 907 100<583 658 442 685> 965 41G<969 1017>
VStem: 63 295<266 538 266 551>
AnchorPoint: "Anchor-3" 664 991 basechar 0
AnchorPoint: "Anchor-2" 1014 0 basechar 0
LayerCount: 2
Fore
SplineSet
389 -23 m 0x94
 219 -23 63 100 63 356 c 0
 63 745 265 1008 621 1008 c 0
 697 1008 764 992 834 967 c 1
 877 992 932 1006 1006 1006 c 0x94
 1029 1006 1051 1003 1071 1001 c 0
 1071 999 944 235 944 182 c 0
 944 155 956 141 987 141 c 0
 1012 141 1050 152 1083 172 c 1x2c
 1110 94 l 1
 1059 61 944 -12 819 -12 c 0x54
 706 -12 655 47 655 115 c 1
 596 31 512 -23 389 -23 c 0x94
481 102 m 0
 581 102 653 240 700 510 c 2
 766 889 l 1
 733 901 703 907 668 907 c 0
 498 907 358 725 358 350 c 0
 358 182 409 102 481 102 c 0
EndSplineSet
Substitution2: "Single Substitution lookup 14 subtable" ordfeminine
Substitution2: "'aalt' Access All Alternates in Latin lookup 0 subtable" ordfeminine
EndChar

StartChar: b
Encoding: 98 98 32
Width: 1153
GlyphClass: 1
Flags: HMW
HStem: -14 109<465 578 462 692> 885 123<609 881> 1397 29
VStem: 795 297<478 741>
LayerCount: 2
Fore
SplineSet
530 -14 m 0
 399 -14 211 51 141 106 c 0
 110 131 88 164 88 199 c 0
 88 275 236 1116 236 1202 c 0
 236 1247 209 1276 154 1276 c 0
 142 1276 127 1274 111 1272 c 1
 104 1352 l 1
 206 1395 391 1423 504 1425 c 1
 559 1397 l 1
 475 870 l 1
 549 960 651 1008 778 1008 c 0
 983 1008 1092 874 1092 641 c 0
 1092 211 854 -14 530 -14 c 0
489 94 m 0
 665 94 795 291 795 666 c 0
 795 818 752 885 666 885 c 0
 553 885 461 772 426 549 c 2
 360 133 l 1
 387 113 434 94 489 94 c 0
EndSplineSet
EndChar

StartChar: c
Encoding: 99 99 33
Width: 956
GlyphClass: 2
Flags: HMW
HStem: -14 119<488 554> 907 94<544 635>
VStem: 66 299<272 545 272 567> 696 270<816 852>
AnchorPoint: "Anchor-5" 483 0 basechar 0
AnchorPoint: "Anchor-3" 596 991 basechar 0
LayerCount: 2
Fore
SplineSet
483 -14 m 0
 213 -14 66 119 66 387 c 0
 66 747 266 1001 641 1001 c 0
 874 1001 967 909 967 811 c 0
 967 729 893 651 782 651 c 0
 719 651 665 688 657 737 c 1
 684 768 696 802 696 829 c 0
 696 874 661 907 608 907 c 0
 479 907 365 727 365 362 c 0
 365 182 424 104 553 104 c 0
 639 104 731 141 819 213 c 1
 883 139 l 1
 774 43 624 -14 483 -14 c 0
EndSplineSet
EndChar

StartChar: d
Encoding: 100 100 34
Width: 1177
GlyphClass: 1
Flags: HMW
HStem: -14 123<275 548> 897 111<575 658 454 692> 1397 29
VStem: 63 297<252 517 252 566>
LayerCount: 2
Fore
SplineSet
377 -14 m 0
 174 -14 63 112 63 352 c 0
 63 780 292 1008 614 1008 c 0
 702 1008 754 989 809 958 c 1
 815 999 840 1153 840 1198 c 0
 840 1247 815 1276 758 1276 c 0
 746 1276 731 1274 717 1272 c 1
 711 1352 l 1
 805 1389 985 1425 1110 1425 c 1
 1167 1397 l 1
 1153 1315 979 221 979 186 c 0
 979 155 995 141 1024 141 c 0
 1049 141 1081 154 1118 174 c 1
 1145 100 l 1
 1092 47 954 -10 858 -10 c 0
 737 -10 690 50 686 150 c 1
 618 33 490 -14 377 -14 c 0
487 109 m 0
 608 109 694 233 733 479 c 2
 793 858 l 1
 768 878 719 897 666 897 c 0
 486 897 360 701 360 334 c 0
 360 170 409 109 487 109 c 0
EndSplineSet
EndChar

StartChar: e
Encoding: 101 101 35
Width: 999
GlyphClass: 2
Flags: HMW
HStem: -14 141<481 544> 430 119 907 100<553 660>
VStem: 63 285<263 341 263 565> 731 254<731 833>
AnchorPoint: "Anchor-3" 641 991 basechar 0
AnchorPoint: "Anchor-2" 819 0 basechar 0
LayerCount: 2
Fore
SplineSet
465 -14 m 0
 219 -14 63 139 63 385 c 0
 63 745 289 1008 645 1008 c 0
 881 1008 985 914 985 797 c 0
 985 568 751 430 356 430 c 1
 350 385 348 355 348 328 c 0
 348 199 418 127 545 127 c 0
 647 127 770 172 854 240 c 1
 922 160 l 1
 791 49 623 -14 465 -14 c 0
375 549 m 1
 559 555 731 664 731 799 c 0
 731 867 697 907 625 907 c 0
 482 907 418 774 375 549 c 1
EndSplineSet
EndChar

StartChar: f
Encoding: 102 102 36
Width: 681
GlyphClass: 1
Flags: HMW
HStem: -449 98<-88 -33 -88 88> 850 84<57 57 57 203 41 57> 850 129<41 223 512 705> 1372 80<609 677>
VStem: -344 207<-305 -268 -305 -227> 230 273 727 203<1289 1327>
LayerCount: 2
Fore
SplineSet
-98 -449 m 0xbe
 -250 -449 -344 -383 -344 -272 c 0
 -344 -182 -279 -125 -203 -125 c 0
 -152 -125 -102 -154 -92 -211 c 1
 -119 -223 -137 -252 -137 -285 c 0
 -137 -326 -111 -350 -66 -350 c 0
 0 -350 35 -297 53 -219 c 0
 76 -121 76 18 94 143 c 2
 203 850 l 1
 41 850 l 1xbe
 57 934 l 1
 106 942 172 959 223 979 c 1xde
 238 1069 l 2
 273 1286 443 1452 676 1452 c 0
 826 1452 930 1380 930 1280 c 0
 930 1176 854 1122 778 1122 c 0
 723 1122 674 1155 672 1210 c 1
 707 1237 727 1272 727 1307 c 0
 727 1348 702 1372 651 1372 c 0
 567 1372 504 1295 504 1174 c 0
 504 1127 516 1065 516 1026 c 0
 516 1006 514 995 512 979 c 1
 725 979 l 1
 705 850 l 1
 492 850 l 1
 377 121 l 2
 340 -112 275 -449 -98 -449 c 0xbe
EndSplineSet
EndChar

StartChar: g
Encoding: 103 103 37
Width: 1116
GlyphClass: 2
Flags: HMW
HStem: -449 113<307 445 307 492> -23 125<306 535> 907 100<588 660 443 687> 965 41G<971 1019>
VStem: -31 250<-273 -224 -273 -185> 66 295<271 553 271 563>
AnchorPoint: "Anchor-3" 643 991 basechar 0
LayerCount: 2
Fore
SplineSet
317 -449 m 0xd8
 73 -449 -31 -371 -31 -236 c 0
 -31 -136 41 -63 139 -63 c 0
 192 -63 243 -91 266 -150 c 1
 237 -166 219 -205 219 -244 c 0
 219 -303 266 -336 348 -336 c 0xe8
 543 -336 618 -157 643 74 c 2
 645 98 l 1
 586 24 506 -23 391 -23 c 0
 221 -23 66 101 66 371 c 0
 66 756 265 1008 623 1008 c 0
 699 1008 766 992 836 967 c 1
 879 992 934 1006 1008 1006 c 0xe4
 1031 1006 1053 1003 1073 1001 c 1
 928 100 l 2
 867 -277 665 -449 317 -449 c 0xd8
483 102 m 0xe4
 585 102 664 275 709 537 c 2
 768 889 l 1
 735 901 705 907 670 907 c 0
 506 907 360 733 360 373 c 0
 360 170 415 102 483 102 c 0xe4
EndSplineSet
EndChar

StartChar: h
Encoding: 104 104 38
Width: 1185
GlyphClass: 2
Flags: HMW
HStem: -12 43G<802 914> 0 43G<63 352 63 63> 870 137<641 889>
VStem: 696 291<171 208 171 227> 776 291<721 783>
AnchorPoint: "Anchor-3" 868 1366 basechar 0
LayerCount: 2
Fore
SplineSet
866 -12 m 0xb0
 737 -12 696 55 696 166 c 0xb0
 696 289 776 637 776 739 c 0
 776 827 745 870 690 870 c 0
 592 870 453 634 416 401 c 2
 352 0 l 1
 63 0 l 1
 240 1108 l 2
 244 1135 250 1155 250 1190 c 0
 250 1249 223 1278 168 1278 c 0
 154 1278 135 1276 125 1274 c 1
 119 1354 l 1
 221 1397 405 1425 518 1427 c 1
 573 1393 l 1
 479 809 l 1
 563 938 672 1008 807 1008 c 0
 971 1008 1067 914 1067 756 c 0x68
 1067 686 987 229 987 186 c 0
 987 155 1003 139 1032 139 c 0
 1057 139 1089 152 1126 172 c 1
 1153 98 l 1
 1100 45 962 -12 866 -12 c 0xb0
EndSplineSet
EndChar

StartChar: i
Encoding: 105 105 39
Width: 604
GlyphClass: 2
Flags: HMW
HStem: -12 43G<210 323> 967 41G<459 459> 979 29 1147 287<377 442>
VStem: 104 289<172 205 172 212> 258 303<1264 1317>
AnchorPoint: "Anchor-3" 395 991 basechar 0
AnchorPoint: "Anchor-2" 590 98 basechar 0
LayerCount: 2
Fore
SplineSet
391 1147 m 0xd4
 313 1147 258 1188 258 1266 c 0
 258 1368 326 1434 428 1434 c 0
 510 1434 561 1389 561 1315 c 0
 561 1213 493 1147 391 1147 c 0xd4
274 -12 m 0xb8
 145 -12 104 55 104 166 c 0
 104 258 190 715 190 770 c 0
 190 829 164 858 109 858 c 0
 97 858 82 856 66 854 c 1
 59 934 l 1
 161 977 346 1006 459 1008 c 1
 514 979 l 1
 504 909 393 221 393 188 c 0
 393 155 411 139 440 139 c 0
 465 139 498 152 535 172 c 1
 561 98 l 1
 508 45 370 -12 274 -12 c 0xb8
EndSplineSet
Substitution2: "Single Substitution lookup 12 subtable" dotlessi
EndChar

StartChar: j
Encoding: 106 106 40
Width: 575
GlyphClass: 2
Flags: HMW
HStem: -446 102<-36 -3 -36 17> 967 41G<459 459> 979 29 1147 287<375 440>
VStem: -256 190<-307 -273 -307 -247> 256 303<1264 1317>
AnchorPoint: "Anchor-3" 406 1055 basechar 0
LayerCount: 2
Fore
SplineSet
389 1147 m 0xdc
 311 1147 256 1188 256 1266 c 0
 256 1368 324 1434 426 1434 c 0
 508 1434 559 1389 559 1315 c 0
 559 1213 491 1147 389 1147 c 0xdc
-39 -446 m 0
 -174 -446 -256 -381 -256 -285 c 0
 -256 -209 -191 -147 -111 -147 c 0
 -70 -147 -36 -164 -18 -199 c 1
 -47 -222 -66 -258 -66 -289 c 0
 -66 -326 -50 -344 -23 -344 c 0
 16 -344 39 -309 53 -256 c 0
 78 -158 72 4 92 127 c 0
 112 254 190 749 190 776 c 0
 190 829 164 858 109 858 c 0
 97 858 82 856 66 854 c 1
 59 934 l 1
 161 977 346 1006 459 1008 c 1
 514 979 l 1
 485 797 l 1xbc
 350 -68 l 2
 336 -164 311 -260 256 -330 c 0
 195 -408 74 -446 -39 -446 c 0
EndSplineSet
Substitution2: "Single Substitution lookup 12 subtable" uni0237
EndChar

StartChar: k
Encoding: 107 107 41
Width: 1110
GlyphClass: 2
Flags: HMW
HStem: -12 43G<791 873> 0 43G<66 66 66 354> 963 41G<941 1005> 1397 29
VStem: 66 1038<0 121>
AnchorPoint: "Anchor-4" 551 0 basechar 0
LayerCount: 2
Fore
SplineSet
66 0 m 1x78
 242 1120 l 2
 246 1143 250 1167 250 1194 c 0
 250 1247 223 1276 168 1276 c 0
 156 1276 141 1274 125 1272 c 1
 119 1352 l 1
 223 1397 395 1425 518 1425 c 1
 573 1397 l 1
 444 575 l 1
 626 636 829 752 829 852 c 0
 829 879 799 893 750 895 c 1
 741 961 l 1
 790 977 889 1004 993 1004 c 0
 1016 1004 1035 1001 1049 997 c 1
 1071 958 l 1
 1046 813 901 679 735 575 c 1
 907 201 l 2
 921 168 946 156 973 156 c 0
 1008 156 1046 174 1071 188 c 1
 1104 121 l 1
 1028 62 921 -12 825 -12 c 0
 755 -12 705 24 668 104 c 2xb8
 508 459 l 1
 477 445 449 434 420 424 c 1
 354 0 l 1
 66 0 l 1x78
EndSplineSet
EndChar

StartChar: l
Encoding: 108 108 42
Width: 595
GlyphClass: 2
Flags: HMW
HStem: -12 43G<206 309> 1397 29
VStem: 94 289<174 213 174 220>
AnchorPoint: "Anchor-4" 250 0 basechar 0
AnchorPoint: "Anchor-3" 399 1386 basechar 0
LayerCount: 2
Fore
SplineSet
264 -12 m 0
 147 -12 94 43 94 166 c 0
 94 275 246 1098 246 1188 c 0
 246 1247 219 1276 164 1276 c 0
 148 1276 135 1274 121 1272 c 1
 115 1352 l 1
 205 1389 383 1421 514 1425 c 1
 569 1397 l 1
 557 1297 383 235 383 190 c 0
 383 157 399 139 430 139 c 0
 453 139 485 149 524 172 c 1
 551 98 l 1
 494 41 354 -12 264 -12 c 0
EndSplineSet
EndChar

StartChar: m
Encoding: 109 109 43
Width: 1781
GlyphClass: 1
Flags: HMW
HStem: -12 43G<1408 1510> 0 43G<70 358 70 70 666 956 666 666> 870 137 989 18
VStem: 459 28 782 289 1290 293<172 210> 1372 291<714 786>
LayerCount: 2
Fore
SplineSet
1286 870 m 0x6d
 1198 870 1061 674 1022 422 c 2
 956 0 l 1
 666 0 l 1
 775 657 782 697 782 756 c 0
 782 828 751 870 696 870 c 0
 596 870 461 634 424 401 c 2
 358 0 l 1
 70 0 l 1
 97 164 190 735 190 768 c 0
 190 829 164 858 109 858 c 0
 97 858 82 856 66 854 c 1
 59 934 l 1
 161 977 346 1006 459 1008 c 1x6d
 489 989 l 1x5d
 483 805 l 1
 567 936 676 1008 813 1008 c 0
 960 1008 1055 930 1071 801 c 1
 1155 934 1264 1008 1403 1008 c 0
 1567 1008 1663 914 1663 756 c 0x6d
 1663 672 1583 245 1583 188 c 0
 1583 155 1599 139 1628 139 c 0
 1653 139 1685 152 1722 172 c 1
 1749 98 l 1
 1696 45 1558 -12 1462 -12 c 0
 1353 -12 1290 37 1290 164 c 0xae
 1290 256 1372 662 1372 748 c 0
 1372 826 1341 870 1286 870 c 0x6d
EndSplineSet
EndChar

StartChar: n
Encoding: 110 110 44
Width: 1191
GlyphClass: 2
Flags: HMW
HStem: -12 43G<808 921> -12 152<808 1051> 0 43G<70 358 70 70> 870 137 989 18
VStem: 62 425 190 297 702 291<177 217> 782 291<715 787>
AnchorPoint: "Anchor-4" 584 0 basechar 0
AnchorPoint: "Anchor-3" 702 991 basechar 0
LayerCount: 2
Fore
SplineSet
872 -12 m 0x93
 743 -12 702 55 702 164 c 0x93
 702 270 782 654 782 748 c 0
 782 828 751 870 696 870 c 0
 596 870 461 634 424 401 c 2
 358 0 l 1
 70 0 l 1
 95 158 190 735 190 770 c 0
 190 829 160 858 109 858 c 0x3280
 97 858 82 856 66 854 c 1
 59 934 l 1x3480
 161 977 346 1006 459 1008 c 1x3280
 492 989 l 1x2a80
 483 803 l 1
 565 936 676 1008 813 1008 c 0
 977 1008 1073 914 1073 756 c 0x3280
 1073 674 993 258 993 190 c 0
 993 163 1003 139 1038 139 c 0
 1063 139 1096 152 1133 172 c 1x53
 1159 98 l 1
 1106 45 968 -12 872 -12 c 0x93
EndSplineSet
Substitution2: "'sups' Superscript in Latin lookup 5 subtable" uni207F
Substitution2: "'aalt' Access All Alternates in Latin lookup 0 subtable" uni207F
EndChar

StartChar: o
Encoding: 111 111 45
Width: 1134
GlyphClass: 2
Flags: HMW
HStem: -14 115<458 608 458 680> 893 115<527 677>
VStem: 66 295<257 436 239 570> 774 295<553 733 421 752>
AnchorPoint: "Anchor-3" 674 991 basechar 0
AnchorPoint: "Anchor-2" 606 0 basechar 0
LayerCount: 2
Fore
SplineSet
492 -14 m 0
 218 -14 66 121 66 393 c 0
 66 747 268 1008 643 1008 c 0
 917 1008 1069 868 1069 598 c 0
 1069 244 869 -14 492 -14 c 0
508 100 m 0
 709 100 774 430 774 676 c 0
 774 828 727 893 627 893 c 0
 428 893 360 559 360 313 c 0
 360 163 408 100 508 100 c 0
EndSplineSet
Substitution2: "Single Substitution lookup 14 subtable" ordmasculine
Substitution2: "'aalt' Access All Alternates in Latin lookup 0 subtable" ordmasculine
EndChar

StartChar: p
Encoding: 112 112 46
Width: 1175
GlyphClass: 1
Flags: HMW
HStem: -442 43G<148 253> -14 109<518 625 482 734> 885 123 989 18
VStem: 33 293<-262 -236 -262 -231> 62 426 190 298 815 297<524 734>
LayerCount: 2
Fore
SplineSet
205 -442 m 0xe9
 92 -442 33 -389 33 -283 c 0xe9
 33 -181 190 698 190 772 c 0
 190 829 164 858 109 858 c 0xe3
 97 858 82 856 66 854 c 1
 59 934 l 1xe5
 161 977 346 1006 459 1008 c 1xe3
 492 989 l 1xd3
 485 854 l 1xe3
 561 956 664 1008 799 1008 c 0
 1002 1008 1112 881 1112 639 c 0
 1112 229 905 -14 563 -14 c 0
 473 -14 420 4 367 35 c 1
 357 -26 326 -223 326 -248 c 0
 326 -277 344 -291 371 -291 c 0
 396 -291 428 -278 465 -258 c 1
 492 -332 l 1
 439 -385 301 -442 205 -442 c 0xe9
510 94 m 0
 739 94 815 389 815 659 c 0
 815 809 774 885 688 885 c 0
 579 885 486 785 453 582 c 2
 381 135 l 1
 406 115 455 94 510 94 c 0
EndSplineSet
EndChar

StartChar: q
Encoding: 113 113 47
Width: 1138
GlyphClass: 1
Flags: HMW
HStem: -442 43G<699 808> -23 125<436 445> 907 100<588 660 468 686> 965 41G<971 1019>
VStem: 66 295<301 553 301 590>
LayerCount: 2
Fore
SplineSet
760 -442 m 0xe8
 639 -442 588 -379 588 -285 c 0
 588 -226 629 33 637 88 c 1
 578 20 500 -23 391 -23 c 0
 221 -23 66 101 66 371 c 0
 66 809 314 1008 623 1008 c 0
 699 1008 766 992 836 967 c 1
 879 992 934 1006 1008 1006 c 0xe8
 1031 1006 1053 1003 1073 1001 c 1xd8
 881 -238 l 2
 877 -269 893 -291 928 -291 c 0
 951 -291 983 -278 1020 -258 c 1
 1047 -332 l 1
 994 -385 856 -442 760 -442 c 0xe8
483 102 m 0
 587 102 666 281 709 543 c 2
 766 891 l 1
 735 901 703 907 670 907 c 0
 506 907 360 733 360 373 c 0
 360 230 389 102 483 102 c 0
EndSplineSet
EndChar

StartChar: r
Encoding: 114 114 48
Width: 925
GlyphClass: 2
Flags: HMW
HStem: 0 43G<70 70 70 358> 659 342<806 862> 821 180<641 863> 967 41G<386 459> 975 33
VStem: 59 920<795 934> 741 238<757 900>
AnchorPoint: "Anchor-4" 215 0 basechar 0
AnchorPoint: "Anchor-3" 553 991 basechar 0
LayerCount: 2
Fore
SplineSet
70 0 m 1x94
 142 442 190 729 190 780 c 0
 190 831 160 858 109 858 c 0
 97 858 82 856 66 854 c 1
 59 934 l 1
 176 983 314 1008 459 1008 c 1
 516 975 l 1x8c
 475 721 l 1
 549 873 659 1001 813 1001 c 0xa2
 913 1001 979 948 979 852 c 0
 979 737 897 659 827 659 c 0
 784 659 741 684 721 711 c 1xc2
 733 723 741 748 741 766 c 0
 741 797 723 821 686 821 c 0xa2
 596 821 451 571 420 381 c 2
 358 0 l 1
 70 0 l 1x94
EndSplineSet
EndChar

StartChar: s
Encoding: 115 115 49
Width: 874
GlyphClass: 2
Flags: HMW
HStem: -16 102<310 391 310 490> 915 92<464 545>
VStem: 90 264<733 781> 508 279<238 276> 621 229<808 853>
AnchorPoint: "Anchor-5" 389 0 basechar 0
AnchorPoint: "Anchor-4" 356 0 basechar 0
AnchorPoint: "Anchor-3" 522 991 basechar 0
LayerCount: 2
Fore
SplineSet
326 -16 m 0xf0
 222 -16 90 26 8 92 c 1
 74 348 l 1
 186 328 l 1
 184 303 182 269 182 236 c 0
 182 207 184 179 188 154 c 1
 215 117 274 86 346 86 c 0
 436 86 508 152 508 242 c 0xf0
 508 312 458 363 315 418 c 0
 163 479 90 557 90 696 c 0
 90 866 233 1008 518 1008 c 0
 702 1008 850 924 850 801 c 0
 850 719 786 657 694 657 c 0
 637 657 588 684 563 725 c 1
 598 750 621 788 621 827 c 0xe8
 621 878 582 915 508 915 c 0
 420 915 354 848 354 770 c 0
 354 696 406 659 553 600 c 0
 713 537 786 451 786 330 c 0
 786 146 656 -16 326 -16 c 0xf0
EndSplineSet
EndChar

StartChar: t
Encoding: 116 116 50
Width: 718
GlyphClass: 2
Flags: HMW
HStem: -8 152<238 489> 846 133<485 772 510 750>
VStem: 94 295<191 213>
AnchorPoint: "Anchor-4" 297 0 basechar 0
AnchorPoint: "Anchor-3" 465 1155 basechar 0
LayerCount: 2
Fore
SplineSet
309 -8 m 0
 166 -8 94 63 94 180 c 0
 94 246 185 776 195 846 c 1
 49 846 l 1
 63 936 l 1
 200 985 328 1075 410 1196 c 1
 543 1196 l 1
 510 979 l 1
 772 979 l 1
 750 846 l 1
 485 846 l 1
 477 791 389 260 389 215 c 0
 389 168 414 143 465 143 c 0
 514 143 598 186 643 215 c 1
 692 147 l 1
 606 65 446 -8 309 -8 c 0
EndSplineSet
EndChar

StartChar: u
Encoding: 117 117 51
Width: 1206
GlyphClass: 2
Flags: HMW
HStem: -16 139<292 536> -12 152<812 1053> 950 41G 961 41G<964 1020> 967 41G<396 463>
VStem: 117 293<194 267> 702 293<171 176>
AnchorPoint: "Anchor-3" 678 991 basechar 0
AnchorPoint: "Anchor-2" 1044 0 basechar 0
LayerCount: 2
Fore
SplineSet
463 1008 m 1x8e
 518 971 l 1x8e
 510 920 410 311 410 229 c 0
 410 157 440 123 485 123 c 0
 585 123 721 324 758 543 c 2
 829 963 l 1
 872 986 924 1001 1004 1001 c 0x96
 1037 1001 1077 997 1122 991 c 1
 1106 895 995 231 995 188 c 0
 995 153 1007 139 1038 139 c 0
 1067 139 1104 154 1135 172 c 1x66
 1161 94 l 1
 1091 47 977 -12 868 -12 c 0
 755 -12 702 47 702 176 c 1
 618 51 512 -16 369 -16 c 0
 215 -16 117 77 117 227 c 0
 117 307 195 710 195 778 c 0
 195 829 166 858 113 858 c 0
 101 858 86 856 70 854 c 1
 63 934 l 1
 159 975 330 1008 463 1008 c 1x8e
EndSplineSet
EndChar

StartChar: v
Encoding: 118 118 52
Width: 1005
GlyphClass: 1
Flags: HMW
HStem: -14 43G<438 438> 0 43G<236 236> 895 109 946 57 961 41G<247 323>
VStem: -2 1018<940 946>
LayerCount: 2
Fore
SplineSet
438 -14 m 1x94
 383 -16 289 -12 236 0 c 1
 135 750 l 2
 121 848 73 874 10 874 c 1
 -2 940 l 1
 64 979 184 1001 309 1001 c 0
 336 1001 360 1001 387 999 c 1x4c
 483 274 l 1
 684 586 l 2
 709 625 770 739 770 817 c 0
 770 885 723 895 655 895 c 1x64
 647 971 l 1
 715 991 823 1004 899 1004 c 0
 926 1004 963 1001 981 999 c 1
 1016 946 l 1
 1008 895 975 745 854 573 c 2
 438 -14 l 1x94
EndSplineSet
EndChar

StartChar: w
Encoding: 119 119 53
Width: 1556
GlyphClass: 2
Flags: HMW
HStem: -14 43G<438 438 974 1008> 950 41G<905 936> 961 41G<233 306> 963 41G<1410 1461>
VStem: -2 1567<940 940>
AnchorPoint: "Anchor-3" 840 991 basechar 0
LayerCount: 2
Fore
SplineSet
246 0 m 1x98
 145 750 l 2
 135 830 94 876 10 874 c 1
 -2 940 l 1
 59 979 174 1001 293 1001 c 0
 320 1001 344 1001 369 999 c 1xa8
 467 258 l 1
 686 614 713 692 713 887 c 2
 713 977 l 1
 787 989 875 991 936 991 c 1xc8
 1036 246 l 1
 1255 588 1319 733 1319 819 c 0
 1319 872 1282 893 1225 895 c 1
 1217 971 l 1
 1285 991 1372 1004 1448 1004 c 0
 1475 1004 1503 1003 1530 999 c 1
 1565 946 l 1
 1565 889 1482 693 1378 537 c 2
 1008 -14 l 1
 940 -14 870 -12 815 0 c 1
 752 477 l 1
 438 -14 l 1
 366 -20 291 -14 246 0 c 1x98
EndSplineSet
EndChar

StartChar: x
Encoding: 120 120 54
Width: 987
GlyphClass: 1
Flags: HMW
HStem: -8 43G<644 730> 0 78<-18 336> 936 68 963 41G<263 364 794 869>
VStem: -41 1042<57 936>
LayerCount: 2
Fore
SplineSet
688 -8 m 0x98
 600 -8 533 45 494 125 c 2x98
 383 354 l 1
 305 278 248 215 248 164 c 0
 248 129 273 101 336 78 c 1
 326 0 l 1
 -18 0 l 1
 -41 57 l 1
 -12 94 76 201 332 463 c 1
 195 752 l 2
 148 834 125 850 41 850 c 1
 31 918 l 1
 31 918 176 1004 350 1004 c 0
 377 1004 392 1003 408 999 c 1
 567 655 l 1
 635 727 692 793 692 838 c 0
 692 861 659 885 612 893 c 1
 631 969 l 1
 666 979 739 1004 848 1004 c 0
 891 1004 936 1001 977 997 c 1
 1001 936 l 1x68
 616 551 l 1
 748 268 l 2
 771 217 799 176 840 176 c 0
 863 176 889 188 924 219 c 1
 971 156 l 1
 871 39 772 -8 688 -8 c 0x98
EndSplineSet
EndChar

StartChar: y
Encoding: 121 121 55
Width: 1005
GlyphClass: 2
Flags: HMW
HStem: -451 43G<284 380> -451 176<284 443> -10 43G 0 43G<236 236> 946 57 961 41G<247 323> 963 41G<861 912>
VStem: 172 195<-353 -208> 172 334<-333 -285 -333 -263>
AnchorPoint: "Anchor-3" 575 991 basechar 0
LayerCount: 2
Fore
SplineSet
326 -451 m 0x9280
 242 -451 172 -399 172 -307 c 0
 172 -219 241 -110 313 -10 c 1xa280
 284 -8 256 -6 236 0 c 1
 135 750 l 2
 123 836 84 874 10 874 c 1
 -2 940 l 1
 59 979 184 1001 309 1001 c 0x9480
 336 1001 360 1001 387 999 c 1x95
 487 236 l 1
 653 498 734 680 752 731 c 0
 764 768 768 796 768 819 c 0
 768 887 711 893 676 895 c 1
 668 971 l 1
 736 991 823 1004 899 1004 c 0
 926 1004 956 1001 981 999 c 1
 1016 946 l 1
 1006 905 965 753 854 573 c 2
 399 -133 l 2
 376 -168 367 -196 367 -219 c 0
 367 -252 391 -274 432 -274 c 0x59
 455 -274 482 -266 502 -250 c 1x5280
 504 -264 506 -279 506 -291 c 0
 506 -375 435 -451 326 -451 c 0x9280
EndSplineSet
EndChar

StartChar: z
Encoding: 122 122 56
Width: 958
GlyphClass: 2
Flags: HMW
HStem: -8 123 877 119 911 84
VStem: 2 958<86 911>
AnchorPoint: "Anchor-3" 565 991 basechar 0
LayerCount: 2
Fore
SplineSet
23 -8 m 1xd0
 2 86 l 1
 618 877 l 1
 530 881 442 881 358 877 c 1
 338 842 293 770 268 674 c 1
 252 670 239 668 219 668 c 0
 184 668 152 672 119 686 c 1
 135 934 l 1
 211 995 l 1
 299 989 441 991 584 991 c 0
 699 991 821 991 938 995 c 1xd0
 961 911 l 1xb0
 346 115 l 1
 442 117 532 117 614 115 c 1
 647 158 692 248 719 334 c 1
 733 340 750 342 770 342 c 0
 803 342 845 330 868 322 c 1
 817 59 l 1
 756 -8 l 1
 629 -6 502 0 387 0 c 0
 270 0 121 -4 23 -8 c 1xd0
EndSplineSet
EndChar

StartChar: Aacute
Encoding: 193 193 57
Width: 1257
GlyphClass: 2
Flags: HMW
HStem: 0 82<-113 -102 -102 -102 -102 350> 426 129<406 739 406 762 340 739> 1325 41G<666 879 879 879>
VStem: -113 1350<0 82>
AnchorPoint: "Anchor-3" 772 1366 basechar 0
AnchorPoint: "Anchor-2" 1012 0 basechar 0
LayerCount: 2
Fore
SplineSet
735 1456 m 1
 674 1526 l 1
 866 1765 l 2
 905 1812 946 1831 981 1831 c 0
 1034 1831 1075 1788 1075 1737 c 0
 1075 1700 1055 1661 1004 1628 c 2
 735 1456 l 1
-113 0 m 1
 -102 82 l 1
 -24 88 23 110 39 143 c 2
 666 1366 l 1
 879 1366 l 1
 1124 164 l 2
 1134 117 1176 94 1237 82 c 1
 1229 0 l 1
 664 0 l 1
 676 82 l 1
 735 90 786 106 811 133 c 1
 762 426 l 1
 340 426 l 1
 197 143 l 1
 232 110 292 90 360 82 c 1
 350 0 l 1
 -113 0 l 1
406 555 m 1
 739 555 l 1
 657 1047 l 1
 406 555 l 1
EndSplineSet
EndChar

StartChar: Abreve
Encoding: 258 258 58
Width: 1257
GlyphClass: 2
Flags: HMW
HStem: 0 82<-113 -102 -102 -102 -102 350> 426 129<406 739 406 762 340 739> 1325 41G<666 879 879 879> 1479 160<769 865 769 874>
VStem: 541 129
AnchorPoint: "Anchor-3" 772 1366 basechar 0
AnchorPoint: "Anchor-2" 1012 0 basechar 0
LayerCount: 2
Fore
SplineSet
793 1479 m 0
 637 1479 531 1573 541 1745 c 1
 566 1772 627 1786 670 1780 c 1
 670 1690 721 1638 817 1638 c 0
 913 1638 981 1690 1010 1780 c 1
 1067 1780 1093 1773 1128 1759 c 1
 1085 1589 957 1479 793 1479 c 0
-113 0 m 1
 -102 82 l 1
 -24 88 23 110 39 143 c 2
 666 1366 l 1
 879 1366 l 1
 1124 164 l 2
 1134 117 1176 94 1237 82 c 1
 1229 0 l 1
 664 0 l 1
 676 82 l 1
 735 90 786 106 811 133 c 1
 762 426 l 1
 340 426 l 1
 197 143 l 1
 232 110 292 90 360 82 c 1
 350 0 l 1
 -113 0 l 1
406 555 m 1
 739 555 l 1
 657 1047 l 1
 406 555 l 1
EndSplineSet
EndChar

StartChar: Acircumflex
Encoding: 194 194 59
Width: 1257
GlyphClass: 2
Flags: HMW
HStem: 0 82<-113 -102 -102 -102 -102 350> 426 129<406 739 406 762 340 739> 1325 41G<666 879 879 879>
VStem: -113 1350<0 82>
AnchorPoint: "Anchor-3" 772 1366 basechar 0
AnchorPoint: "Anchor-2" 1012 0 basechar 0
LayerCount: 2
Fore
SplineSet
547 1481 m 1
 487 1554 l 1
 709 1767 l 2
 758 1814 795 1831 838 1831 c 0
 883 1831 913 1812 946 1763 c 2
 1096 1544 l 1
 1026 1481 l 1
 811 1638 l 1
 547 1481 l 1
-113 0 m 1
 -102 82 l 1
 -24 88 23 110 39 143 c 2
 666 1366 l 1
 879 1366 l 1
 1124 164 l 2
 1134 117 1176 94 1237 82 c 1
 1229 0 l 1
 664 0 l 1
 676 82 l 1
 735 90 786 106 811 133 c 1
 762 426 l 1
 340 426 l 1
 197 143 l 1
 232 110 292 90 360 82 c 1
 350 0 l 1
 -113 0 l 1
406 555 m 1
 739 555 l 1
 657 1047 l 1
 406 555 l 1
EndSplineSet
EndChar

StartChar: Adieresis
Encoding: 196 196 60
Width: 1257
GlyphClass: 2
Flags: HMW
HStem: 0 82<-113 -102 -102 -102 -102 350> 426 129<406 739 406 762 340 739> 1325 41G<666 879 879 879> 1516 272<617 673 951 1007>
VStem: 514 262<1628 1677> 848 262<1628 1677>
AnchorPoint: "Anchor-3" 772 1366 basechar 0
AnchorPoint: "Anchor-2" 1012 0 basechar 0
LayerCount: 2
Fore
SplineSet
629 1516 m 0
 557 1516 514 1558 514 1626 c 0
 514 1728 574 1788 662 1788 c 0
 734 1788 776 1745 776 1679 c 0
 776 1577 717 1516 629 1516 c 0
963 1516 m 0
 891 1516 848 1558 848 1626 c 0
 848 1728 907 1788 995 1788 c 0
 1067 1788 1110 1745 1110 1679 c 0
 1110 1577 1051 1516 963 1516 c 0
-113 0 m 1
 -102 82 l 1
 -24 88 23 110 39 143 c 2
 666 1366 l 1
 879 1366 l 1
 1124 164 l 2
 1134 117 1176 94 1237 82 c 1
 1229 0 l 1
 664 0 l 1
 676 82 l 1
 735 90 786 106 811 133 c 1
 762 426 l 1
 340 426 l 1
 197 143 l 1
 232 110 292 90 360 82 c 1
 350 0 l 1
 -113 0 l 1
406 555 m 1
 739 555 l 1
 657 1047 l 1
 406 555 l 1
EndSplineSet
EndChar

StartChar: Agrave
Encoding: 192 192 61
Width: 1257
GlyphClass: 2
Flags: HMW
HStem: 0 82<-113 -102 -102 -102 -102 350> 426 129<406 739 406 762 340 739> 1325 41G<666 879 879 879>
VStem: -113 1350<0 82>
AnchorPoint: "Anchor-3" 772 1366 basechar 0
AnchorPoint: "Anchor-2" 1012 0 basechar 0
LayerCount: 2
Fore
SplineSet
883 1460 m 1
 614 1632 l 2
 563 1665 543 1704 543 1741 c 0
 543 1792 584 1835 637 1835 c 0
 672 1835 713 1816 752 1769 c 2
 944 1530 l 1
 883 1460 l 1
-113 0 m 1
 -102 82 l 1
 -24 88 23 110 39 143 c 2
 666 1366 l 1
 879 1366 l 1
 1124 164 l 2
 1134 117 1176 94 1237 82 c 1
 1229 0 l 1
 664 0 l 1
 676 82 l 1
 735 90 786 106 811 133 c 1
 762 426 l 1
 340 426 l 1
 197 143 l 1
 232 110 292 90 360 82 c 1
 350 0 l 1
 -113 0 l 1
406 555 m 1
 739 555 l 1
 657 1047 l 1
 406 555 l 1
EndSplineSet
EndChar

StartChar: Amacron
Encoding: 256 256 62
Width: 1257
GlyphClass: 2
Flags: HMW
HStem: 0 82<-113 -102 -102 -102 -102 350> 426 129<406 739 406 762 340 739> 1325 41G<666 879 879 879> 1575 139<485 1145 508 1122>
VStem: -113 1350<0 82>
AnchorPoint: "Anchor-3" 772 1366 basechar 0
AnchorPoint: "Anchor-2" 1012 0 basechar 0
LayerCount: 2
Fore
SplineSet
485 1575 m 1
 508 1714 l 1
 1145 1714 l 1
 1122 1575 l 1
 485 1575 l 1
-113 0 m 1
 -102 82 l 1
 -24 88 23 110 39 143 c 2
 666 1366 l 1
 879 1366 l 1
 1124 164 l 2
 1134 117 1176 94 1237 82 c 1
 1229 0 l 1
 664 0 l 1
 676 82 l 1
 735 90 786 106 811 133 c 1
 762 426 l 1
 340 426 l 1
 197 143 l 1
 232 110 292 90 360 82 c 1
 350 0 l 1
 -113 0 l 1
406 555 m 1
 739 555 l 1
 657 1047 l 1
 406 555 l 1
EndSplineSet
EndChar

StartChar: Aogonek
Encoding: 260 260 63
Width: 1257
GlyphClass: 2
Flags: HMW
HStem: -418 121<715 860> 0 82<-102 -102 -102 350 -113 -102> 426 129<406 739 406 762 340 739> 1325 41G<666 879 879 879>
VStem: 600 182<-252 -242>
AnchorPoint: "Anchor-3" 772 1366 basechar 0
LayerCount: 2
Fore
SplineSet
1229 0 m 1
 1053 0 l 2
 983 0 917 -29 872 -68 c 0
 817 -115 782 -178 782 -229 c 0
 782 -274 807 -297 842 -297 c 0
 879 -297 917 -273 946 -248 c 1
 993 -319 l 1
 934 -382 834 -418 762 -418 c 0
 668 -418 600 -362 600 -276 c 0
 600 -206 639 -151 707 -90 c 0
 789 -14 825 49 807 160 c 2
 762 426 l 1
 340 426 l 1
 197 143 l 1
 232 110 292 90 360 82 c 1
 350 0 l 1
 -113 0 l 1
 -102 82 l 1
 -49 86 2 98 33 133 c 1
 666 1366 l 1
 879 1366 l 1
 1126 152 l 1
 1144 109 1190 90 1237 82 c 1
 1229 0 l 1
406 555 m 1
 739 555 l 1
 657 1047 l 1
 406 555 l 1
EndSplineSet
EndChar

StartChar: Aring
Encoding: 197 197 64
Width: 1257
GlyphClass: 2
Flags: HMW
HStem: 0 82<-113 -102 -102 -102 -102 350> 426 129<406 739 406 762 340 739> 1325 41G<666 879 879 879> 1454 94<776 826 776 861> 1772 94<806 859>
VStem: 590 145<1608 1676 1608 1694> 901 145<1640 1709>
AnchorPoint: "Anchor-3" 772 1366 basechar 0
AnchorPoint: "Anchor-2" 1012 0 basechar 0
LayerCount: 2
Fore
SplineSet
784 1454 m 0
 669 1454 590 1517 590 1630 c 0
 590 1757 696 1866 850 1866 c 0
 969 1866 1047 1790 1047 1688 c 0
 1047 1559 938 1454 784 1454 c 0
799 1548 m 0
 854 1548 901 1596 901 1686 c 0
 901 1733 883 1772 836 1772 c 0
 777 1772 735 1722 735 1630 c 0
 735 1585 754 1548 799 1548 c 0
-113 0 m 1
 -102 82 l 1
 -24 88 23 110 39 143 c 2
 666 1366 l 1
 879 1366 l 1
 1124 164 l 2
 1134 117 1176 94 1237 82 c 1
 1229 0 l 1
 664 0 l 1
 676 82 l 1
 735 90 786 106 811 133 c 1
 762 426 l 1
 340 426 l 1
 197 143 l 1
 232 110 292 90 360 82 c 1
 350 0 l 1
 -113 0 l 1
406 555 m 1
 739 555 l 1
 657 1047 l 1
 406 555 l 1
EndSplineSet
EndChar

StartChar: Aringacute
Encoding: 506 506 65
Width: 1257
GlyphClass: 2
Flags: HMW
HStem: 0 82<-102 -102 -102 350 -113 -102> 426 129<406 739 406 762 340 739> 1329 41G<758 808> 1593 94<787 841>
VStem: 571 145<1430 1498 1430 1516> 883 145<1464 1531>
AnchorPoint: "Anchor-3" 772 1366 basechar 0
AnchorPoint: "Anchor-2" 1012 0 basechar 0
LayerCount: 2
Fore
SplineSet
963 1772 m 2
 664 1659 l 1
 618 1739 l 1
 856 1933 l 2
 905 1972 948 1980 983 1974 c 0
 1034 1962 1065 1913 1055 1862 c 0
 1049 1825 1020 1792 963 1772 c 2
1124 164 m 2
 1134 117 1176 94 1237 82 c 1
 1229 0 l 1
 664 0 l 1
 676 82 l 1
 735 90 786 106 811 133 c 1
 762 426 l 1
 340 426 l 1
 197 143 l 1
 232 110 292 90 360 82 c 1
 350 0 l 1
 -113 0 l 1
 -102 82 l 1
 -24 88 23 110 39 143 c 2
 637 1313 l 1
 596 1342 571 1389 571 1452 c 0
 571 1579 677 1688 831 1688 c 0
 950 1688 1028 1611 1028 1509 c 0
 1028 1419 975 1342 891 1303 c 1
 1124 164 l 2
817 1593 m 0
 758 1593 717 1544 717 1452 c 0
 717 1407 735 1370 780 1370 c 0
 835 1370 883 1417 883 1507 c 0
 883 1554 864 1593 817 1593 c 0
406 555 m 1
 739 555 l 1
 657 1047 l 1
 406 555 l 1
EndSplineSet
EndChar

StartChar: Atilde
Encoding: 195 195 66
Width: 1257
GlyphClass: 2
Flags: HMW
HStem: 0 82<-113 -102 -102 -102 -102 350> 426 129<406 739 406 762 340 739> 1325 41G<666 879 879 879> 1507 178<909 971 909 973> 1587 180<668 729>
VStem: -113 1350<0 82>
AnchorPoint: "Anchor-3" 772 1366 basechar 0
AnchorPoint: "Anchor-2" 1012 0 basechar 0
LayerCount: 2
Fore
SplineSet
557 1509 m 1xec
 528 1519 482 1544 459 1575 c 1
 531 1690 621 1767 715 1767 c 0xec
 797 1767 868 1686 950 1686 c 0
 991 1686 1040 1718 1081 1765 c 1
 1110 1755 1157 1731 1180 1702 c 1
 1110 1587 1020 1507 926 1507 c 0xf4
 844 1507 770 1587 688 1587 c 0
 647 1587 600 1558 557 1509 c 1xec
-113 0 m 1xf4
 -102 82 l 1
 -24 88 23 110 39 143 c 2
 666 1366 l 1
 879 1366 l 1
 1124 164 l 2
 1134 117 1176 94 1237 82 c 1
 1229 0 l 1
 664 0 l 1
 676 82 l 1
 735 90 786 106 811 133 c 1
 762 426 l 1
 340 426 l 1
 197 143 l 1
 232 110 292 90 360 82 c 1
 350 0 l 1
 -113 0 l 1xf4
406 555 m 1
 739 555 l 1
 657 1047 l 1
 406 555 l 1
EndSplineSet
EndChar

StartChar: AE
Encoding: 198 198 67
Width: 1728
GlyphClass: 2
Flags: HMW
HStem: 0 82<-100 -76 -76 -76 -76 377> 0 84<604 625 625 625 625 1554> 0 127<1051 1348 1051 1554> 426 129<506 797 424 817> 643 120 1014 352<1624 1650> 1241 125<1227 1509 1227 1227>
VStem: -100 1862<0 1366>
AnchorPoint: "Anchor-4" 942 0 basechar 0
AnchorPoint: "Anchor-3" 1288 1366 basechar 0
LayerCount: 2
Fore
SplineSet
-100 0 m 1x33
 -76 82 l 1
 -17 84 41 102 66 145 c 2
 856 1366 l 1
 1761 1366 l 1x93
 1716 1028 l 1
 1689 1018 1665 1014 1634 1014 c 0
 1614 1014 1590 1016 1563 1022 c 1x35
 1557 1126 1542 1186 1509 1241 c 1
 1227 1241 l 1
 1149 756 l 1
 1282 770 l 2
 1331 774 1384 825 1417 907 c 1
 1524 907 l 1
 1456 483 l 1
 1350 483 l 1
 1330 594 1304 629 1257 635 c 2
 1133 651 l 1
 1051 127 l 1
 1348 127 l 1
 1401 190 1446 276 1485 387 c 1
 1514 391 1538 393 1569 393 c 0
 1592 393 1613 391 1636 387 c 1
 1554 0 l 1
 604 0 l 1x3b
 625 84 l 1
 670 90 727 112 750 135 c 1x53
 797 426 l 1
 424 426 l 1
 242 139 l 1
 277 106 336 90 399 82 c 1x93
 377 0 l 1
 -100 0 l 1x33
506 555 m 1
 817 555 l 1
 928 1221 l 1
 506 555 l 1
EndSplineSet
EndChar

StartChar: AEacute
Encoding: 508 508 68
Width: 1728
GlyphClass: 2
Flags: HMW
HStem: 0 82<-100 -76 -76 -76 -76 377> 0 84<604 625 625 625 625 1554> 0 127<1051 1348 1051 1554> 426 129<506 797 424 817> 643 120 1014 352<1624 1650> 1241 125<1227 1509 1227 1227>
VStem: -100 1862<0 1366>
AnchorPoint: "Anchor-4" 942 0 basechar 0
AnchorPoint: "Anchor-3" 1288 1366 basechar 0
LayerCount: 2
Fore
SplineSet
1251 1456 m 1x33
 1190 1526 l 1
 1382 1765 l 2
 1421 1812 1462 1831 1497 1831 c 0
 1550 1831 1591 1788 1591 1737 c 0
 1591 1700 1571 1661 1520 1628 c 2
 1251 1456 l 1x33
-100 0 m 1
 -76 82 l 1
 -17 84 41 102 66 145 c 2
 856 1366 l 1
 1761 1366 l 1x93
 1716 1028 l 1
 1689 1018 1665 1014 1634 1014 c 0
 1614 1014 1590 1016 1563 1022 c 1x35
 1557 1126 1542 1186 1509 1241 c 1
 1227 1241 l 1
 1149 756 l 1
 1282 770 l 2
 1331 774 1384 825 1417 907 c 1
 1524 907 l 1
 1456 483 l 1
 1350 483 l 1
 1330 594 1304 629 1257 635 c 2
 1133 651 l 1
 1051 127 l 1
 1348 127 l 1
 1401 190 1446 276 1485 387 c 1
 1514 391 1538 393 1569 393 c 0
 1592 393 1613 391 1636 387 c 1
 1554 0 l 1
 604 0 l 1x3b
 625 84 l 1
 670 90 727 112 750 135 c 1x53
 797 426 l 1
 424 426 l 1
 242 139 l 1
 277 106 336 90 399 82 c 1x93
 377 0 l 1
 -100 0 l 1
506 555 m 1
 817 555 l 1
 928 1221 l 1
 506 555 l 1
EndSplineSet
EndChar

StartChar: Cacute
Encoding: 262 262 69
Width: 1110
GlyphClass: 2
Flags: HMW
HStem: -20 139<574 648> 1272 109<634 804>
VStem: 76 338<382 669 382 778> 887 285<1136 1192>
AnchorPoint: "Anchor-5" 563 0 basechar 0
AnchorPoint: "Anchor-3" 752 1366 basechar 0
LayerCount: 2
Fore
SplineSet
715 1456 m 1
 653 1526 l 1
 846 1765 l 2
 885 1812 926 1831 961 1831 c 0
 1014 1831 1055 1788 1055 1737 c 0
 1055 1700 1034 1661 983 1628 c 2
 715 1456 l 1
571 -20 m 0
 245 -20 76 166 76 510 c 0
 76 1047 318 1380 793 1380 c 0
 1022 1380 1171 1282 1171 1137 c 0
 1171 1026 1079 934 977 934 c 0
 911 934 852 973 836 1028 c 1
 867 1069 887 1114 887 1157 c 0
 887 1227 842 1272 766 1272 c 0
 502 1272 414 834 414 504 c 0
 414 260 488 119 662 119 c 0
 771 119 886 172 997 272 c 1
 1055 207 l 1
 903 64 725 -20 571 -20 c 0
EndSplineSet
EndChar

StartChar: Ccaron
Encoding: 268 268 70
Width: 1110
GlyphClass: 2
Flags: HMW
HStem: -20 139<574 648> 1272 109<634 804>
VStem: 76 338<382 669 382 778> 887 285<1136 1192>
AnchorPoint: "Anchor-5" 563 0 basechar 0
AnchorPoint: "Anchor-3" 752 1366 basechar 0
LayerCount: 2
Fore
SplineSet
780 1468 m 0
 739 1468 703 1485 668 1532 c 2
 514 1743 l 1
 586 1819 l 1
 805 1669 l 1
 1073 1819 l 1
 1124 1743 l 1
 907 1534 l 2
 862 1491 819 1468 780 1468 c 0
571 -20 m 0
 245 -20 76 166 76 510 c 0
 76 1047 318 1380 793 1380 c 0
 1022 1380 1171 1282 1171 1137 c 0
 1171 1026 1079 934 977 934 c 0
 911 934 852 973 836 1028 c 1
 867 1069 887 1114 887 1157 c 0
 887 1227 842 1272 766 1272 c 0
 502 1272 414 834 414 504 c 0
 414 260 488 119 662 119 c 0
 771 119 886 172 997 272 c 1
 1055 207 l 1
 903 64 725 -20 571 -20 c 0
EndSplineSet
EndChar

StartChar: Ccedilla
Encoding: 199 199 71
Width: 1110
GlyphClass: 2
Flags: HMW
HStem: -430 86<445 486 445 519> -18 137<604 604> 1272 109<634 804>
VStem: 76 338<382 669 382 778> 262 141<-296 -260 -296 -259> 547 156<-271 -210> 887 285<1136 1192>
AnchorPoint: "Anchor-5" 563 0 basechar 0
AnchorPoint: "Anchor-3" 752 1366 basechar 0
LayerCount: 2
Fore
SplineSet
977 934 m 0xf6
 911 934 852 973 836 1028 c 1
 867 1069 887 1114 887 1157 c 0
 887 1227 842 1272 766 1272 c 0
 502 1272 414 834 414 504 c 0xf6
 414 260 488 119 662 119 c 0
 771 119 886 172 997 272 c 1
 1055 207 l 1
 914 74 749 -8 604 -18 c 1
 584 -80 l 1
 656 -103 702 -137 702 -215 c 0
 702 -336 588 -430 451 -430 c 0
 314 -430 262 -352 262 -291 c 0
 262 -228 305 -178 373 -178 c 0
 391 -178 407 -183 434 -197 c 1
 416 -215 403 -243 403 -276 c 0xee
 403 -315 428 -344 463 -344 c 0
 510 -344 547 -303 547 -240 c 0
 547 -181 499 -156 440 -150 c 1
 406 -100 l 1
 489 -16 l 1
 217 13 76 197 76 510 c 0
 76 1047 318 1380 793 1380 c 0
 1022 1380 1171 1282 1171 1137 c 0
 1171 1026 1079 934 977 934 c 0xf6
EndSplineSet
EndChar

StartChar: Ccircumflex
Encoding: 264 264 72
Width: 1110
GlyphClass: 2
Flags: HMW
HStem: -20 139<574 648> 1272 109<634 804>
VStem: 76 338<382 669 382 778> 887 285<1136 1192>
AnchorPoint: "Anchor-5" 563 0 basechar 0
AnchorPoint: "Anchor-3" 752 1366 basechar 0
LayerCount: 2
Fore
SplineSet
526 1481 m 1
 467 1554 l 1
 688 1767 l 2
 737 1814 774 1831 817 1831 c 0
 862 1831 893 1812 926 1763 c 2
 1075 1544 l 1
 1006 1481 l 1
 791 1638 l 1
 526 1481 l 1
571 -20 m 0
 245 -20 76 166 76 510 c 0
 76 1047 318 1380 793 1380 c 0
 1022 1380 1171 1282 1171 1137 c 0
 1171 1026 1079 934 977 934 c 0
 911 934 852 973 836 1028 c 1
 867 1069 887 1114 887 1157 c 0
 887 1227 842 1272 766 1272 c 0
 502 1272 414 834 414 504 c 0
 414 260 488 119 662 119 c 0
 771 119 886 172 997 272 c 1
 1055 207 l 1
 903 64 725 -20 571 -20 c 0
EndSplineSet
EndChar

StartChar: Cdotaccent
Encoding: 266 266 73
Width: 1110
GlyphClass: 2
Flags: HMW
HStem: -20 139<574 648> 1272 109<634 804> 1511 287<764 829>
VStem: 76 338<382 669 382 778> 645 303<1628 1681> 887 285<1136 1192>
AnchorPoint: "Anchor-5" 563 0 basechar 0
AnchorPoint: "Anchor-3" 752 1366 basechar 0
LayerCount: 2
Fore
SplineSet
778 1511 m 0xf8
 700 1511 645 1552 645 1630 c 0
 645 1732 713 1798 815 1798 c 0
 897 1798 948 1753 948 1679 c 0
 948 1577 880 1511 778 1511 c 0xf8
571 -20 m 0
 245 -20 76 166 76 510 c 0
 76 1047 318 1380 793 1380 c 0
 1022 1380 1171 1282 1171 1137 c 0
 1171 1026 1079 934 977 934 c 0
 911 934 852 973 836 1028 c 1
 867 1069 887 1114 887 1157 c 0xf4
 887 1227 842 1272 766 1272 c 0
 502 1272 414 834 414 504 c 0
 414 260 488 119 662 119 c 0
 771 119 886 172 997 272 c 1
 1055 207 l 1
 903 64 725 -20 571 -20 c 0
EndSplineSet
EndChar

StartChar: Dcaron
Encoding: 270 270 74
Width: 1343
GlyphClass: 2
Flags: HMW
HStem: 0 84<-10 0 0 0 0 451> 0 129<-10 736> 1239 127<623 678 195 623> 1282 84<182 623>
VStem: 1012 319<743 1001>
AnchorPoint: "Anchor-3" 803 1366 basechar 0
LayerCount: 2
Fore
SplineSet
831 1468 m 0x68
 790 1468 754 1485 719 1532 c 2
 565 1743 l 1
 637 1819 l 1
 856 1669 l 1
 1124 1819 l 1
 1176 1743 l 1
 958 1534 l 2
 913 1491 870 1468 831 1468 c 0x68
-10 0 m 1
 0 84 l 1
 66 94 102 112 145 143 c 1
 317 1221 l 1
 294 1250 239 1274 182 1282 c 1x98
 195 1366 l 1
 623 1366 l 2
 1033 1366 1331 1245 1331 846 c 0
 1331 418 1127 0 451 0 c 2
 -10 0 l 1
532 129 m 0x68
 940 129 1012 609 1012 879 c 0
 1012 1125 893 1239 678 1239 c 2
 623 1239 l 1
 465 252 l 2
 461 232 459 218 459 195 c 0
 459 150 485 129 532 129 c 0x68
EndSplineSet
EndChar

StartChar: Dcroat
Encoding: 272 272 75
Width: 1398
GlyphClass: 2
Flags: HMW
HStem: 0 84<4 4 4 455 -6 4> 0 129<-6 740> 610 143<123 223 100 248 549 813> 1239 127<627 682 199 627> 1282 84<186 627>
VStem: 1016 319<743 1001>
AnchorPoint: "Anchor-3" 807 1366 basechar 0
LayerCount: 2
Fore
SplineSet
627 1366 m 2x74
 1037 1366 1335 1245 1335 846 c 0
 1335 418 1131 0 455 0 c 2
 -6 0 l 1x74
 4 84 l 1
 70 94 107 112 150 143 c 1
 223 610 l 1
 100 610 l 1
 123 754 l 1
 248 754 l 1
 322 1221 l 1
 299 1250 243 1274 186 1282 c 1xac
 199 1366 l 1
 627 1366 l 2x74
537 129 m 0
 945 129 1016 609 1016 879 c 0
 1016 1125 897 1239 682 1239 c 2
 627 1239 l 1
 549 754 l 1
 836 754 l 1
 813 610 l 1
 526 610 l 1
 469 252 l 2
 465 232 463 218 463 195 c 0
 463 150 490 129 537 129 c 0
EndSplineSet
EndChar

StartChar: Eth
Encoding: 208 208 76
Width: 1398
GlyphClass: 2
Flags: HMW
HStem: 0 84<4 4 4 455 -6 4> 0 129<-6 740> 610 143<123 223 100 248 549 813> 1239 127<627 682 199 627> 1282 84<186 627>
VStem: 1016 319<743 1001>
AnchorPoint: "Anchor-3" 807 1366 basechar 0
LayerCount: 2
Fore
SplineSet
627 1366 m 2x74
 1037 1366 1335 1245 1335 846 c 0
 1335 418 1131 0 455 0 c 2
 -6 0 l 1x74
 4 84 l 1
 70 94 107 112 150 143 c 1
 223 610 l 1
 100 610 l 1
 123 754 l 1
 248 754 l 1
 322 1221 l 1
 299 1250 243 1274 186 1282 c 1xac
 199 1366 l 1
 627 1366 l 2x74
537 129 m 0
 945 129 1016 609 1016 879 c 0
 1016 1125 897 1239 682 1239 c 2
 627 1239 l 1
 549 754 l 1
 836 754 l 1
 813 610 l 1
 526 610 l 1
 469 252 l 2
 465 232 463 218 463 195 c 0
 463 150 490 129 537 129 c 0
EndSplineSet
EndChar

StartChar: Eacute
Encoding: 201 201 77
Width: 1163
GlyphClass: 2
Flags: HMW
HStem: 0 84<-10 0 0 0 0 1014> 0 127<444 827 444 1014> 639 127 1016 350<1052 1078> 1241 125<623 969 623 623> 1282 84<182 1198>
VStem: -10 1208
AnchorPoint: "Anchor-3" 727 1366 basechar 0
AnchorPoint: "Anchor-2" 977 0 basechar 0
LayerCount: 2
Fore
SplineSet
690 1456 m 1x6a
 629 1526 l 1
 821 1765 l 2
 860 1812 901 1831 936 1831 c 0
 989 1831 1030 1788 1030 1737 c 0
 1030 1700 1009 1661 958 1628 c 2
 690 1456 l 1x6a
-10 0 m 1
 0 84 l 1
 68 94 104 112 147 145 c 1
 317 1221 l 1
 294 1250 239 1274 182 1282 c 1xa6
 195 1366 l 1
 1198 1366 l 1x6a
 1153 1030 l 1
 1124 1022 1098 1016 1059 1016 c 0
 1045 1016 1028 1018 1014 1022 c 1x72
 1012 1081 1004 1171 969 1241 c 1
 623 1241 l 1
 545 762 l 1
 731 770 l 2
 780 772 833 827 866 907 c 1
 952 907 l 1
 885 483 l 1
 799 483 l 1
 779 594 754 633 707 635 c 2
 526 643 l 1
 444 127 l 1
 827 127 l 1
 890 207 933 314 956 377 c 1
 985 385 1012 391 1051 391 c 0
 1065 391 1082 389 1096 385 c 1
 1014 0 l 1
 -10 0 l 1
EndSplineSet
EndChar

StartChar: Ebreve
Encoding: 276 276 78
Width: 1163
GlyphClass: 2
Flags: HMW
HStem: 0 84<-10 0 0 0 0 1014> 0 127<444 827 444 1014> 639 127 1016 350<1052 1078> 1241 125<623 969 623 623> 1282 84<182 1198> 1479 160<724 820 724 829>
VStem: 496 129
AnchorPoint: "Anchor-3" 727 1366 basechar 0
AnchorPoint: "Anchor-2" 977 0 basechar 0
LayerCount: 2
Fore
SplineSet
748 1479 m 0x6b
 592 1479 486 1573 496 1745 c 1
 521 1772 582 1786 625 1780 c 1
 625 1690 676 1638 772 1638 c 0
 868 1638 936 1690 965 1780 c 1
 1022 1780 1048 1773 1083 1759 c 1
 1040 1589 912 1479 748 1479 c 0x6b
-10 0 m 1
 0 84 l 1
 68 94 104 112 147 145 c 1
 317 1221 l 1
 294 1250 239 1274 182 1282 c 1xa7
 195 1366 l 1
 1198 1366 l 1x6b
 1153 1030 l 1
 1124 1022 1098 1016 1059 1016 c 0
 1045 1016 1028 1018 1014 1022 c 1x73
 1012 1081 1004 1171 969 1241 c 1
 623 1241 l 1
 545 762 l 1
 731 770 l 2
 780 772 833 827 866 907 c 1
 952 907 l 1
 885 483 l 1
 799 483 l 1
 779 594 754 633 707 635 c 2
 526 643 l 1
 444 127 l 1
 827 127 l 1
 890 207 933 314 956 377 c 1
 985 385 1012 391 1051 391 c 0
 1065 391 1082 389 1096 385 c 1
 1014 0 l 1
 -10 0 l 1
EndSplineSet
EndChar

StartChar: Ecaron
Encoding: 282 282 79
Width: 1163
GlyphClass: 2
Flags: HMW
HStem: 0 84<-10 0 0 0 0 1014> 0 127<444 827 444 1014> 639 127 1016 350<1052 1078> 1241 125<623 969 623 623> 1282 84<182 1198>
VStem: -10 1208
AnchorPoint: "Anchor-3" 727 1366 basechar 0
AnchorPoint: "Anchor-2" 977 0 basechar 0
LayerCount: 2
Fore
SplineSet
756 1468 m 0x6a
 715 1468 678 1485 643 1532 c 2
 489 1743 l 1
 561 1819 l 1
 780 1669 l 1
 1049 1819 l 1
 1100 1743 l 1
 883 1534 l 2
 838 1491 795 1468 756 1468 c 0x6a
-10 0 m 1
 0 84 l 1
 68 94 104 112 147 145 c 1
 317 1221 l 1
 294 1250 239 1274 182 1282 c 1xa6
 195 1366 l 1
 1198 1366 l 1x6a
 1153 1030 l 1
 1124 1022 1098 1016 1059 1016 c 0
 1045 1016 1028 1018 1014 1022 c 1x72
 1012 1081 1004 1171 969 1241 c 1
 623 1241 l 1
 545 762 l 1
 731 770 l 2
 780 772 833 827 866 907 c 1
 952 907 l 1
 885 483 l 1
 799 483 l 1
 779 594 754 633 707 635 c 2
 526 643 l 1
 444 127 l 1
 827 127 l 1
 890 207 933 314 956 377 c 1
 985 385 1012 391 1051 391 c 0
 1065 391 1082 389 1096 385 c 1
 1014 0 l 1
 -10 0 l 1
EndSplineSet
EndChar

StartChar: Ecircumflex
Encoding: 202 202 80
Width: 1163
GlyphClass: 2
Flags: HMW
HStem: 0 84<-10 0 0 0 0 1014> 0 127<444 827 444 1014> 639 127 1016 350<1052 1078> 1241 125<623 969 623 623> 1282 84<182 1198>
VStem: -10 1208
AnchorPoint: "Anchor-3" 727 1366 basechar 0
AnchorPoint: "Anchor-2" 977 0 basechar 0
LayerCount: 2
Fore
SplineSet
502 1481 m 1x6a
 442 1554 l 1
 664 1767 l 2
 713 1814 750 1831 793 1831 c 0
 838 1831 868 1812 901 1763 c 2
 1051 1544 l 1
 981 1481 l 1
 766 1638 l 1
 502 1481 l 1x6a
-10 0 m 1
 0 84 l 1
 68 94 104 112 147 145 c 1
 317 1221 l 1
 294 1250 239 1274 182 1282 c 1xa6
 195 1366 l 1
 1198 1366 l 1x6a
 1153 1030 l 1
 1124 1022 1098 1016 1059 1016 c 0
 1045 1016 1028 1018 1014 1022 c 1x72
 1012 1081 1004 1171 969 1241 c 1
 623 1241 l 1
 545 762 l 1
 731 770 l 2
 780 772 833 827 866 907 c 1
 952 907 l 1
 885 483 l 1
 799 483 l 1
 779 594 754 633 707 635 c 2
 526 643 l 1
 444 127 l 1
 827 127 l 1
 890 207 933 314 956 377 c 1
 985 385 1012 391 1051 391 c 0
 1065 391 1082 389 1096 385 c 1
 1014 0 l 1
 -10 0 l 1
EndSplineSet
EndChar

StartChar: Edieresis
Encoding: 203 203 81
Width: 1163
GlyphClass: 2
Flags: HMW
HStem: 0 84<-10 0 0 0 0 1014> 0 127<444 827 444 1014> 639 127 1016 350<1052 1078> 1241 125<623 969 623 623> 1282 84<182 1198> 1516 272<572 628 906 962>
VStem: 469 262<1628 1677> 803 262<1628 1677>
AnchorPoint: "Anchor-3" 727 1366 basechar 0
AnchorPoint: "Anchor-2" 977 0 basechar 0
LayerCount: 2
Fore
SplineSet
584 1516 m 0x6b80
 512 1516 469 1558 469 1626 c 0
 469 1728 528 1788 616 1788 c 0
 688 1788 731 1745 731 1679 c 0
 731 1577 672 1516 584 1516 c 0x6b80
918 1516 m 0
 846 1516 803 1558 803 1626 c 0
 803 1728 862 1788 950 1788 c 0
 1022 1788 1065 1745 1065 1679 c 0
 1065 1577 1006 1516 918 1516 c 0
-10 0 m 1
 0 84 l 1
 68 94 104 112 147 145 c 1
 317 1221 l 1
 294 1250 239 1274 182 1282 c 1xa780
 195 1366 l 1
 1198 1366 l 1x6b80
 1153 1030 l 1
 1124 1022 1098 1016 1059 1016 c 0
 1045 1016 1028 1018 1014 1022 c 1x7380
 1012 1081 1004 1171 969 1241 c 1
 623 1241 l 1
 545 762 l 1
 731 770 l 2
 780 772 833 827 866 907 c 1
 952 907 l 1
 885 483 l 1
 799 483 l 1
 779 594 754 633 707 635 c 2
 526 643 l 1
 444 127 l 1
 827 127 l 1
 890 207 933 314 956 377 c 1
 985 385 1012 391 1051 391 c 0
 1065 391 1082 389 1096 385 c 1
 1014 0 l 1
 -10 0 l 1
EndSplineSet
EndChar

StartChar: Edotaccent
Encoding: 278 278 82
Width: 1163
GlyphClass: 2
Flags: HMW
HStem: 0 84<-10 0 0 0 0 1014> 0 127<444 827 444 1014> 639 127 1016 350<1052 1078> 1241 125<623 969 623 623> 1282 84<182 1198> 1511 287<739 805>
VStem: 621 303<1628 1681>
AnchorPoint: "Anchor-3" 727 1366 basechar 0
AnchorPoint: "Anchor-2" 977 0 basechar 0
LayerCount: 2
Fore
SplineSet
754 1511 m 0x6b
 676 1511 621 1552 621 1630 c 0
 621 1732 689 1798 791 1798 c 0
 873 1798 924 1753 924 1679 c 0
 924 1577 856 1511 754 1511 c 0x6b
-10 0 m 1
 0 84 l 1
 68 94 104 112 147 145 c 1
 317 1221 l 1
 294 1250 239 1274 182 1282 c 1xa7
 195 1366 l 1
 1198 1366 l 1x6b
 1153 1030 l 1
 1124 1022 1098 1016 1059 1016 c 0
 1045 1016 1028 1018 1014 1022 c 1x73
 1012 1081 1004 1171 969 1241 c 1
 623 1241 l 1
 545 762 l 1
 731 770 l 2
 780 772 833 827 866 907 c 1
 952 907 l 1
 885 483 l 1
 799 483 l 1
 779 594 754 633 707 635 c 2
 526 643 l 1
 444 127 l 1
 827 127 l 1
 890 207 933 314 956 377 c 1
 985 385 1012 391 1051 391 c 0
 1065 391 1082 389 1096 385 c 1
 1014 0 l 1
 -10 0 l 1
EndSplineSet
EndChar

StartChar: Egrave
Encoding: 200 200 83
Width: 1163
GlyphClass: 2
Flags: HMW
HStem: 0 84<-10 0 0 0 0 1014> 0 127<444 827 444 1014> 639 127 1016 350<1052 1078> 1241 125<623 969 623 623> 1282 84<182 1198>
VStem: -10 1208
AnchorPoint: "Anchor-3" 727 1366 basechar 0
AnchorPoint: "Anchor-2" 977 0 basechar 0
LayerCount: 2
Fore
SplineSet
838 1460 m 1x6a
 569 1632 l 2
 518 1665 498 1704 498 1741 c 0
 498 1792 539 1835 592 1835 c 0
 627 1835 668 1816 707 1769 c 2
 899 1530 l 1
 838 1460 l 1x6a
-10 0 m 1
 0 84 l 1
 68 94 104 112 147 145 c 1
 317 1221 l 1
 294 1250 239 1274 182 1282 c 1xa6
 195 1366 l 1
 1198 1366 l 1x6a
 1153 1030 l 1
 1124 1022 1098 1016 1059 1016 c 0
 1045 1016 1028 1018 1014 1022 c 1x72
 1012 1081 1004 1171 969 1241 c 1
 623 1241 l 1
 545 762 l 1
 731 770 l 2
 780 772 833 827 866 907 c 1
 952 907 l 1
 885 483 l 1
 799 483 l 1
 779 594 754 633 707 635 c 2
 526 643 l 1
 444 127 l 1
 827 127 l 1
 890 207 933 314 956 377 c 1
 985 385 1012 391 1051 391 c 0
 1065 391 1082 389 1096 385 c 1
 1014 0 l 1
 -10 0 l 1
EndSplineSet
EndChar

StartChar: Emacron
Encoding: 274 274 84
Width: 1163
GlyphClass: 2
Flags: HMW
HStem: 0 84<-10 0 0 0 0 1014> 0 127<444 827 444 1014> 639 127 1016 350<1052 1078> 1241 125<623 969 623 623> 1282 84<182 1198> 1575 139<440 1100 463 1077>
VStem: -10 1208
AnchorPoint: "Anchor-3" 727 1366 basechar 0
AnchorPoint: "Anchor-2" 977 0 basechar 0
LayerCount: 2
Fore
SplineSet
440 1575 m 1x6b
 463 1714 l 1
 1100 1714 l 1
 1077 1575 l 1
 440 1575 l 1x6b
-10 0 m 1
 0 84 l 1
 68 94 104 112 147 145 c 1
 317 1221 l 1
 294 1250 239 1274 182 1282 c 1xa7
 195 1366 l 1
 1198 1366 l 1x6b
 1153 1030 l 1
 1124 1022 1098 1016 1059 1016 c 0
 1045 1016 1028 1018 1014 1022 c 1x73
 1012 1081 1004 1171 969 1241 c 1
 623 1241 l 1
 545 762 l 1
 731 770 l 2
 780 772 833 827 866 907 c 1
 952 907 l 1
 885 483 l 1
 799 483 l 1
 779 594 754 633 707 635 c 2
 526 643 l 1
 444 127 l 1
 827 127 l 1
 890 207 933 314 956 377 c 1
 985 385 1012 391 1051 391 c 0
 1065 391 1082 389 1096 385 c 1
 1014 0 l 1
 -10 0 l 1
EndSplineSet
EndChar

StartChar: Eogonek
Encoding: 280 280 85
Width: 1163
GlyphClass: 2
Flags: HMW
HStem: -418 121<659 805> 0 84<0 0 0 731 -10 0> 0 127<444 731 444 977> 639 127 1016 350<1052 1078> 1241 125<623 969 623 623> 1282 84<182 1198>
VStem: 545 182<-252 -242>
AnchorPoint: "Anchor-3" 727 1366 basechar 0
AnchorPoint: "Anchor-2" 977 0 basechar 0
LayerCount: 2
Fore
SplineSet
969 1241 m 1x35
 623 1241 l 1
 545 762 l 1
 731 770 l 2
 780 772 833 827 866 907 c 1
 952 907 l 1
 885 483 l 1
 799 483 l 1
 779 594 754 633 707 635 c 2
 526 643 l 1
 444 127 l 1
 827 127 l 1
 890 207 933 314 956 377 c 1
 985 385 1012 391 1051 391 c 0
 1065 391 1082 389 1096 385 c 1
 1014 0 l 1
 977 0 l 2
 911 0 848 -35 801 -82 c 0
 756 -127 727 -182 727 -229 c 0
 727 -274 751 -297 786 -297 c 0
 823 -297 862 -273 891 -248 c 1
 938 -319 l 1
 879 -382 779 -418 707 -418 c 0
 613 -418 545 -362 545 -276 c 0
 545 -206 586 -153 645 -96 c 0
 678 -63 708 -31 731 0 c 1
 -10 0 l 1xb5
 0 84 l 1
 68 94 104 112 147 145 c 1
 317 1221 l 1
 294 1250 239 1274 182 1282 c 1x53
 195 1366 l 1
 1198 1366 l 1x35
 1153 1030 l 1
 1124 1022 1098 1016 1059 1016 c 0
 1045 1016 1028 1018 1014 1022 c 1x39
 1012 1081 1004 1171 969 1241 c 1x35
EndSplineSet
EndChar

StartChar: uni1EBC
Encoding: 7868 7868 86
Width: 1163
GlyphClass: 2
Flags: HMW
HStem: 0 84<-10 0 0 0 0 1014> 0 127<444 827 444 1014> 639 127 1016 350<1052 1078> 1241 125<623 969 623 623> 1282 84<182 1198> 1507 178<864 926 864 928> 1587 180<623 684>
VStem: -10 1208
AnchorPoint: "Anchor-3" 727 1366 basechar 0
AnchorPoint: "Anchor-2" 977 0 basechar 0
LayerCount: 2
Fore
SplineSet
512 1509 m 1x6980
 483 1519 437 1544 414 1575 c 1
 486 1690 576 1767 670 1767 c 0x6980
 752 1767 823 1686 905 1686 c 0
 946 1686 995 1718 1036 1765 c 1
 1065 1755 1112 1731 1135 1702 c 1
 1065 1587 975 1507 881 1507 c 0x6a80
 799 1507 725 1587 643 1587 c 0
 602 1587 555 1558 512 1509 c 1x6980
-10 0 m 1x6a80
 0 84 l 1
 68 94 104 112 147 145 c 1
 317 1221 l 1
 294 1250 239 1274 182 1282 c 1xa680
 195 1366 l 1
 1198 1366 l 1x6a80
 1153 1030 l 1
 1124 1022 1098 1016 1059 1016 c 0
 1045 1016 1028 1018 1014 1022 c 1x7280
 1012 1081 1004 1171 969 1241 c 1
 623 1241 l 1
 545 762 l 1
 731 770 l 2
 780 772 833 827 866 907 c 1
 952 907 l 1
 885 483 l 1
 799 483 l 1
 779 594 754 633 707 635 c 2
 526 643 l 1
 444 127 l 1
 827 127 l 1
 890 207 933 314 956 377 c 1
 985 385 1012 391 1051 391 c 0
 1065 391 1082 389 1096 385 c 1
 1014 0 l 1
 -10 0 l 1x6a80
EndSplineSet
EndChar

StartChar: Gbreve
Encoding: 286 286 87
Width: 1204
GlyphClass: 2
Flags: HMW
HStem: -20 139<569 658> 516 119<692 1174> 1272 109<659 846> 1479 160<798 894 798 903>
VStem: 74 317<379 722 379 780> 569 129 948 283<1133 1193>
AnchorPoint: "Anchor-4" 631 0 basechar 0
AnchorPoint: "Anchor-3" 801 1366 basechar 0
LayerCount: 2
Fore
SplineSet
821 1479 m 0
 665 1479 559 1573 569 1745 c 1
 594 1772 655 1786 698 1780 c 1
 698 1690 750 1638 846 1638 c 0
 942 1638 1009 1690 1038 1780 c 1
 1095 1780 1122 1773 1157 1759 c 1
 1114 1589 985 1479 821 1479 c 0
569 -20 m 0
 241 -20 74 166 74 510 c 0
 74 1051 327 1380 821 1380 c 0
 1069 1380 1231 1280 1231 1137 c 0
 1231 1026 1138 934 1036 934 c 0
 970 934 911 973 895 1028 c 1
 928 1073 948 1110 948 1155 c 0
 948 1231 897 1272 795 1272 c 0
 525 1272 391 934 391 510 c 0
 391 248 479 119 659 119 c 0
 733 119 791 141 799 186 c 2
 846 477 l 1
 807 500 755 512 692 516 c 1
 709 635 l 1
 1174 635 l 1
 1092 135 l 1
 940 37 747 -20 569 -20 c 0
EndSplineSet
EndChar

StartChar: Gcircumflex
Encoding: 284 284 88
Width: 1204
GlyphClass: 2
Flags: HMW
HStem: -20 139<569 658> 516 119<692 1174> 1272 109<659 846>
VStem: 74 317<379 722 379 780> 948 283<1133 1193>
AnchorPoint: "Anchor-4" 631 0 basechar 0
AnchorPoint: "Anchor-3" 801 1366 basechar 0
LayerCount: 2
Fore
SplineSet
575 1481 m 1
 516 1554 l 1
 737 1767 l 2
 786 1814 823 1831 866 1831 c 0
 911 1831 942 1812 975 1763 c 2
 1124 1544 l 1
 1055 1481 l 1
 840 1638 l 1
 575 1481 l 1
569 -20 m 0
 241 -20 74 166 74 510 c 0
 74 1051 327 1380 821 1380 c 0
 1069 1380 1231 1280 1231 1137 c 0
 1231 1026 1138 934 1036 934 c 0
 970 934 911 973 895 1028 c 1
 928 1073 948 1110 948 1155 c 0
 948 1231 897 1272 795 1272 c 0
 525 1272 391 934 391 510 c 0
 391 248 479 119 659 119 c 0
 733 119 791 141 799 186 c 2
 846 477 l 1
 807 500 755 512 692 516 c 1
 709 635 l 1
 1174 635 l 1
 1092 135 l 1
 940 37 747 -20 569 -20 c 0
EndSplineSet
EndChar

StartChar: uni0122
Encoding: 290 290 89
Width: 1204
GlyphClass: 2
Flags: HMW
HStem: -451 43G<543 543> -20 139<569 658> 516 119<692 1174> 1272 109<659 846>
VStem: 74 317<379 722 379 780> 520 197<-187 -180> 948 283<1133 1193>
AnchorPoint: "Anchor-4" 631 0 basechar 0
AnchorPoint: "Anchor-3" 801 1366 basechar 0
LayerCount: 2
Fore
SplineSet
569 -20 m 0
 241 -20 74 166 74 510 c 0
 74 1051 327 1380 821 1380 c 0
 1069 1380 1231 1280 1231 1137 c 0
 1231 1026 1138 934 1036 934 c 0
 970 934 911 973 895 1028 c 1
 928 1073 948 1110 948 1155 c 0
 948 1231 897 1272 795 1272 c 0
 525 1272 391 934 391 510 c 0
 391 248 479 119 659 119 c 0
 733 119 791 141 799 186 c 2
 846 477 l 1
 807 500 755 512 692 516 c 1
 709 635 l 1
 1174 635 l 1
 1092 135 l 1
 940 37 747 -20 569 -20 c 0
543 -451 m 1
 451 -410 l 1
 494 -328 520 -248 520 -197 c 0
 520 -164 510 -140 485 -117 c 1
 512 -86 565 -63 608 -63 c 0
 674 -63 717 -99 717 -152 c 0
 717 -224 641 -345 543 -451 c 1
EndSplineSet
EndChar

StartChar: Gdotaccent
Encoding: 288 288 90
Width: 1204
GlyphClass: 2
Flags: HMW
HStem: -20 139<569 658> 516 119<692 1174> 1272 109<659 846> 1511 287<813 879>
VStem: 74 317<379 722 379 780> 694 303<1628 1681> 948 283<1133 1193>
AnchorPoint: "Anchor-4" 631 0 basechar 0
AnchorPoint: "Anchor-3" 801 1366 basechar 0
LayerCount: 2
Fore
SplineSet
827 1511 m 0xfc
 749 1511 694 1552 694 1630 c 0
 694 1732 762 1798 864 1798 c 0
 946 1798 997 1753 997 1679 c 0
 997 1577 929 1511 827 1511 c 0xfc
569 -20 m 0
 241 -20 74 166 74 510 c 0
 74 1051 327 1380 821 1380 c 0
 1069 1380 1231 1280 1231 1137 c 0
 1231 1026 1138 934 1036 934 c 0
 970 934 911 973 895 1028 c 1
 928 1073 948 1110 948 1155 c 0xfa
 948 1231 897 1272 795 1272 c 0
 525 1272 391 934 391 510 c 0
 391 248 479 119 659 119 c 0
 733 119 791 141 799 186 c 2
 846 477 l 1
 807 500 755 512 692 516 c 1
 709 635 l 1
 1174 635 l 1
 1092 135 l 1
 940 37 747 -20 569 -20 c 0
EndSplineSet
EndChar

StartChar: Hbar
Encoding: 294 294 91
Width: 1415
GlyphClass: 2
Flags: HMW
HStem: 0 84<-8 -8 -8 567 -18 -8> 635 129<539 946 518 967> 905 139<127 260 104 281 584 989 1311 1423> 1282 84<174 772 760 760 1489 1489>
VStem: -18 1520<0 1366>
AnchorPoint: "Anchor-3" 846 1366 basechar 0
LayerCount: 2
Fore
SplineSet
1489 1282 m 1
 1421 1270 1386 1256 1339 1221 c 1
 1311 1044 l 1
 1446 1044 l 1
 1423 905 l 1
 1290 905 l 1
 1169 145 l 1
 1196 116 1241 98 1307 84 c 1
 1296 0 l 1
 711 0 l 1
 721 84 l 1
 789 94 825 112 868 145 c 1
 946 635 l 1
 518 635 l 1
 440 145 l 1
 467 116 512 98 578 84 c 1
 567 0 l 1
 -18 0 l 1
 -8 84 l 1
 60 94 96 112 139 145 c 1
 260 905 l 1
 104 905 l 1
 127 1044 l 1
 281 1044 l 1
 309 1221 l 1
 286 1250 231 1274 174 1282 c 1
 186 1366 l 1
 772 1366 l 1
 760 1282 l 1
 692 1270 657 1256 610 1221 c 1
 584 1044 l 1
 1012 1044 l 1
 1038 1221 l 1
 1015 1250 960 1274 903 1282 c 1
 915 1366 l 1
 1501 1366 l 1
 1489 1282 l 1
967 764 m 1
 989 905 l 1
 561 905 l 1
 539 764 l 1
 967 764 l 1
EndSplineSet
EndChar

StartChar: Hcircumflex
Encoding: 292 292 92
Width: 1423
GlyphClass: 2
Flags: HMW
HStem: 0 84<-18 -8 -8 -8 -8 567> 635 129<539 946 518 967> 1282 84<174 772 760 760 1489 1489>
VStem: -18 1520<0 1366>
AnchorPoint: "Anchor-3" 846 1366 basechar 0
LayerCount: 2
Fore
SplineSet
621 1481 m 1
 561 1554 l 1
 782 1767 l 2
 831 1814 868 1831 911 1831 c 0
 956 1831 987 1812 1020 1763 c 2
 1169 1544 l 1
 1100 1481 l 1
 885 1638 l 1
 621 1481 l 1
-18 0 m 1
 -8 84 l 1
 60 94 96 112 139 145 c 1
 309 1221 l 1
 286 1250 231 1274 174 1282 c 1
 186 1366 l 1
 772 1366 l 1
 760 1282 l 1
 692 1270 657 1256 610 1221 c 1
 539 764 l 1
 967 764 l 1
 1038 1221 l 1
 1015 1250 960 1274 903 1282 c 1
 915 1366 l 1
 1501 1366 l 1
 1489 1282 l 1
 1421 1270 1386 1256 1339 1221 c 1
 1169 145 l 1
 1196 116 1241 98 1307 84 c 1
 1296 0 l 1
 711 0 l 1
 721 84 l 1
 789 94 825 112 868 145 c 1
 946 635 l 1
 518 635 l 1
 440 145 l 1
 467 116 512 98 578 84 c 1
 567 0 l 1
 -18 0 l 1
EndSplineSet
EndChar

StartChar: Iacute
Encoding: 205 205 93
Width: 706
GlyphClass: 2
Flags: HMW
HStem: 0 84<-10 0 0 0 0 575> 1282 84<182 780 768 768>
VStem: -10 801
AnchorPoint: "Anchor-3" 487 1366 basechar 0
AnchorPoint: "Anchor-2" 340 0 basechar 0
LayerCount: 2
Fore
SplineSet
451 1456 m 1
 389 1526 l 1
 582 1765 l 2
 621 1812 661 1831 696 1831 c 0
 749 1831 791 1788 791 1737 c 0
 791 1700 770 1661 719 1628 c 2
 451 1456 l 1
-10 0 m 1
 0 84 l 1
 68 94 104 112 147 145 c 1
 317 1221 l 1
 294 1250 239 1274 182 1282 c 1
 195 1366 l 1
 780 1366 l 1
 768 1282 l 1
 700 1270 665 1256 618 1221 c 1
 449 145 l 1
 476 116 520 98 586 84 c 1
 575 0 l 1
 -10 0 l 1
EndSplineSet
EndChar

StartChar: Ibreve
Encoding: 300 300 94
Width: 706
GlyphClass: 2
Flags: HMW
HStem: 0 84<-10 0 0 0 0 575> 1282 84<182 780 768 768> 1479 160<484 581 484 590>
VStem: 256 129
AnchorPoint: "Anchor-3" 487 1366 basechar 0
AnchorPoint: "Anchor-2" 340 0 basechar 0
LayerCount: 2
Fore
SplineSet
508 1479 m 0
 352 1479 246 1573 256 1745 c 1
 281 1772 342 1786 385 1780 c 1
 385 1690 436 1638 532 1638 c 0
 628 1638 696 1690 725 1780 c 1
 782 1780 809 1773 844 1759 c 1
 801 1589 672 1479 508 1479 c 0
-10 0 m 1
 0 84 l 1
 68 94 104 112 147 145 c 1
 317 1221 l 1
 294 1250 239 1274 182 1282 c 1
 195 1366 l 1
 780 1366 l 1
 768 1282 l 1
 700 1270 665 1256 618 1221 c 1
 449 145 l 1
 476 116 520 98 586 84 c 1
 575 0 l 1
 -10 0 l 1
EndSplineSet
EndChar

StartChar: Icircumflex
Encoding: 206 206 95
Width: 706
GlyphClass: 2
Flags: HMW
HStem: 0 84<-10 0 0 0 0 575> 1282 84<182 780 768 768>
VStem: -10 821
AnchorPoint: "Anchor-3" 487 1366 basechar 0
AnchorPoint: "Anchor-2" 340 0 basechar 0
LayerCount: 2
Fore
SplineSet
262 1481 m 1
 203 1554 l 1
 424 1767 l 2
 473 1814 510 1831 553 1831 c 0
 598 1831 629 1812 662 1763 c 2
 811 1544 l 1
 741 1481 l 1
 526 1638 l 1
 262 1481 l 1
-10 0 m 1
 0 84 l 1
 68 94 104 112 147 145 c 1
 317 1221 l 1
 294 1250 239 1274 182 1282 c 1
 195 1366 l 1
 780 1366 l 1
 768 1282 l 1
 700 1270 665 1256 618 1221 c 1
 449 145 l 1
 476 116 520 98 586 84 c 1
 575 0 l 1
 -10 0 l 1
EndSplineSet
EndChar

StartChar: Idieresis
Encoding: 207 207 96
Width: 706
GlyphClass: 2
Flags: HMW
HStem: 0 84<-10 0 0 0 0 575> 1282 84<182 780 768 768> 1516 272<333 388 667 722>
VStem: 229 262<1628 1677> 563 262<1628 1677>
AnchorPoint: "Anchor-3" 487 1366 basechar 0
AnchorPoint: "Anchor-2" 340 0 basechar 0
LayerCount: 2
Fore
SplineSet
344 1516 m 0
 272 1516 229 1558 229 1626 c 0
 229 1728 289 1788 377 1788 c 0
 449 1788 492 1745 492 1679 c 0
 492 1577 432 1516 344 1516 c 0
678 1516 m 0
 606 1516 563 1558 563 1626 c 0
 563 1728 623 1788 711 1788 c 0
 783 1788 825 1745 825 1679 c 0
 825 1577 766 1516 678 1516 c 0
-10 0 m 1
 0 84 l 1
 68 94 104 112 147 145 c 1
 317 1221 l 1
 294 1250 239 1274 182 1282 c 1
 195 1366 l 1
 780 1366 l 1
 768 1282 l 1
 700 1270 665 1256 618 1221 c 1
 449 145 l 1
 476 116 520 98 586 84 c 1
 575 0 l 1
 -10 0 l 1
EndSplineSet
EndChar

StartChar: Idotaccent
Encoding: 304 304 97
Width: 706
GlyphClass: 2
Flags: HMW
HStem: 0 84<-10 0 0 0 0 575> 1282 84<182 780 768 768> 1511 287<500 565>
VStem: 381 303<1628 1681>
AnchorPoint: "Anchor-3" 487 1366 basechar 0
AnchorPoint: "Anchor-2" 340 0 basechar 0
LayerCount: 2
Fore
SplineSet
514 1511 m 0
 436 1511 381 1552 381 1630 c 0
 381 1732 449 1798 551 1798 c 0
 633 1798 684 1753 684 1679 c 0
 684 1577 616 1511 514 1511 c 0
-10 0 m 1
 0 84 l 1
 68 94 104 112 147 145 c 1
 317 1221 l 1
 294 1250 239 1274 182 1282 c 1
 195 1366 l 1
 780 1366 l 1
 768 1282 l 1
 700 1270 665 1256 618 1221 c 1
 449 145 l 1
 476 116 520 98 586 84 c 1
 575 0 l 1
 -10 0 l 1
EndSplineSet
EndChar

StartChar: Igrave
Encoding: 204 204 98
Width: 706
GlyphClass: 2
Flags: HMW
HStem: 0 84<-10 0 0 0 0 575> 1282 84<182 780 768 768>
VStem: -10 791
AnchorPoint: "Anchor-3" 487 1366 basechar 0
AnchorPoint: "Anchor-2" 340 0 basechar 0
LayerCount: 2
Fore
SplineSet
598 1460 m 1
 330 1632 l 2
 279 1665 258 1704 258 1741 c 0
 258 1792 299 1835 352 1835 c 0
 387 1835 428 1816 467 1769 c 2
 659 1530 l 1
 598 1460 l 1
-10 0 m 1
 0 84 l 1
 68 94 104 112 147 145 c 1
 317 1221 l 1
 294 1250 239 1274 182 1282 c 1
 195 1366 l 1
 780 1366 l 1
 768 1282 l 1
 700 1270 665 1256 618 1221 c 1
 449 145 l 1
 476 116 520 98 586 84 c 1
 575 0 l 1
 -10 0 l 1
EndSplineSet
EndChar

StartChar: Imacron
Encoding: 298 298 99
Width: 706
GlyphClass: 2
Flags: HMW
HStem: 0 84<-10 0 0 0 0 575> 1282 84<182 780 768 768> 1575 139<201 860 223 838>
VStem: -10 870
AnchorPoint: "Anchor-3" 487 1366 basechar 0
AnchorPoint: "Anchor-2" 340 0 basechar 0
LayerCount: 2
Fore
SplineSet
201 1575 m 1
 223 1714 l 1
 860 1714 l 1
 838 1575 l 1
 201 1575 l 1
-10 0 m 1
 0 84 l 1
 68 94 104 112 147 145 c 1
 317 1221 l 1
 294 1250 239 1274 182 1282 c 1
 195 1366 l 1
 780 1366 l 1
 768 1282 l 1
 700 1270 665 1256 618 1221 c 1
 449 145 l 1
 476 116 520 98 586 84 c 1
 575 0 l 1
 -10 0 l 1
EndSplineSet
EndChar

StartChar: Iogonek
Encoding: 302 302 100
Width: 706
GlyphClass: 1
Flags: HMW
HStem: -418 121<43 188> 0 84<385 586> 1282 84<182 780 768 768>
VStem: -72 182<-252 -242>
LayerCount: 2
Fore
SplineSet
575 0 m 1
 385 0 l 2
 311 0 246 -33 197 -76 c 0
 144 -123 111 -182 111 -229 c 0
 111 -274 135 -297 170 -297 c 0
 207 -297 245 -273 274 -248 c 1
 322 -319 l 1
 263 -382 162 -418 90 -418 c 0
 -4 -418 -72 -362 -72 -276 c 0
 -72 -206 -32 -157 29 -96 c 0
 86 -39 123 2 137 94 c 2
 317 1221 l 1
 294 1250 239 1274 182 1282 c 1
 195 1366 l 1
 780 1366 l 1
 768 1282 l 1
 700 1270 665 1256 618 1221 c 1
 449 145 l 1
 476 116 520 98 586 84 c 1
 575 0 l 1
EndSplineSet
EndChar

StartChar: Itilde
Encoding: 296 296 101
Width: 706
GlyphClass: 2
Flags: HMW
HStem: 0 84<-10 0 0 0 0 575> 1282 84<182 780 768 768> 1507 178<625 686 625 688> 1587 180<383 444>
VStem: -10 905
AnchorPoint: "Anchor-3" 487 1366 basechar 0
AnchorPoint: "Anchor-2" 340 0 basechar 0
LayerCount: 2
Fore
SplineSet
272 1509 m 1xd8
 243 1519 197 1544 174 1575 c 1
 246 1690 336 1767 430 1767 c 0xd8
 512 1767 584 1686 666 1686 c 0
 707 1686 756 1718 797 1765 c 1
 826 1755 872 1731 895 1702 c 1
 825 1587 735 1507 641 1507 c 0xe8
 559 1507 485 1587 403 1587 c 0
 362 1587 315 1558 272 1509 c 1xd8
-10 0 m 1xe8
 0 84 l 1
 68 94 104 112 147 145 c 1
 317 1221 l 1
 294 1250 239 1274 182 1282 c 1
 195 1366 l 1
 780 1366 l 1
 768 1282 l 1
 700 1270 665 1256 618 1221 c 1
 449 145 l 1
 476 116 520 98 586 84 c 1
 575 0 l 1
 -10 0 l 1xe8
EndSplineSet
EndChar

StartChar: Jcircumflex
Encoding: 308 308 102
Width: 675
GlyphClass: 2
Flags: HMW
HStem: -446 43G<-121 -121> 1282 84<174 772 760 760>
VStem: -145 948
AnchorPoint: "Anchor-3" 479 1366 basechar 0
LayerCount: 2
Fore
SplineSet
254 1481 m 1
 195 1554 l 1
 416 1767 l 2
 465 1814 502 1831 545 1831 c 0
 590 1831 620 1812 653 1763 c 2
 803 1544 l 1
 733 1481 l 1
 518 1638 l 1
 254 1481 l 1
-121 -446 m 1
 -145 -334 l 1
 -34 -281 86 -195 117 2 c 2
 309 1221 l 1
 286 1250 231 1274 174 1282 c 1
 186 1366 l 1
 772 1366 l 1
 760 1282 l 1
 692 1270 657 1256 610 1221 c 1
 424 33 l 2
 381 -243 174 -374 -121 -446 c 1
EndSplineSet
EndChar

StartChar: uni0136
Encoding: 310 310 103
Width: 1349
GlyphClass: 2
Flags: HMW
HStem: -451 43G<569 569> 0 84<-10 0 0 0 0 575> 1282 84<182 780 768 768 979 995 1454 1454>
VStem: -10 1477<0 1366> 547 197<-187 -180>
AnchorPoint: "Anchor-4" 657 0 basechar 0
LayerCount: 2
Fore
SplineSet
-10 0 m 1xf0
 0 84 l 1
 68 94 104 112 147 145 c 1
 317 1221 l 1
 294 1250 239 1274 182 1282 c 1
 195 1366 l 1
 780 1366 l 1
 768 1282 l 1
 700 1270 665 1256 618 1221 c 1
 449 145 l 1
 476 116 520 98 586 84 c 1
 575 0 l 1
 -10 0 l 1xf0
961 0 m 2
 875 0 818 47 791 119 c 2
 565 698 l 1
 1042 1190 l 2
 1058 1206 1067 1223 1067 1235 c 0
 1067 1270 1022 1282 969 1282 c 1
 979 1366 l 1
 1466 1366 l 1
 1454 1282 l 1
 1413 1280 1330 1274 1264 1206 c 2
 879 801 l 1
 1126 184 l 2
 1149 127 1214 98 1286 84 c 1
 1276 0 l 1
 961 0 l 2
569 -451 m 1xe8
 477 -410 l 1
 520 -328 547 -248 547 -197 c 0
 547 -164 537 -140 512 -117 c 1
 539 -86 592 -63 635 -63 c 0
 701 -63 743 -99 743 -152 c 0
 743 -224 667 -345 569 -451 c 1xe8
EndSplineSet
EndChar

StartChar: Lacute
Encoding: 313 313 104
Width: 1056
GlyphClass: 2
Flags: HMW
HStem: 0 84<-10 0 0 0 0 932> 0 127<541 745 541 932> 1282 84<182 801 788 788>
VStem: -10 1024<0 385>
AnchorPoint: "Anchor-4" 502 0 basechar 0
AnchorPoint: "Anchor-3" 518 1444 basechar 0
LayerCount: 2
Fore
SplineSet
481 1534 m 1x70
 420 1604 l 1
 612 1843 l 2
 651 1890 692 1909 727 1909 c 0
 780 1909 821 1866 821 1815 c 0
 821 1778 801 1739 750 1706 c 2
 481 1534 l 1x70
-10 0 m 1
 0 84 l 1
 68 94 106 110 147 145 c 1xb0
 317 1221 l 1
 294 1250 239 1274 182 1282 c 1
 195 1366 l 1
 801 1366 l 1
 788 1282 l 1
 720 1270 665 1256 618 1221 c 1
 455 197 l 2
 449 148 469 127 541 127 c 2
 745 127 l 1
 808 207 851 314 874 377 c 1
 903 385 930 391 969 391 c 0
 983 391 1000 389 1014 385 c 1
 932 0 l 1
 -10 0 l 1
EndSplineSet
EndChar

StartChar: Lcaron
Encoding: 317 317 105
Width: 1056
GlyphClass: 2
Flags: HMW
HStem: 0 84<-10 0 0 0 0 932> 0 127<541 745 541 932> 1282 84<182 801 788 788>
VStem: 940 182<1249 1278>
AnchorPoint: "Anchor-4" 502 0 basechar 0
AnchorPoint: "Anchor-3" 518 1444 basechar 0
LayerCount: 2
Fore
SplineSet
969 987 m 1x70
 879 1022 l 1
 922 1133 940 1208 940 1257 c 0
 940 1298 928 1331 901 1354 c 1
 924 1385 963 1403 1012 1403 c 0
 1075 1403 1122 1351 1122 1292 c 0
 1122 1206 1032 1087 969 987 c 1x70
-10 0 m 1
 0 84 l 1
 68 94 106 110 147 145 c 1xb0
 317 1221 l 1
 294 1250 239 1274 182 1282 c 1
 195 1366 l 1
 801 1366 l 1
 788 1282 l 1
 720 1270 665 1256 618 1221 c 1
 455 197 l 2
 449 148 469 127 541 127 c 2
 745 127 l 1
 808 207 851 314 874 377 c 1
 903 385 930 391 969 391 c 0
 983 391 1000 389 1014 385 c 1
 932 0 l 1
 -10 0 l 1
EndSplineSet
EndChar

StartChar: uni013B
Encoding: 315 315 106
Width: 1056
GlyphClass: 2
Flags: HMW
HStem: -451 43G<414 414> 0 84<-10 0 0 0 0 932> 0 127<541 745 541 932> 1282 84<182 801 788 788>
VStem: -10 1024<0 385> 391 197<-187 -180>
AnchorPoint: "Anchor-4" 502 0 basechar 0
AnchorPoint: "Anchor-3" 518 1444 basechar 0
LayerCount: 2
Fore
SplineSet
-10 0 m 1xb8
 0 84 l 1
 68 94 106 110 147 145 c 1xd8
 317 1221 l 1
 294 1250 239 1274 182 1282 c 1
 195 1366 l 1
 801 1366 l 1
 788 1282 l 1
 720 1270 665 1256 618 1221 c 1
 455 197 l 2
 449 148 469 127 541 127 c 2
 745 127 l 1
 808 207 851 314 874 377 c 1
 903 385 930 391 969 391 c 0
 983 391 1000 389 1014 385 c 1
 932 0 l 1
 -10 0 l 1xb8
414 -451 m 1xb4
 322 -410 l 1
 365 -328 391 -248 391 -197 c 0
 391 -164 381 -140 356 -117 c 1
 383 -86 436 -63 479 -63 c 0
 545 -63 588 -99 588 -152 c 0
 588 -224 512 -345 414 -451 c 1xb4
EndSplineSet
EndChar

StartChar: Ldot
Encoding: 319 319 107
Width: 1056
GlyphClass: 2
Flags: HMW
HStem: 0 84<-10 0 0 0 0 932> 0 127<541 745 541 932> 627 287<854 920> 1282 84<182 801 788 788>
VStem: 735 303<743 797>
AnchorPoint: "Anchor-4" 502 0 basechar 0
AnchorPoint: "Anchor-3" 518 1444 basechar 0
LayerCount: 2
Fore
SplineSet
-10 0 m 1x58
 0 84 l 1
 68 94 106 110 147 145 c 1xb8
 317 1221 l 1
 294 1250 239 1274 182 1282 c 1
 195 1366 l 1
 801 1366 l 1
 788 1282 l 1
 720 1270 665 1256 618 1221 c 1
 455 197 l 2
 449 148 469 127 541 127 c 2
 745 127 l 1
 808 207 851 314 874 377 c 1
 903 385 930 391 969 391 c 0
 983 391 1000 389 1014 385 c 1
 932 0 l 1
 -10 0 l 1x58
868 627 m 0
 790 627 735 667 735 745 c 0
 735 847 803 913 905 913 c 0
 987 913 1038 869 1038 795 c 0
 1038 693 970 627 868 627 c 0
EndSplineSet
Ligature2: "Ligature Substitution lookup 13 subtable" L periodcentered
EndChar

StartChar: Lslash
Encoding: 321 321 108
Width: 1087
GlyphClass: 2
Flags: HMW
HStem: 0 84<-20 -20 -20 911 -31 -20> 0 127<520 725 520 911> 1282 84<162 780 768 768>
VStem: -31 1024<0 385>
AnchorPoint: "Anchor-4" 481 0 basechar 0
AnchorPoint: "Anchor-3" 498 1444 basechar 0
LayerCount: 2
Fore
SplineSet
948 391 m 0x70
 962 391 979 389 993 385 c 1
 911 0 l 1
 -31 0 l 1x70
 -20 84 l 1
 48 94 86 110 127 145 c 1xb0
 184 508 l 1
 51 438 l 1
 2 561 l 1
 209 668 l 1
 297 1221 l 1
 274 1250 219 1274 162 1282 c 1
 174 1366 l 1
 780 1366 l 1
 768 1282 l 1
 700 1270 645 1256 598 1221 c 1
 537 836 l 1
 741 942 l 1
 788 821 l 1
 512 678 l 1
 434 197 l 2
 428 148 448 127 520 127 c 2
 725 127 l 1
 788 207 831 314 854 377 c 1
 883 385 909 391 948 391 c 0x70
EndSplineSet
EndChar

StartChar: Nacute
Encoding: 323 323 109
Width: 1372
GlyphClass: 2
Flags: HMW
HStem: 0 84<0 0 0 453 -10 0> 1282 84<182 612 1456 1456>
VStem: -10 1479<0 1366>
AnchorPoint: "Anchor-4" 666 0 basechar 0
AnchorPoint: "Anchor-3" 829 1366 basechar 0
LayerCount: 2
Fore
SplineSet
1061 1628 m 2
 793 1456 l 1
 731 1526 l 1
 924 1765 l 2
 963 1812 1003 1831 1038 1831 c 0
 1091 1831 1133 1788 1133 1737 c 0
 1133 1700 1112 1661 1061 1628 c 2
1006 1366 m 1
 1468 1366 l 1
 1456 1282 l 1
 1397 1274 1346 1252 1307 1221 c 1
 1112 0 l 1
 821 0 l 1
 455 977 l 1
 326 145 l 1
 353 116 397 98 463 84 c 1
 453 0 l 1
 -10 0 l 1
 0 84 l 1
 68 94 104 112 147 145 c 1
 317 1221 l 1
 294 1250 239 1274 182 1282 c 1
 195 1366 l 1
 612 1366 l 1
 989 332 l 1
 1128 1223 l 1
 1089 1258 1048 1274 993 1282 c 1
 1006 1366 l 1
EndSplineSet
EndChar

StartChar: Ncaron
Encoding: 327 327 110
Width: 1372
GlyphClass: 2
Flags: HMW
HStem: 0 84<0 0 0 453 -10 0> 1282 84<182 612 1456 1456>
VStem: -10 1479<0 1366>
AnchorPoint: "Anchor-4" 666 0 basechar 0
AnchorPoint: "Anchor-3" 829 1366 basechar 0
LayerCount: 2
Fore
SplineSet
858 1468 m 0
 817 1468 780 1485 745 1532 c 2
 592 1743 l 1
 664 1819 l 1
 883 1669 l 1
 1151 1819 l 1
 1202 1743 l 1
 985 1534 l 2
 940 1491 897 1468 858 1468 c 0
1006 1366 m 1
 1468 1366 l 1
 1456 1282 l 1
 1397 1274 1346 1252 1307 1221 c 1
 1112 0 l 1
 821 0 l 1
 455 977 l 1
 326 145 l 1
 353 116 397 98 463 84 c 1
 453 0 l 1
 -10 0 l 1
 0 84 l 1
 68 94 104 112 147 145 c 1
 317 1221 l 1
 294 1250 239 1274 182 1282 c 1
 195 1366 l 1
 612 1366 l 1
 989 332 l 1
 1128 1223 l 1
 1089 1258 1048 1274 993 1282 c 1
 1006 1366 l 1
EndSplineSet
EndChar

StartChar: Ntilde
Encoding: 209 209 111
Width: 1372
GlyphClass: 2
Flags: HMW
HStem: 0 84<0 0 0 453 -10 0> 1282 84<182 612 1456 1456> 1507 178<967 1028 967 1030> 1587 180<725 786>
VStem: -10 1479<0 1366>
AnchorPoint: "Anchor-4" 666 0 basechar 0
AnchorPoint: "Anchor-3" 829 1366 basechar 0
LayerCount: 2
Fore
SplineSet
614 1509 m 1xd8
 585 1519 539 1544 516 1575 c 1
 588 1690 678 1767 772 1767 c 0xd8
 854 1767 926 1686 1008 1686 c 0
 1049 1686 1098 1718 1139 1765 c 1
 1168 1755 1214 1731 1237 1702 c 1
 1167 1587 1077 1507 983 1507 c 0xe8
 901 1507 827 1587 745 1587 c 0
 704 1587 657 1558 614 1509 c 1xd8
1006 1366 m 1xe8
 1468 1366 l 1
 1456 1282 l 1
 1397 1274 1346 1252 1307 1221 c 1
 1112 0 l 1
 821 0 l 1
 455 977 l 1
 326 145 l 1
 353 116 397 98 463 84 c 1
 453 0 l 1
 -10 0 l 1
 0 84 l 1
 68 94 104 112 147 145 c 1
 317 1221 l 1
 294 1250 239 1274 182 1282 c 1
 195 1366 l 1
 612 1366 l 1
 989 332 l 1
 1128 1223 l 1
 1089 1258 1048 1274 993 1282 c 1
 1006 1366 l 1xe8
EndSplineSet
EndChar

StartChar: Eng
Encoding: 330 330 112
Width: 1355
GlyphClass: 1
Flags: HMW
HStem: -446 100<755 803> 0 84<-18 -18 -18 432 -29 -18> 1282 84<160 606 1466 1466>
VStem: 516 195<-307 -270 -307 -249>
LayerCount: 2
Fore
SplineSet
754 -446 m 0
 621 -446 516 -391 516 -289 c 0
 516 -209 582 -147 668 -147 c 0
 703 -147 736 -164 754 -199 c 1
 727 -219 711 -252 711 -289 c 0
 711 -326 735 -346 774 -346 c 0
 850 -346 899 -263 901 -25 c 2
 901 0 l 1
 821 0 l 1
 430 942 l 1
 303 145 l 1
 334 116 376 98 442 84 c 1
 432 0 l 1
 -29 0 l 1
 -18 84 l 1
 50 94 86 112 125 145 c 1
 295 1221 l 1
 272 1250 217 1274 160 1282 c 1
 172 1366 l 1
 606 1366 l 1
 1014 375 l 1
 1139 1221 l 1
 1116 1250 1061 1274 1004 1282 c 1
 1016 1366 l 1
 1479 1366 l 1
 1466 1282 l 1
 1398 1270 1364 1256 1325 1221 c 1
 1122 -68 l 2
 1108 -164 1083 -262 1020 -340 c 0
 967 -406 852 -446 754 -446 c 0
EndSplineSet
EndChar

StartChar: Oacute
Encoding: 211 211 113
Width: 1325
GlyphClass: 2
Flags: HMW
HStem: -20 123<531 739 531 818> 1270 119<645 853>
VStem: 74 319<348 609 344 772> 991 319<765 1020 596 1028>
AnchorPoint: "Anchor-4" 582 0 basechar 0
AnchorPoint: "Anchor-3" 793 1366 basechar 0
LayerCount: 2
Fore
SplineSet
756 1456 m 1
 694 1526 l 1
 887 1765 l 2
 926 1812 966 1831 1001 1831 c 0
 1054 1831 1096 1788 1096 1737 c 0
 1096 1700 1075 1661 1024 1628 c 2
 756 1456 l 1
586 -20 m 0
 230 -20 74 180 74 516 c 0
 74 1028 334 1389 799 1389 c 0
 1155 1389 1311 1188 1311 852 c 0
 1311 340 1051 -20 586 -20 c 0
606 102 m 0
 872 102 991 629 991 901 c 0
 991 1155 928 1270 778 1270 c 0
 512 1270 393 747 393 471 c 0
 393 217 456 102 606 102 c 0
EndSplineSet
EndChar

StartChar: Obreve
Encoding: 334 334 114
Width: 1325
GlyphClass: 2
Flags: HMW
HStem: -20 123<531 739 531 818> 1270 119<645 853> 1479 160<790 886 790 895>
VStem: 74 319<348 609 344 772> 561 129 991 319<765 1020 596 1028>
AnchorPoint: "Anchor-4" 582 0 basechar 0
AnchorPoint: "Anchor-3" 793 1366 basechar 0
LayerCount: 2
Fore
SplineSet
813 1479 m 0
 657 1479 551 1573 561 1745 c 1
 586 1772 647 1786 690 1780 c 1
 690 1690 742 1638 838 1638 c 0
 934 1638 1001 1690 1030 1780 c 1
 1087 1780 1114 1773 1149 1759 c 1
 1106 1589 977 1479 813 1479 c 0
586 -20 m 0
 230 -20 74 180 74 516 c 0
 74 1028 334 1389 799 1389 c 0
 1155 1389 1311 1188 1311 852 c 0
 1311 340 1051 -20 586 -20 c 0
606 102 m 0
 872 102 991 629 991 901 c 0
 991 1155 928 1270 778 1270 c 0
 512 1270 393 747 393 471 c 0
 393 217 456 102 606 102 c 0
EndSplineSet
EndChar

StartChar: Ocircumflex
Encoding: 212 212 115
Width: 1325
GlyphClass: 2
Flags: HMW
HStem: -20 123<531 739 531 818> 1270 119<645 853>
VStem: 74 319<348 609 344 772> 991 319<765 1020 596 1028>
AnchorPoint: "Anchor-4" 582 0 basechar 0
AnchorPoint: "Anchor-3" 793 1366 basechar 0
LayerCount: 2
Fore
SplineSet
567 1481 m 1
 508 1554 l 1
 729 1767 l 2
 778 1814 815 1831 858 1831 c 0
 903 1831 934 1812 967 1763 c 2
 1116 1544 l 1
 1047 1481 l 1
 831 1638 l 1
 567 1481 l 1
586 -20 m 0
 230 -20 74 180 74 516 c 0
 74 1028 334 1389 799 1389 c 0
 1155 1389 1311 1188 1311 852 c 0
 1311 340 1051 -20 586 -20 c 0
606 102 m 0
 872 102 991 629 991 901 c 0
 991 1155 928 1270 778 1270 c 0
 512 1270 393 747 393 471 c 0
 393 217 456 102 606 102 c 0
EndSplineSet
EndChar

StartChar: Odieresis
Encoding: 214 214 116
Width: 1325
GlyphClass: 2
Flags: HMW
HStem: -20 123<531 739 531 818> 1270 119<645 853> 1516 272<638 693 972 1027>
VStem: 74 319<348 609 344 772> 535 262<1628 1677> 868 262<1628 1677> 991 319<765 1020 596 1028>
AnchorPoint: "Anchor-4" 582 0 basechar 0
AnchorPoint: "Anchor-3" 793 1366 basechar 0
LayerCount: 2
Fore
SplineSet
649 1516 m 0xfa
 577 1516 535 1558 535 1626 c 0
 535 1728 594 1788 682 1788 c 0
 754 1788 797 1745 797 1679 c 0
 797 1577 737 1516 649 1516 c 0xfa
983 1516 m 0xfc
 911 1516 868 1558 868 1626 c 0
 868 1728 928 1788 1016 1788 c 0
 1088 1788 1130 1745 1130 1679 c 0
 1130 1577 1071 1516 983 1516 c 0xfc
586 -20 m 0
 230 -20 74 180 74 516 c 0
 74 1028 334 1389 799 1389 c 0
 1155 1389 1311 1188 1311 852 c 0xfa
 1311 340 1051 -20 586 -20 c 0
606 102 m 0xfa
 872 102 991 629 991 901 c 0
 991 1155 928 1270 778 1270 c 0
 512 1270 393 747 393 471 c 0
 393 217 456 102 606 102 c 0xfa
EndSplineSet
EndChar

StartChar: Ograve
Encoding: 210 210 117
Width: 1325
GlyphClass: 2
Flags: HMW
HStem: -20 123<531 739 531 818> 1270 119<645 853>
VStem: 74 319<348 609 344 772> 991 319<765 1020 596 1028>
AnchorPoint: "Anchor-4" 582 0 basechar 0
AnchorPoint: "Anchor-3" 793 1366 basechar 0
LayerCount: 2
Fore
SplineSet
903 1460 m 1
 635 1632 l 2
 584 1665 563 1704 563 1741 c 0
 563 1792 604 1835 657 1835 c 0
 692 1835 733 1816 772 1769 c 2
 965 1530 l 1
 903 1460 l 1
586 -20 m 0
 230 -20 74 180 74 516 c 0
 74 1028 334 1389 799 1389 c 0
 1155 1389 1311 1188 1311 852 c 0
 1311 340 1051 -20 586 -20 c 0
606 102 m 0
 872 102 991 629 991 901 c 0
 991 1155 928 1270 778 1270 c 0
 512 1270 393 747 393 471 c 0
 393 217 456 102 606 102 c 0
EndSplineSet
EndChar

StartChar: Ohungarumlaut
Encoding: 336 336 118
Width: 1325
GlyphClass: 2
Flags: HMW
HStem: -20 123<531 739 531 818> 1270 119<645 853>
VStem: 74 319<348 609 344 772> 991 319<765 1020 596 1028>
AnchorPoint: "Anchor-4" 582 0 basechar 0
AnchorPoint: "Anchor-3" 793 1366 basechar 0
LayerCount: 2
Fore
SplineSet
700 1454 m 1
 635 1520 l 1
 797 1765 l 2
 836 1824 870 1849 915 1849 c 0
 968 1849 1014 1812 1014 1759 c 0
 1014 1716 995 1686 946 1647 c 2
 700 1454 l 1
993 1454 m 1
 932 1524 l 1
 1130 1761 l 2
 1163 1802 1202 1825 1243 1825 c 0
 1304 1825 1339 1780 1339 1735 c 0
 1339 1684 1310 1649 1255 1616 c 2
 993 1454 l 1
586 -20 m 0
 230 -20 74 180 74 516 c 0
 74 1028 334 1389 799 1389 c 0
 1155 1389 1311 1188 1311 852 c 0
 1311 340 1051 -20 586 -20 c 0
606 102 m 0
 872 102 991 629 991 901 c 0
 991 1155 928 1270 778 1270 c 0
 512 1270 393 747 393 471 c 0
 393 217 456 102 606 102 c 0
EndSplineSet
EndChar

StartChar: Omacron
Encoding: 332 332 119
Width: 1325
GlyphClass: 2
Flags: HMW
HStem: -20 123<531 739 531 818> 1270 119<645 853> 1575 139<506 1165 528 1143>
VStem: 74 319<348 609 344 772> 991 319<765 1020 596 1028>
AnchorPoint: "Anchor-4" 582 0 basechar 0
AnchorPoint: "Anchor-3" 793 1366 basechar 0
LayerCount: 2
Fore
SplineSet
506 1575 m 1
 528 1714 l 1
 1165 1714 l 1
 1143 1575 l 1
 506 1575 l 1
586 -20 m 0
 230 -20 74 180 74 516 c 0
 74 1028 334 1389 799 1389 c 0
 1155 1389 1311 1188 1311 852 c 0
 1311 340 1051 -20 586 -20 c 0
606 102 m 0
 872 102 991 629 991 901 c 0
 991 1155 928 1270 778 1270 c 0
 512 1270 393 747 393 471 c 0
 393 217 456 102 606 102 c 0
EndSplineSet
EndChar

StartChar: Oslash
Encoding: 216 216 120
Width: 1382
GlyphClass: 2
Flags: HMW
HStem: -20 123<560 734 560 818> 1270 119<645 830>
VStem: 74 319<457 471 457 772> 991 319<870 870>
AnchorPoint: "Anchor-4" 590 0 basechar 0
AnchorPoint: "Anchor-3" 829 1366 basechar 0
LayerCount: 2
Fore
SplineSet
1397 1319 m 1
 1249 1157 l 1
 1290 1073 1311 971 1311 852 c 0
 1311 340 1051 -20 586 -20 c 0
 449 -20 342 9 260 66 c 1
 139 -70 l 1
 121 -72 l 1
 74 -47 35 -10 6 29 c 1
 150 186 l 1
 99 272 74 383 74 516 c 0
 74 1028 334 1389 799 1389 c 0
 949 1389 1063 1354 1145 1286 c 1
 1264 1417 l 1
 1288 1415 l 1
 1325 1399 1372 1354 1397 1319 c 1
393 471 m 2
 393 457 l 1
 973 1096 l 1
 944 1215 882 1270 778 1270 c 0
 512 1270 393 747 393 471 c 2
606 102 m 0
 862 102 983 591 991 870 c 1
 422 242 l 1
 453 148 514 102 606 102 c 0
EndSplineSet
EndChar

StartChar: Oslashacute
Encoding: 510 510 121
Width: 1382
GlyphClass: 2
Flags: HMW
HStem: -20 123<560 734 560 818> 1270 119<645 830>
VStem: 74 319<457 471 457 772> 991 319<870 870>
AnchorPoint: "Anchor-4" 590 0 basechar 0
AnchorPoint: "Anchor-3" 829 1366 basechar 0
LayerCount: 2
Fore
SplineSet
1061 1628 m 2
 793 1456 l 1
 731 1526 l 1
 924 1765 l 2
 963 1812 1003 1831 1038 1831 c 0
 1091 1831 1133 1788 1133 1737 c 0
 1133 1700 1112 1661 1061 1628 c 2
1397 1319 m 1
 1249 1157 l 1
 1290 1073 1311 971 1311 852 c 0
 1311 340 1051 -20 586 -20 c 0
 449 -20 342 9 260 66 c 1
 139 -70 l 1
 121 -72 l 1
 74 -47 35 -10 6 29 c 1
 150 186 l 1
 99 272 74 383 74 516 c 0
 74 1028 334 1389 799 1389 c 0
 949 1389 1063 1354 1145 1286 c 1
 1264 1417 l 1
 1288 1415 l 1
 1325 1399 1372 1354 1397 1319 c 1
393 471 m 2
 393 457 l 1
 973 1096 l 1
 944 1215 882 1270 778 1270 c 0
 512 1270 393 747 393 471 c 2
606 102 m 0
 862 102 983 591 991 870 c 1
 422 242 l 1
 453 148 514 102 606 102 c 0
EndSplineSet
EndChar

StartChar: Otilde
Encoding: 213 213 122
Width: 1325
GlyphClass: 2
Flags: HMW
HStem: -20 123<531 739 531 818> 1270 119<645 853> 1507 178<930 991 930 993> 1587 180<688 750>
VStem: 74 319<348 609 344 772> 991 319<765 1020 596 1028>
AnchorPoint: "Anchor-4" 582 0 basechar 0
AnchorPoint: "Anchor-3" 793 1366 basechar 0
LayerCount: 2
Fore
SplineSet
578 1509 m 1xdc
 549 1519 502 1544 479 1575 c 1
 551 1690 641 1767 735 1767 c 0xdc
 817 1767 889 1686 971 1686 c 0
 1012 1686 1061 1718 1102 1765 c 1
 1131 1755 1177 1731 1200 1702 c 1
 1130 1587 1040 1507 946 1507 c 0xec
 864 1507 791 1587 709 1587 c 0
 668 1587 621 1558 578 1509 c 1xdc
586 -20 m 0
 230 -20 74 180 74 516 c 0
 74 1028 334 1389 799 1389 c 0
 1155 1389 1311 1188 1311 852 c 0
 1311 340 1051 -20 586 -20 c 0
606 102 m 0
 872 102 991 629 991 901 c 0
 991 1155 928 1270 778 1270 c 0
 512 1270 393 747 393 471 c 0
 393 217 456 102 606 102 c 0
EndSplineSet
EndChar

StartChar: OE
Encoding: 338 338 123
Width: 1878
GlyphClass: 2
Flags: HMW
HStem: -20 119<569 654> 0 98<569 1737 569 811> 0 127<1171 1530 1171 1737> 643 120 1016 350<1800 1825> 1241 125<1348 1692 1348 1348> 1270 119<728 880 599 896>
VStem: 104 328<342 657 329 778>
AnchorPoint: "Anchor-3" 1163 1366 basechar 0
LayerCount: 2
Fore
SplineSet
621 -20 m 0x95
 277 -20 104 157 104 526 c 0
 104 1030 355 1389 844 1389 c 0x33
 916 1389 981 1380 1036 1366 c 1
 1944 1366 l 1x35
 1898 1028 l 1
 1867 1020 1839 1016 1810 1016 c 0
 1790 1016 1768 1018 1745 1022 c 1x39
 1739 1126 1725 1186 1692 1241 c 1
 1348 1241 l 1
 1270 756 l 1
 1456 770 l 2
 1513 774 1566 827 1599 907 c 1
 1706 907 l 1
 1638 483 l 1
 1532 483 l 1
 1512 594 1487 631 1440 635 c 2
 1253 651 l 1
 1171 127 l 1
 1530 127 l 1
 1583 190 1628 276 1667 387 c 1
 1696 391 1720 393 1751 393 c 0
 1774 393 1796 391 1819 387 c 1
 1737 0 l 1
 811 0 l 1x35
 756 -12 689 -20 621 -20 c 0x95
641 98 m 0x53
 834 98 1030 504 1030 922 c 0
 1030 1162 966 1270 825 1270 c 0
 630 1270 432 865 432 451 c 0
 432 207 498 98 641 98 c 0x53
EndSplineSet
EndChar

StartChar: Racute
Encoding: 340 340 124
Width: 1292
GlyphClass: 2
Flags: HMW
HStem: 0 84<-10 0 0 0 0 575> 618 125<524 563 524 563> 1241 125<688 772 772 815> 1282 84<182 772>
VStem: 940 303<986 1109>
AnchorPoint: "Anchor-4" 705 0 basechar 0
AnchorPoint: "Anchor-3" 774 1366 basechar 0
LayerCount: 2
Fore
SplineSet
737 1456 m 1xe8
 676 1526 l 1
 868 1765 l 2
 907 1812 948 1831 983 1831 c 0
 1036 1831 1077 1788 1077 1737 c 0
 1077 1700 1057 1661 1006 1628 c 2
 737 1456 l 1xe8
-10 0 m 1
 0 84 l 1
 68 94 104 112 147 145 c 1
 317 1221 l 1
 294 1250 239 1274 182 1282 c 1xd8
 195 1366 l 1
 772 1366 l 2
 1091 1366 1243 1264 1243 1063 c 0
 1243 850 1081 723 870 664 c 1
 925 637 971 588 991 516 c 2
 1094 168 l 2
 1108 117 1157 98 1231 84 c 1
 1221 0 l 1
 963 0 l 2
 873 0 800 45 782 135 c 2
 676 537 l 2
 658 605 600 618 541 618 c 2
 524 618 l 1
 449 145 l 1
 476 116 520 98 586 84 c 1
 575 0 l 1
 -10 0 l 1
543 743 m 1
 563 743 l 2
 842 743 940 918 940 1055 c 0
 940 1164 893 1241 737 1241 c 0
 639 1241 622 1229 610 1159 c 2xe8
 543 743 l 1
EndSplineSet
EndChar

StartChar: Rcaron
Encoding: 344 344 125
Width: 1292
GlyphClass: 2
Flags: HMW
HStem: 0 84<-10 0 0 0 0 575> 618 125<524 563 524 563> 1241 125<688 772 772 815> 1282 84<182 772>
VStem: 940 303<986 1109>
AnchorPoint: "Anchor-4" 705 0 basechar 0
AnchorPoint: "Anchor-3" 774 1366 basechar 0
LayerCount: 2
Fore
SplineSet
803 1468 m 0xe8
 762 1468 725 1485 690 1532 c 2
 537 1743 l 1
 608 1819 l 1
 827 1669 l 1
 1096 1819 l 1
 1147 1743 l 1
 930 1534 l 2
 885 1491 842 1468 803 1468 c 0xe8
-10 0 m 1
 0 84 l 1
 68 94 104 112 147 145 c 1
 317 1221 l 1
 294 1250 239 1274 182 1282 c 1xd8
 195 1366 l 1
 772 1366 l 2
 1091 1366 1243 1264 1243 1063 c 0
 1243 850 1081 723 870 664 c 1
 925 637 971 588 991 516 c 2
 1094 168 l 2
 1108 117 1157 98 1231 84 c 1
 1221 0 l 1
 963 0 l 2
 873 0 800 45 782 135 c 2
 676 537 l 2
 658 605 600 618 541 618 c 2
 524 618 l 1
 449 145 l 1
 476 116 520 98 586 84 c 1
 575 0 l 1
 -10 0 l 1
543 743 m 1
 563 743 l 2
 842 743 940 918 940 1055 c 0
 940 1164 893 1241 737 1241 c 0
 639 1241 622 1229 610 1159 c 2xe8
 543 743 l 1
EndSplineSet
EndChar

StartChar: uni0156
Encoding: 342 342 126
Width: 1292
GlyphClass: 2
Flags: HMW
HStem: -451 43G<616 616> 0 84<-10 0 0 0 0 575> 618 125<524 563 524 563> 1241 125<688 772 772 815> 1282 84<182 772>
VStem: 594 197<-187 -180> 940 303<986 1109>
AnchorPoint: "Anchor-4" 705 0 basechar 0
AnchorPoint: "Anchor-3" 774 1366 basechar 0
LayerCount: 2
Fore
SplineSet
-10 0 m 1xf6
 0 84 l 1
 68 94 104 112 147 145 c 1
 317 1221 l 1
 294 1250 239 1274 182 1282 c 1xee
 195 1366 l 1
 772 1366 l 2
 1091 1366 1243 1264 1243 1063 c 0
 1243 850 1081 723 870 664 c 1
 925 637 971 588 991 516 c 2
 1094 168 l 2
 1108 117 1157 98 1231 84 c 1
 1221 0 l 1
 963 0 l 2
 873 0 800 45 782 135 c 2
 676 537 l 2
 658 605 600 618 541 618 c 2
 524 618 l 1
 449 145 l 1
 476 116 520 98 586 84 c 1
 575 0 l 1
 -10 0 l 1xf6
543 743 m 1
 563 743 l 2
 842 743 940 918 940 1055 c 0
 940 1164 893 1241 737 1241 c 0
 639 1241 622 1229 610 1159 c 2xf6
 543 743 l 1
616 -451 m 1
 524 -410 l 1
 567 -328 594 -248 594 -197 c 0
 594 -164 584 -140 559 -117 c 1
 586 -86 639 -63 682 -63 c 0
 748 -63 791 -99 791 -152 c 0
 791 -224 714 -345 616 -451 c 1
EndSplineSet
EndChar

StartChar: Sacute
Encoding: 346 346 127
Width: 1003
GlyphClass: 2
Flags: HMW
HStem: -14 117<387 475 387 568> 1272 111<573 688>
VStem: 125 293<1023 1069> 629 309<311 388> 801 231<1142 1197>
AnchorPoint: "Anchor-5" 451 0 basechar 0
AnchorPoint: "Anchor-4" 461 0 basechar 0
AnchorPoint: "Anchor-3" 635 1366 basechar 0
LayerCount: 2
Fore
SplineSet
598 1456 m 1xf0
 537 1526 l 1
 729 1765 l 2
 768 1812 809 1831 844 1831 c 0
 897 1831 938 1788 938 1737 c 0
 938 1700 917 1661 866 1628 c 2
 598 1456 l 1xf0
418 -14 m 0
 266 -14 115 22 -4 90 c 1
 98 453 l 1
 248 426 l 1
 240 358 233 307 233 260 c 0
 233 225 236 197 240 168 c 1
 297 121 359 102 416 102 c 0
 535 102 629 189 629 330 c 0xf0
 629 447 561 514 399 598 c 0
 227 686 125 782 125 938 c 0
 125 1200 362 1382 651 1382 c 0
 870 1382 1032 1274 1032 1139 c 0
 1032 1039 964 965 874 965 c 0
 823 965 776 983 727 1026 c 1
 772 1069 801 1120 801 1163 c 0xe8
 801 1231 739 1272 637 1272 c 0
 510 1272 418 1196 418 1073 c 0
 418 973 481 919 653 829 c 0
 841 731 938 623 938 455 c 0
 938 168 719 -14 418 -14 c 0
EndSplineSet
EndChar

StartChar: Scaron
Encoding: 352 352 128
Width: 1003
GlyphClass: 2
Flags: HMW
HStem: -14 117<387 475 387 568> 1272 111<573 688>
VStem: 125 293<1023 1069> 629 309<311 388> 801 231<1142 1197>
AnchorPoint: "Anchor-5" 451 0 basechar 0
AnchorPoint: "Anchor-4" 461 0 basechar 0
AnchorPoint: "Anchor-3" 635 1366 basechar 0
LayerCount: 2
Fore
SplineSet
664 1468 m 0xf0
 623 1468 586 1485 551 1532 c 2
 397 1743 l 1
 469 1819 l 1
 688 1669 l 1
 956 1819 l 1
 1008 1743 l 1
 791 1534 l 2
 746 1491 703 1468 664 1468 c 0xf0
418 -14 m 0
 266 -14 115 22 -4 90 c 1
 98 453 l 1
 248 426 l 1
 240 358 233 307 233 260 c 0
 233 225 236 197 240 168 c 1
 297 121 359 102 416 102 c 0
 535 102 629 189 629 330 c 0xf0
 629 447 561 514 399 598 c 0
 227 686 125 782 125 938 c 0
 125 1200 362 1382 651 1382 c 0
 870 1382 1032 1274 1032 1139 c 0
 1032 1039 964 965 874 965 c 0
 823 965 776 983 727 1026 c 1
 772 1069 801 1120 801 1163 c 0xe8
 801 1231 739 1272 637 1272 c 0
 510 1272 418 1196 418 1073 c 0
 418 973 481 919 653 829 c 0
 841 731 938 623 938 455 c 0
 938 168 719 -14 418 -14 c 0
EndSplineSet
EndChar

StartChar: Scedilla
Encoding: 350 350 129
Width: 1003
GlyphClass: 2
Flags: HMW
HStem: -430 86<333 374 333 407> -14 117<379 475> 1272 111<573 688>
VStem: 125 293<1023 1069> 150 141<-296 -260 -296 -259> 434 156<-271 -210> 629 309<324 388> 801 231<1142 1197>
AnchorPoint: "Anchor-5" 451 0 basechar 0
AnchorPoint: "Anchor-4" 461 0 basechar 0
AnchorPoint: "Anchor-3" 635 1366 basechar 0
LayerCount: 2
Fore
SplineSet
727 1026 m 1xed
 772 1069 801 1120 801 1163 c 0xed
 801 1231 739 1272 637 1272 c 0
 510 1272 418 1196 418 1073 c 0
 418 973 481 919 653 829 c 0
 841 731 938 623 938 455 c 0xf6
 938 193 756 19 494 -10 c 1
 471 -80 l 1
 543 -103 590 -137 590 -215 c 0
 590 -336 475 -430 338 -430 c 0
 201 -430 150 -352 150 -291 c 0
 150 -228 192 -178 260 -178 c 0
 278 -178 295 -183 322 -197 c 1
 304 -215 291 -243 291 -276 c 0
 291 -315 315 -344 350 -344 c 0
 397 -344 434 -303 434 -240 c 0
 434 -181 387 -156 328 -150 c 1
 293 -100 l 1
 379 -14 l 1xed
 242 -8 105 29 -4 90 c 1
 98 453 l 1
 248 426 l 1
 240 358 233 307 233 260 c 0
 233 225 236 197 240 168 c 1
 297 121 359 102 416 102 c 0
 535 102 629 189 629 330 c 0
 629 447 561 514 399 598 c 0
 227 686 125 782 125 938 c 0xf6
 125 1200 362 1382 651 1382 c 0
 870 1382 1032 1274 1032 1139 c 0
 1032 1039 964 965 874 965 c 0
 823 965 776 983 727 1026 c 1xed
EndSplineSet
EndChar

StartChar: Scircumflex
Encoding: 348 348 130
Width: 1003
GlyphClass: 2
Flags: HMW
HStem: -14 117<387 475 387 568> 1272 111<573 688>
VStem: 125 293<1023 1069> 629 309<311 388> 801 231<1142 1197>
AnchorPoint: "Anchor-5" 451 0 basechar 0
AnchorPoint: "Anchor-4" 461 0 basechar 0
AnchorPoint: "Anchor-3" 635 1366 basechar 0
LayerCount: 2
Fore
SplineSet
410 1481 m 1xf0
 350 1554 l 1
 571 1767 l 2
 620 1814 657 1831 700 1831 c 0
 745 1831 776 1812 809 1763 c 2
 958 1544 l 1
 889 1481 l 1
 674 1638 l 1
 410 1481 l 1xf0
418 -14 m 0
 266 -14 115 22 -4 90 c 1
 98 453 l 1
 248 426 l 1
 240 358 233 307 233 260 c 0
 233 225 236 197 240 168 c 1
 297 121 359 102 416 102 c 0
 535 102 629 189 629 330 c 0xf0
 629 447 561 514 399 598 c 0
 227 686 125 782 125 938 c 0
 125 1200 362 1382 651 1382 c 0
 870 1382 1032 1274 1032 1139 c 0
 1032 1039 964 965 874 965 c 0
 823 965 776 983 727 1026 c 1
 772 1069 801 1120 801 1163 c 0xe8
 801 1231 739 1272 637 1272 c 0
 510 1272 418 1196 418 1073 c 0
 418 973 481 919 653 829 c 0
 841 731 938 623 938 455 c 0
 938 168 719 -14 418 -14 c 0
EndSplineSet
EndChar

StartChar: Tbar
Encoding: 358 358 131
Width: 1234
GlyphClass: 2
Flags: HMW
HStem: 0 84<188 188 188 846 178 188> 602 139<268 449 246 471 772 1032> 948 41G<104 104 1217 1217> 1239 127<551 804> 1241 125<584 852> 1333 41G<166 166 1278 1278>
VStem: 104 1174<989 1374>
AnchorPoint: "Anchor-4" 512 0 basechar 0
AnchorPoint: "Anchor-3" 721 1366 basechar 0
LayerCount: 2
Fore
SplineSet
721 1366 m 0xea
 887 1366 1210 1372 1278 1374 c 1xe6
 1217 989 l 1
 1194 985 1172 983 1149 983 c 0
 1124 983 1100 985 1075 989 c 1
 1075 1081 1065 1170 1040 1225 c 1
 979 1233 932 1239 852 1241 c 1xea
 772 741 l 1
 1055 741 l 1
 1032 602 l 1
 750 602 l 1
 678 145 l 1
 705 116 790 98 856 84 c 1
 846 0 l 1
 178 0 l 1
 188 84 l 1
 256 94 334 112 377 145 c 1
 449 602 l 1
 246 602 l 1
 268 741 l 1
 471 741 l 1
 551 1239 l 1
 471 1237 421 1231 362 1227 c 1xf2
 309 1168 262 1069 246 989 c 1
 221 985 197 983 172 983 c 0
 149 983 127 985 104 989 c 1
 166 1374 l 1xe6
 275 1368 447 1366 721 1366 c 0xea
EndSplineSet
EndChar

StartChar: Tcaron
Encoding: 356 356 132
Width: 1161
GlyphClass: 2
Flags: HMW
HStem: 0 84<176 186 186 186 186 844> 948 41G<102 102 1214 1214> 983 391<164 164 164 182> 1239 135 1241 133
VStem: 102 1174<989 1374>
AnchorPoint: "Anchor-4" 510 0 basechar 0
AnchorPoint: "Anchor-3" 719 1366 basechar 0
LayerCount: 2
Fore
SplineSet
748 1468 m 0xcc
 707 1468 670 1485 635 1532 c 2
 481 1743 l 1
 553 1819 l 1
 772 1669 l 1
 1040 1819 l 1
 1092 1743 l 1
 874 1534 l 2
 829 1491 787 1468 748 1468 c 0xcc
176 0 m 1
 186 84 l 1
 254 94 332 112 375 145 c 1
 549 1239 l 1
 469 1237 419 1231 360 1227 c 1xd4
 307 1168 260 1069 244 989 c 1
 219 985 195 983 170 983 c 0xa4
 147 983 125 985 102 989 c 1
 164 1374 l 1
 273 1368 445 1366 719 1366 c 0
 885 1366 1208 1372 1276 1374 c 1xcc
 1214 989 l 1
 1191 985 1170 983 1147 983 c 0
 1122 983 1098 985 1073 989 c 1xa4
 1073 1081 1063 1170 1038 1225 c 1
 977 1233 930 1239 850 1241 c 1
 676 145 l 1
 703 116 788 98 854 84 c 1
 844 0 l 1
 176 0 l 1
EndSplineSet
EndChar

StartChar: uni021A
Encoding: 538 538 133
Width: 1161
GlyphClass: 2
Flags: HMW
HStem: -451 43G<422 422> 0 84<176 186 186 186 186 844> 948 41G<102 102 1214 1214> 983 391<164 164 164 182> 1239 135 1241 133
VStem: 102 1174<989 1374> 399 197<-187 -180>
AnchorPoint: "Anchor-4" 510 0 basechar 0
AnchorPoint: "Anchor-3" 719 1366 basechar 0
LayerCount: 2
Fore
SplineSet
176 0 m 1xe6
 186 84 l 1
 254 94 332 112 375 145 c 1
 549 1239 l 1
 469 1237 419 1231 360 1227 c 1xea
 307 1168 260 1069 244 989 c 1
 219 985 195 983 170 983 c 0xd2
 147 983 125 985 102 989 c 1
 164 1374 l 1
 273 1368 445 1366 719 1366 c 0
 885 1366 1208 1372 1276 1374 c 1xe6
 1214 989 l 1
 1191 985 1170 983 1147 983 c 0
 1122 983 1098 985 1073 989 c 1xd2
 1073 1081 1063 1170 1038 1225 c 1
 977 1233 930 1239 850 1241 c 1
 676 145 l 1
 703 116 788 98 854 84 c 1
 844 0 l 1
 176 0 l 1xe6
422 -451 m 1xe5
 330 -410 l 1
 373 -328 399 -248 399 -197 c 0
 399 -164 390 -140 365 -117 c 1
 392 -86 444 -63 487 -63 c 0
 553 -63 596 -99 596 -152 c 0
 596 -224 520 -345 422 -451 c 1xe5
EndSplineSet
EndChar

StartChar: Thorn
Encoding: 222 222 134
Width: 1230
GlyphClass: 1
Flags: HMW
HStem: 0 84<-20 -10 -10 -10 -10 565> 307 129<580 618 618 715 483 788> 975 125<678 750 750 770> 1282 84<172 770 758 758>
VStem: 911 319<665 833>
LayerCount: 2
Fore
SplineSet
-20 0 m 1
 -10 84 l 1
 58 94 94 112 137 145 c 1
 307 1221 l 1
 284 1250 229 1274 172 1282 c 1
 184 1366 l 1
 770 1366 l 1
 758 1282 l 1
 690 1270 655 1256 608 1221 c 1
 590 1100 l 1
 750 1100 l 2
 1072 1100 1231 998 1231 791 c 0
 1231 480 981 307 596 307 c 0
 563 307 502 309 465 311 c 1
 438 145 l 1
 465 116 509 98 575 84 c 1
 565 0 l 1
 -20 0 l 1
483 436 m 1
 618 436 l 2
 811 436 911 563 911 766 c 0
 911 899 837 975 702 975 c 0
 653 975 606 973 569 969 c 1
 483 436 l 1
EndSplineSet
EndChar

StartChar: Uacute
Encoding: 218 218 135
Width: 1355
GlyphClass: 2
Flags: HMW
HStem: -14 137<611 796 611 815> 1282 84<143 741 729 729 1454 1454>
VStem: 147 303<271 366>
AnchorPoint: "Anchor-3" 874 1366 basechar 0
AnchorPoint: "Anchor-2" 772 0 basechar 0
LayerCount: 2
Fore
SplineSet
838 1456 m 1
 776 1526 l 1
 969 1765 l 2
 1008 1812 1048 1831 1083 1831 c 0
 1136 1831 1178 1788 1178 1737 c 0
 1178 1700 1157 1661 1106 1628 c 2
 838 1456 l 1
629 -14 m 0
 307 -14 147 113 147 330 c 0
 147 402 177 555 279 1221 c 1
 256 1250 200 1274 143 1282 c 1
 156 1366 l 1
 741 1366 l 1
 729 1282 l 1
 661 1270 627 1256 580 1221 c 1
 467 502 451 405 451 344 c 0
 451 199 526 123 696 123 c 0
 895 123 973 271 1004 457 c 2
 1120 1221 l 1
 1097 1250 1042 1274 985 1282 c 1
 997 1366 l 1
 1466 1366 l 1
 1454 1282 l 1
 1386 1270 1352 1256 1305 1221 c 1
 1194 502 l 2
 1143 170 1002 -14 629 -14 c 0
EndSplineSet
EndChar

StartChar: Ubreve
Encoding: 364 364 136
Width: 1355
GlyphClass: 2
Flags: HMW
HStem: -14 137<611 796 611 815> 1282 84<143 741 729 729 1454 1454> 1479 160<871 968 871 977>
VStem: 147 303<271 366> 643 129
AnchorPoint: "Anchor-3" 874 1366 basechar 0
AnchorPoint: "Anchor-2" 772 0 basechar 0
LayerCount: 2
Fore
SplineSet
895 1479 m 0
 739 1479 633 1573 643 1745 c 1
 668 1772 729 1786 772 1780 c 1
 772 1690 824 1638 920 1638 c 0
 1016 1638 1083 1690 1112 1780 c 1
 1169 1780 1196 1773 1231 1759 c 1
 1188 1589 1059 1479 895 1479 c 0
629 -14 m 0
 307 -14 147 113 147 330 c 0
 147 402 177 555 279 1221 c 1
 256 1250 200 1274 143 1282 c 1
 156 1366 l 1
 741 1366 l 1
 729 1282 l 1
 661 1270 627 1256 580 1221 c 1
 467 502 451 405 451 344 c 0
 451 199 526 123 696 123 c 0
 895 123 973 271 1004 457 c 2
 1120 1221 l 1
 1097 1250 1042 1274 985 1282 c 1
 997 1366 l 1
 1466 1366 l 1
 1454 1282 l 1
 1386 1270 1352 1256 1305 1221 c 1
 1194 502 l 2
 1143 170 1002 -14 629 -14 c 0
EndSplineSet
EndChar

StartChar: Ucircumflex
Encoding: 219 219 137
Width: 1355
GlyphClass: 2
Flags: HMW
HStem: -14 137<611 796 611 815> 1282 84<143 741 729 729 1454 1454>
VStem: 147 303<271 366>
AnchorPoint: "Anchor-3" 874 1366 basechar 0
AnchorPoint: "Anchor-2" 772 0 basechar 0
LayerCount: 2
Fore
SplineSet
649 1481 m 1
 590 1554 l 1
 811 1767 l 2
 860 1814 897 1831 940 1831 c 0
 985 1831 1016 1812 1049 1763 c 2
 1198 1544 l 1
 1128 1481 l 1
 913 1638 l 1
 649 1481 l 1
629 -14 m 0
 307 -14 147 113 147 330 c 0
 147 402 177 555 279 1221 c 1
 256 1250 200 1274 143 1282 c 1
 156 1366 l 1
 741 1366 l 1
 729 1282 l 1
 661 1270 627 1256 580 1221 c 1
 467 502 451 405 451 344 c 0
 451 199 526 123 696 123 c 0
 895 123 973 271 1004 457 c 2
 1120 1221 l 1
 1097 1250 1042 1274 985 1282 c 1
 997 1366 l 1
 1466 1366 l 1
 1454 1282 l 1
 1386 1270 1352 1256 1305 1221 c 1
 1194 502 l 2
 1143 170 1002 -14 629 -14 c 0
EndSplineSet
EndChar

StartChar: Udieresis
Encoding: 220 220 138
Width: 1355
GlyphClass: 2
Flags: HMW
HStem: -14 137<611 796 611 815> 1282 84<143 741 729 729 1454 1454> 1516 272<720 775 1054 1109>
VStem: 147 303<271 366> 616 262<1628 1677> 950 262<1628 1677>
AnchorPoint: "Anchor-3" 874 1366 basechar 0
AnchorPoint: "Anchor-2" 772 0 basechar 0
LayerCount: 2
Fore
SplineSet
731 1516 m 0
 659 1516 616 1558 616 1626 c 0
 616 1728 676 1788 764 1788 c 0
 836 1788 879 1745 879 1679 c 0
 879 1577 819 1516 731 1516 c 0
1065 1516 m 0
 993 1516 950 1558 950 1626 c 0
 950 1728 1010 1788 1098 1788 c 0
 1170 1788 1212 1745 1212 1679 c 0
 1212 1577 1153 1516 1065 1516 c 0
629 -14 m 0
 307 -14 147 113 147 330 c 0
 147 402 177 555 279 1221 c 1
 256 1250 200 1274 143 1282 c 1
 156 1366 l 1
 741 1366 l 1
 729 1282 l 1
 661 1270 627 1256 580 1221 c 1
 467 502 451 405 451 344 c 0
 451 199 526 123 696 123 c 0
 895 123 973 271 1004 457 c 2
 1120 1221 l 1
 1097 1250 1042 1274 985 1282 c 1
 997 1366 l 1
 1466 1366 l 1
 1454 1282 l 1
 1386 1270 1352 1256 1305 1221 c 1
 1194 502 l 2
 1143 170 1002 -14 629 -14 c 0
EndSplineSet
EndChar

StartChar: Ugrave
Encoding: 217 217 139
Width: 1355
GlyphClass: 2
Flags: HMW
HStem: -14 137<611 796 611 815> 1282 84<143 741 729 729 1454 1454>
VStem: 147 303<271 366>
AnchorPoint: "Anchor-3" 874 1366 basechar 0
AnchorPoint: "Anchor-2" 772 0 basechar 0
LayerCount: 2
Fore
SplineSet
985 1460 m 1
 717 1632 l 2
 666 1665 645 1704 645 1741 c 0
 645 1792 686 1835 739 1835 c 0
 774 1835 815 1816 854 1769 c 2
 1047 1530 l 1
 985 1460 l 1
629 -14 m 0
 307 -14 147 113 147 330 c 0
 147 402 177 555 279 1221 c 1
 256 1250 200 1274 143 1282 c 1
 156 1366 l 1
 741 1366 l 1
 729 1282 l 1
 661 1270 627 1256 580 1221 c 1
 467 502 451 405 451 344 c 0
 451 199 526 123 696 123 c 0
 895 123 973 271 1004 457 c 2
 1120 1221 l 1
 1097 1250 1042 1274 985 1282 c 1
 997 1366 l 1
 1466 1366 l 1
 1454 1282 l 1
 1386 1270 1352 1256 1305 1221 c 1
 1194 502 l 2
 1143 170 1002 -14 629 -14 c 0
EndSplineSet
EndChar

StartChar: Uhungarumlaut
Encoding: 368 368 140
Width: 1355
GlyphClass: 2
Flags: HMW
HStem: -14 137<611 796 611 815> 1282 84<143 741 729 729 1454 1454>
VStem: 147 303<271 366>
AnchorPoint: "Anchor-3" 874 1366 basechar 0
AnchorPoint: "Anchor-2" 772 0 basechar 0
LayerCount: 2
Fore
SplineSet
782 1454 m 1
 717 1520 l 1
 879 1765 l 2
 918 1824 952 1849 997 1849 c 0
 1050 1849 1096 1812 1096 1759 c 0
 1096 1716 1077 1686 1028 1647 c 2
 782 1454 l 1
1075 1454 m 1
 1014 1524 l 1
 1212 1761 l 2
 1245 1802 1284 1825 1325 1825 c 0
 1386 1825 1421 1780 1421 1735 c 0
 1421 1684 1392 1649 1337 1616 c 2
 1075 1454 l 1
629 -14 m 0
 307 -14 147 113 147 330 c 0
 147 402 177 555 279 1221 c 1
 256 1250 200 1274 143 1282 c 1
 156 1366 l 1
 741 1366 l 1
 729 1282 l 1
 661 1270 627 1256 580 1221 c 1
 467 502 451 405 451 344 c 0
 451 199 526 123 696 123 c 0
 895 123 973 271 1004 457 c 2
 1120 1221 l 1
 1097 1250 1042 1274 985 1282 c 1
 997 1366 l 1
 1466 1366 l 1
 1454 1282 l 1
 1386 1270 1352 1256 1305 1221 c 1
 1194 502 l 2
 1143 170 1002 -14 629 -14 c 0
EndSplineSet
EndChar

StartChar: Umacron
Encoding: 362 362 141
Width: 1355
GlyphClass: 2
Flags: HMW
HStem: -14 137<611 796 611 815> 1282 84<143 741 729 729 1454 1454> 1575 139<588 1247 610 1225>
VStem: 147 303<271 366>
AnchorPoint: "Anchor-3" 874 1366 basechar 0
AnchorPoint: "Anchor-2" 772 0 basechar 0
LayerCount: 2
Fore
SplineSet
588 1575 m 1
 610 1714 l 1
 1247 1714 l 1
 1225 1575 l 1
 588 1575 l 1
629 -14 m 0
 307 -14 147 113 147 330 c 0
 147 402 177 555 279 1221 c 1
 256 1250 200 1274 143 1282 c 1
 156 1366 l 1
 741 1366 l 1
 729 1282 l 1
 661 1270 627 1256 580 1221 c 1
 467 502 451 405 451 344 c 0
 451 199 526 123 696 123 c 0
 895 123 973 271 1004 457 c 2
 1120 1221 l 1
 1097 1250 1042 1274 985 1282 c 1
 997 1366 l 1
 1466 1366 l 1
 1454 1282 l 1
 1386 1270 1352 1256 1305 1221 c 1
 1194 502 l 2
 1143 170 1002 -14 629 -14 c 0
EndSplineSet
EndChar

StartChar: Uogonek
Encoding: 370 370 142
Width: 1355
GlyphClass: 2
Flags: HMW
HStem: -418 121<455 600> -8 43G 1282 84<143 741 729 729 1454 1454>
VStem: 147 303<271 366> 340 182<-252 -242>
AnchorPoint: "Anchor-3" 874 1366 basechar 0
AnchorPoint: "Anchor-2" 772 0 basechar 0
LayerCount: 2
Fore
SplineSet
997 1366 m 1xf0
 1466 1366 l 1
 1454 1282 l 1
 1386 1270 1352 1256 1305 1221 c 1
 1194 502 l 2
 1147 195 1022 13 707 -12 c 1
 666 -24 627 -51 596 -82 c 0
 551 -127 522 -182 522 -229 c 0
 522 -274 547 -297 582 -297 c 0
 619 -297 657 -273 686 -248 c 1
 733 -319 l 1
 674 -382 574 -418 502 -418 c 0
 408 -418 340 -362 340 -276 c 0
 340 -206 381 -153 440 -96 c 0xe8
 469 -67 497 -37 520 -8 c 1
 270 19 147 140 147 330 c 0
 147 402 177 555 279 1221 c 1
 256 1250 200 1274 143 1282 c 1
 156 1366 l 1
 741 1366 l 1
 729 1282 l 1
 661 1270 627 1256 580 1221 c 1
 467 502 451 405 451 344 c 0
 451 199 526 123 696 123 c 0
 895 123 973 271 1004 457 c 2
 1120 1221 l 1
 1097 1250 1042 1274 985 1282 c 1
 997 1366 l 1xf0
EndSplineSet
EndChar

StartChar: Uring
Encoding: 366 366 143
Width: 1355
GlyphClass: 2
Flags: HMW
HStem: -14 137<611 796 611 815> 1282 84<143 741 729 729 1454 1454> 1454 94<879 929 879 964> 1772 94<908 962>
VStem: 147 303<271 366> 692 145<1608 1676 1608 1694> 1004 145<1640 1709>
AnchorPoint: "Anchor-3" 874 1366 basechar 0
AnchorPoint: "Anchor-2" 772 0 basechar 0
LayerCount: 2
Fore
SplineSet
887 1454 m 0
 772 1454 692 1517 692 1630 c 0
 692 1757 798 1866 952 1866 c 0
 1071 1866 1149 1790 1149 1688 c 0
 1149 1559 1041 1454 887 1454 c 0
901 1548 m 0
 956 1548 1004 1596 1004 1686 c 0
 1004 1733 985 1772 938 1772 c 0
 879 1772 838 1722 838 1630 c 0
 838 1585 856 1548 901 1548 c 0
629 -14 m 0
 307 -14 147 113 147 330 c 0
 147 402 177 555 279 1221 c 1
 256 1250 200 1274 143 1282 c 1
 156 1366 l 1
 741 1366 l 1
 729 1282 l 1
 661 1270 627 1256 580 1221 c 1
 467 502 451 405 451 344 c 0
 451 199 526 123 696 123 c 0
 895 123 973 271 1004 457 c 2
 1120 1221 l 1
 1097 1250 1042 1274 985 1282 c 1
 997 1366 l 1
 1466 1366 l 1
 1454 1282 l 1
 1386 1270 1352 1256 1305 1221 c 1
 1194 502 l 2
 1143 170 1002 -14 629 -14 c 0
EndSplineSet
EndChar

StartChar: Utilde
Encoding: 360 360 144
Width: 1355
GlyphClass: 2
Flags: HMW
HStem: -14 137<611 796 611 815> 1282 84<143 741 729 729 1454 1454> 1507 178<1012 1073 1012 1075> 1587 180<770 831>
VStem: 147 303<271 366>
AnchorPoint: "Anchor-3" 874 1366 basechar 0
AnchorPoint: "Anchor-2" 772 0 basechar 0
LayerCount: 2
Fore
SplineSet
659 1509 m 1xd8
 630 1519 584 1544 561 1575 c 1
 633 1690 723 1767 817 1767 c 0xd8
 899 1767 971 1686 1053 1686 c 0
 1094 1686 1143 1718 1184 1765 c 1
 1213 1755 1259 1731 1282 1702 c 1
 1212 1587 1122 1507 1028 1507 c 0xe8
 946 1507 873 1587 791 1587 c 0
 750 1587 702 1558 659 1509 c 1xd8
629 -14 m 0
 307 -14 147 113 147 330 c 0
 147 402 177 555 279 1221 c 1
 256 1250 200 1274 143 1282 c 1
 156 1366 l 1
 741 1366 l 1
 729 1282 l 1
 661 1270 627 1256 580 1221 c 1
 467 502 451 405 451 344 c 0
 451 199 526 123 696 123 c 0
 895 123 973 271 1004 457 c 2
 1120 1221 l 1
 1097 1250 1042 1274 985 1282 c 1
 997 1366 l 1
 1466 1366 l 1
 1454 1282 l 1
 1386 1270 1352 1256 1305 1221 c 1
 1194 502 l 2
 1143 170 1002 -14 629 -14 c 0
EndSplineSet
EndChar

StartChar: Wacute
Encoding: 7810 7810 145
Width: 1888
GlyphClass: 2
Flags: HMW
HStem: -12 43G<529 563> -10 43G<1277 1309> 1282 84<94 666 2023 2023> 1284 82<653 653>
VStem: 94 1939<1282 1366>
AnchorPoint: "Anchor-3" 1145 1366 basechar 0
LayerCount: 2
Fore
SplineSet
1108 1456 m 1x58
 1047 1526 l 1
 1239 1765 l 2
 1278 1812 1319 1831 1354 1831 c 0
 1407 1831 1448 1788 1448 1737 c 0
 1448 1700 1427 1661 1376 1628 c 2
 1108 1456 l 1x58
563 -12 m 1x98
 495 -12 419 -10 362 0 c 1
 207 1221 l 1
 182 1252 143 1272 94 1282 c 1xa8
 106 1366 l 1
 666 1366 l 1
 653 1284 l 1
 594 1276 547 1266 518 1239 c 1
 618 379 l 1
 1047 1329 l 1
 1102 1347 1165 1356 1237 1356 c 1
 1360 379 l 1
 1745 1221 l 1
 1696 1256 1649 1276 1581 1284 c 1
 1591 1366 l 1
 2034 1366 l 1x58
 2023 1282 l 1
 1974 1278 1924 1266 1901 1217 c 2
 1309 -10 l 1
 1246 -10 1176 -10 1108 0 c 1x68
 985 881 l 1
 563 -12 l 1x98
EndSplineSet
EndChar

StartChar: Wcircumflex
Encoding: 372 372 146
Width: 1888
GlyphClass: 2
Flags: HMW
HStem: -12 43G<529 563> -10 43G<1277 1309> 1282 84<94 666 2023 2023> 1284 82<653 653>
VStem: 94 1939<1282 1366>
AnchorPoint: "Anchor-3" 1145 1366 basechar 0
LayerCount: 2
Fore
SplineSet
920 1481 m 1x58
 860 1554 l 1
 1081 1767 l 2
 1130 1814 1167 1831 1210 1831 c 0
 1255 1831 1286 1812 1319 1763 c 2
 1468 1544 l 1
 1399 1481 l 1
 1184 1638 l 1
 920 1481 l 1x58
563 -12 m 1x98
 495 -12 419 -10 362 0 c 1
 207 1221 l 1
 182 1252 143 1272 94 1282 c 1xa8
 106 1366 l 1
 666 1366 l 1
 653 1284 l 1
 594 1276 547 1266 518 1239 c 1
 618 379 l 1
 1047 1329 l 1
 1102 1347 1165 1356 1237 1356 c 1
 1360 379 l 1
 1745 1221 l 1
 1696 1256 1649 1276 1581 1284 c 1
 1591 1366 l 1
 2034 1366 l 1x58
 2023 1282 l 1
 1974 1278 1924 1266 1901 1217 c 2
 1309 -10 l 1
 1246 -10 1176 -10 1108 0 c 1x68
 985 881 l 1
 563 -12 l 1x98
EndSplineSet
EndChar

StartChar: Wdieresis
Encoding: 7812 7812 147
Width: 1888
GlyphClass: 2
Flags: HMW
HStem: -12 43G<529 563> -10 43G<1277 1309> 1282 84<94 666 2023 2023> 1284 82<653 653> 1516 272<990 1046 1324 1379>
VStem: 887 262<1628 1677> 1221 262<1628 1677>
AnchorPoint: "Anchor-3" 1145 1366 basechar 0
LayerCount: 2
Fore
SplineSet
1001 1516 m 0x5e
 929 1516 887 1558 887 1626 c 0
 887 1728 946 1788 1034 1788 c 0
 1106 1788 1149 1745 1149 1679 c 0
 1149 1577 1089 1516 1001 1516 c 0x5e
1335 1516 m 0
 1263 1516 1221 1558 1221 1626 c 0
 1221 1728 1280 1788 1368 1788 c 0
 1440 1788 1483 1745 1483 1679 c 0
 1483 1577 1423 1516 1335 1516 c 0
563 -12 m 1x9e
 495 -12 419 -10 362 0 c 1
 207 1221 l 1
 182 1252 143 1272 94 1282 c 1xae
 106 1366 l 1
 666 1366 l 1
 653 1284 l 1
 594 1276 547 1266 518 1239 c 1
 618 379 l 1
 1047 1329 l 1
 1102 1347 1165 1356 1237 1356 c 1
 1360 379 l 1
 1745 1221 l 1
 1696 1256 1649 1276 1581 1284 c 1
 1591 1366 l 1
 2034 1366 l 1x5e
 2023 1282 l 1
 1974 1278 1924 1266 1901 1217 c 2
 1309 -10 l 1
 1246 -10 1176 -10 1108 0 c 1x6e
 985 881 l 1
 563 -12 l 1x9e
EndSplineSet
EndChar

StartChar: Wgrave
Encoding: 7808 7808 148
Width: 1888
GlyphClass: 2
Flags: HMW
HStem: -12 43G<529 563> -10 43G<1277 1309> 1282 84<94 666 2023 2023> 1284 82<653 653>
VStem: 94 1939<1282 1366>
AnchorPoint: "Anchor-3" 1145 1366 basechar 0
LayerCount: 2
Fore
SplineSet
1255 1460 m 1x58
 987 1632 l 2
 936 1665 915 1704 915 1741 c 0
 915 1792 957 1835 1010 1835 c 0
 1045 1835 1085 1816 1124 1769 c 2
 1317 1530 l 1
 1255 1460 l 1x58
563 -12 m 1x98
 495 -12 419 -10 362 0 c 1
 207 1221 l 1
 182 1252 143 1272 94 1282 c 1xa8
 106 1366 l 1
 666 1366 l 1
 653 1284 l 1
 594 1276 547 1266 518 1239 c 1
 618 379 l 1
 1047 1329 l 1
 1102 1347 1165 1356 1237 1356 c 1
 1360 379 l 1
 1745 1221 l 1
 1696 1256 1649 1276 1581 1284 c 1
 1591 1366 l 1
 2034 1366 l 1x58
 2023 1282 l 1
 1974 1278 1924 1266 1901 1217 c 2
 1309 -10 l 1
 1246 -10 1176 -10 1108 0 c 1x68
 985 881 l 1
 563 -12 l 1x98
EndSplineSet
EndChar

StartChar: Yacute
Encoding: 221 221 149
Width: 1146
GlyphClass: 2
Flags: HMW
HStem: 0 84<168 178 178 178 178 795> 1284 82<109 682 670 670 1296 1296>
VStem: 109 1198<1284 1366>
AnchorPoint: "Anchor-3" 768 1366 basechar 0
LayerCount: 2
Fore
SplineSet
731 1456 m 1
 670 1526 l 1
 862 1765 l 2
 901 1812 942 1831 977 1831 c 0
 1030 1831 1071 1788 1071 1737 c 0
 1071 1700 1050 1661 999 1628 c 2
 731 1456 l 1
168 0 m 1
 178 84 l 1
 246 94 303 112 346 145 c 1
 412 551 l 1
 227 1192 l 2
 213 1239 162 1276 109 1284 c 1
 117 1366 l 1
 682 1366 l 1
 670 1284 l 1
 617 1280 571 1266 526 1239 c 1
 670 731 l 1
 997 1223 l 1
 962 1256 902 1276 834 1284 c 1
 844 1366 l 1
 1307 1366 l 1
 1296 1284 l 1
 1230 1278 1186 1260 1157 1217 c 2
 711 549 l 1
 647 145 l 1
 674 116 739 98 805 84 c 1
 795 0 l 1
 168 0 l 1
EndSplineSet
EndChar

StartChar: Ycircumflex
Encoding: 374 374 150
Width: 1146
GlyphClass: 2
Flags: HMW
HStem: 0 84<168 178 178 178 178 795> 1284 82<109 682 670 670 1296 1296>
VStem: 109 1198<1284 1366>
AnchorPoint: "Anchor-3" 768 1366 basechar 0
LayerCount: 2
Fore
SplineSet
543 1481 m 1
 483 1554 l 1
 705 1767 l 2
 754 1814 791 1831 834 1831 c 0
 879 1831 909 1812 942 1763 c 2
 1092 1544 l 1
 1022 1481 l 1
 807 1638 l 1
 543 1481 l 1
168 0 m 1
 178 84 l 1
 246 94 303 112 346 145 c 1
 412 551 l 1
 227 1192 l 2
 213 1239 162 1276 109 1284 c 1
 117 1366 l 1
 682 1366 l 1
 670 1284 l 1
 617 1280 571 1266 526 1239 c 1
 670 731 l 1
 997 1223 l 1
 962 1256 902 1276 834 1284 c 1
 844 1366 l 1
 1307 1366 l 1
 1296 1284 l 1
 1230 1278 1186 1260 1157 1217 c 2
 711 549 l 1
 647 145 l 1
 674 116 739 98 805 84 c 1
 795 0 l 1
 168 0 l 1
EndSplineSet
EndChar

StartChar: Ydieresis
Encoding: 376 376 151
Width: 1146
GlyphClass: 2
Flags: HMW
HStem: 0 84<168 178 178 178 178 795> 1284 82<109 682 670 670 1296 1296> 1516 272<613 669 947 1002>
VStem: 510 262<1628 1677> 844 262<1628 1677>
AnchorPoint: "Anchor-3" 768 1366 basechar 0
LayerCount: 2
Fore
SplineSet
625 1516 m 0
 553 1516 510 1558 510 1626 c 0
 510 1728 569 1788 657 1788 c 0
 729 1788 772 1745 772 1679 c 0
 772 1577 713 1516 625 1516 c 0
958 1516 m 0
 886 1516 844 1558 844 1626 c 0
 844 1728 903 1788 991 1788 c 0
 1063 1788 1106 1745 1106 1679 c 0
 1106 1577 1046 1516 958 1516 c 0
168 0 m 1
 178 84 l 1
 246 94 303 112 346 145 c 1
 412 551 l 1
 227 1192 l 2
 213 1239 162 1276 109 1284 c 1
 117 1366 l 1
 682 1366 l 1
 670 1284 l 1
 617 1280 571 1266 526 1239 c 1
 670 731 l 1
 997 1223 l 1
 962 1256 902 1276 834 1284 c 1
 844 1366 l 1
 1307 1366 l 1
 1296 1284 l 1
 1230 1278 1186 1260 1157 1217 c 2
 711 549 l 1
 647 145 l 1
 674 116 739 98 805 84 c 1
 795 0 l 1
 168 0 l 1
EndSplineSet
EndChar

StartChar: Ygrave
Encoding: 7922 7922 152
Width: 1146
GlyphClass: 2
Flags: HMW
HStem: 0 84<168 178 178 178 178 795> 1284 82<109 682 670 670 1296 1296>
VStem: 109 1198<1284 1366>
AnchorPoint: "Anchor-3" 768 1366 basechar 0
LayerCount: 2
Fore
SplineSet
879 1460 m 1
 610 1632 l 2
 559 1665 539 1704 539 1741 c 0
 539 1792 580 1835 633 1835 c 0
 668 1835 709 1816 748 1769 c 2
 940 1530 l 1
 879 1460 l 1
168 0 m 1
 178 84 l 1
 246 94 303 112 346 145 c 1
 412 551 l 1
 227 1192 l 2
 213 1239 162 1276 109 1284 c 1
 117 1366 l 1
 682 1366 l 1
 670 1284 l 1
 617 1280 571 1266 526 1239 c 1
 670 731 l 1
 997 1223 l 1
 962 1256 902 1276 834 1284 c 1
 844 1366 l 1
 1307 1366 l 1
 1296 1284 l 1
 1230 1278 1186 1260 1157 1217 c 2
 711 549 l 1
 647 145 l 1
 674 116 739 98 805 84 c 1
 795 0 l 1
 168 0 l 1
EndSplineSet
EndChar

StartChar: uni1EF8
Encoding: 7928 7928 153
Width: 1146
GlyphClass: 2
Flags: HMW
HStem: 0 84<168 178 178 178 178 795> 1284 82<109 682 670 670 1296 1296> 1507 178<905 967 905 969> 1587 180<664 725>
VStem: 109 1198<1284 1366>
AnchorPoint: "Anchor-3" 768 1366 basechar 0
LayerCount: 2
Fore
SplineSet
553 1509 m 1xd8
 524 1519 478 1544 455 1575 c 1
 527 1690 617 1767 711 1767 c 0xd8
 793 1767 864 1686 946 1686 c 0
 987 1686 1036 1718 1077 1765 c 1
 1106 1755 1153 1731 1176 1702 c 1
 1106 1587 1016 1507 922 1507 c 0xe8
 840 1507 766 1587 684 1587 c 0
 643 1587 596 1558 553 1509 c 1xd8
168 0 m 1xe8
 178 84 l 1
 246 94 303 112 346 145 c 1
 412 551 l 1
 227 1192 l 2
 213 1239 162 1276 109 1284 c 1
 117 1366 l 1
 682 1366 l 1
 670 1284 l 1
 617 1280 571 1266 526 1239 c 1
 670 731 l 1
 997 1223 l 1
 962 1256 902 1276 834 1284 c 1
 844 1366 l 1
 1307 1366 l 1
 1296 1284 l 1
 1230 1278 1186 1260 1157 1217 c 2
 711 549 l 1
 647 145 l 1
 674 116 739 98 805 84 c 1
 795 0 l 1
 168 0 l 1xe8
EndSplineSet
EndChar

StartChar: Zacute
Encoding: 377 377 154
Width: 1112
GlyphClass: 2
Flags: HMW
HStem: -6 147 1229 135<730 776> 1292 72 1331 41G<1149 1149>
VStem: 0 1167 171 159
AnchorPoint: "Anchor-3" 692 1366 basechar 0
LayerCount: 2
Fore
SplineSet
655 1456 m 1xc8
 594 1526 l 1
 786 1765 l 2
 825 1812 866 1831 901 1831 c 0
 954 1831 995 1788 995 1737 c 0
 995 1700 975 1661 924 1628 c 2
 655 1456 l 1xc8
14 -6 m 1
 0 92 l 1
 776 1229 l 1
 684 1229 514 1224 387 1212 c 1
 352 1138 334 1036 330 975 c 1
 314 971 285 969 260 969 c 0
 225 969 189 975 160 983 c 1
 182 1309 l 1
 242 1370 l 1xc4
 387 1368 545 1364 711 1364 c 0xc8
 875 1364 1040 1366 1149 1372 c 1x98
 1167 1292 l 1xa8
 371 141 l 1
 518 137 668 144 770 154 c 1
 823 232 861 349 881 406 c 1
 901 410 931 412 954 412 c 0
 985 412 1022 405 1051 397 c 1
 985 70 l 1
 909 -6 l 1
 741 0 629 0 467 0 c 0
 309 0 172 0 14 -6 c 1
EndSplineSet
EndChar

StartChar: Zcaron
Encoding: 381 381 155
Width: 1112
GlyphClass: 2
Flags: HMW
HStem: -6 147 1229 135<730 776> 1292 72 1331 41G<1149 1149>
VStem: 0 1167 171 159
AnchorPoint: "Anchor-3" 692 1366 basechar 0
LayerCount: 2
Fore
SplineSet
721 1468 m 0xc8
 680 1468 643 1485 608 1532 c 2
 455 1743 l 1
 526 1819 l 1
 745 1669 l 1
 1014 1819 l 1
 1065 1743 l 1
 848 1534 l 2
 803 1491 760 1468 721 1468 c 0xc8
14 -6 m 1
 0 92 l 1
 776 1229 l 1
 684 1229 514 1224 387 1212 c 1
 352 1138 334 1036 330 975 c 1
 314 971 285 969 260 969 c 0
 225 969 189 975 160 983 c 1
 182 1309 l 1
 242 1370 l 1xc4
 387 1368 545 1364 711 1364 c 0xc8
 875 1364 1040 1366 1149 1372 c 1x98
 1167 1292 l 1xa8
 371 141 l 1
 518 137 668 144 770 154 c 1
 823 232 861 349 881 406 c 1
 901 410 931 412 954 412 c 0
 985 412 1022 405 1051 397 c 1
 985 70 l 1
 909 -6 l 1
 741 0 629 0 467 0 c 0
 309 0 172 0 14 -6 c 1
EndSplineSet
EndChar

StartChar: Zdotaccent
Encoding: 379 379 156
Width: 1112
GlyphClass: 2
Flags: HMW
HStem: -6 147 1229 135<730 776> 1292 72 1331 41G<1149 1149> 1511 287<705 770>
VStem: 171 159 586 303<1628 1681>
AnchorPoint: "Anchor-3" 692 1366 basechar 0
LayerCount: 2
Fore
SplineSet
719 1511 m 0xce
 641 1511 586 1552 586 1630 c 0
 586 1732 654 1798 756 1798 c 0
 838 1798 889 1753 889 1679 c 0
 889 1577 821 1511 719 1511 c 0xce
14 -6 m 1
 0 92 l 1
 776 1229 l 1
 684 1229 514 1224 387 1212 c 1
 352 1138 334 1036 330 975 c 1
 314 971 285 969 260 969 c 0
 225 969 189 975 160 983 c 1
 182 1309 l 1
 242 1370 l 1
 387 1368 545 1364 711 1364 c 0xce
 875 1364 1040 1366 1149 1372 c 1x9e
 1167 1292 l 1xae
 371 141 l 1
 518 137 668 144 770 154 c 1
 823 232 861 349 881 406 c 1
 901 410 931 412 954 412 c 0
 985 412 1022 405 1051 397 c 1
 985 70 l 1
 909 -6 l 1
 741 0 629 0 467 0 c 0
 309 0 172 0 14 -6 c 1
EndSplineSet
EndChar

StartChar: aacute
Encoding: 225 225 157
Width: 1155
GlyphClass: 2
Flags: HMW
HStem: -23 125<445 451> -12 43G<763 882> -12 154<763 999> 907 100<583 658 442 685> 965 41G<969 1017>
VStem: 63 295<266 538 266 551>
AnchorPoint: "Anchor-3" 664 991 basechar 0
AnchorPoint: "Anchor-2" 1014 0 basechar 0
LayerCount: 2
Fore
SplineSet
629 1104 m 1x94
 567 1174 l 1
 760 1413 l 2
 799 1460 839 1479 874 1479 c 0
 927 1479 969 1435 969 1384 c 0
 969 1347 948 1309 897 1276 c 2
 629 1104 l 1x94
389 -23 m 0
 219 -23 63 100 63 356 c 0
 63 745 265 1008 621 1008 c 0
 697 1008 764 992 834 967 c 1
 877 992 932 1006 1006 1006 c 0x94
 1029 1006 1051 1003 1071 1001 c 0
 1071 999 944 235 944 182 c 0
 944 155 956 141 987 141 c 0
 1012 141 1050 152 1083 172 c 1x2c
 1110 94 l 1
 1059 61 944 -12 819 -12 c 0x54
 706 -12 655 47 655 115 c 1
 596 31 512 -23 389 -23 c 0
481 102 m 0
 581 102 653 240 700 510 c 2
 766 889 l 1
 733 901 703 907 668 907 c 0
 498 907 358 725 358 350 c 0
 358 182 409 102 481 102 c 0
EndSplineSet
EndChar

StartChar: abreve
Encoding: 259 259 158
Width: 1155
GlyphClass: 2
Flags: HMW
HStem: -23 125<445 451> -12 43G<763 882> -12 154<763 999> 907 100<583 658 442 685> 965 41G<969 1017> 1126 160<663 759 663 768>
VStem: 63 295<266 538 266 551> 434 129
AnchorPoint: "Anchor-3" 664 991 basechar 0
AnchorPoint: "Anchor-2" 1014 0 basechar 0
LayerCount: 2
Fore
SplineSet
686 1126 m 0x97
 530 1126 424 1221 434 1393 c 1
 459 1420 520 1433 563 1427 c 1
 563 1337 615 1286 711 1286 c 0
 807 1286 874 1337 903 1427 c 1
 960 1427 987 1421 1022 1407 c 1
 979 1237 850 1126 686 1126 c 0x97
389 -23 m 0
 219 -23 63 100 63 356 c 0
 63 745 265 1008 621 1008 c 0
 697 1008 764 992 834 967 c 1
 877 992 932 1006 1006 1006 c 0x97
 1029 1006 1051 1003 1071 1001 c 0
 1071 999 944 235 944 182 c 0
 944 155 956 141 987 141 c 0
 1012 141 1050 152 1083 172 c 1x2f
 1110 94 l 1
 1059 61 944 -12 819 -12 c 0x57
 706 -12 655 47 655 115 c 1
 596 31 512 -23 389 -23 c 0
481 102 m 0
 581 102 653 240 700 510 c 2
 766 889 l 1
 733 901 703 907 668 907 c 0
 498 907 358 725 358 350 c 0
 358 182 409 102 481 102 c 0
EndSplineSet
EndChar

StartChar: acircumflex
Encoding: 226 226 159
Width: 1155
GlyphClass: 2
Flags: HMW
HStem: -23 125<445 451> -12 43G<763 882> -12 154<763 999> 907 100<583 658 442 685> 965 41G<969 1017>
VStem: 63 295<266 538 266 551>
AnchorPoint: "Anchor-3" 664 991 basechar 0
AnchorPoint: "Anchor-2" 1014 0 basechar 0
LayerCount: 2
Fore
SplineSet
442 1108 m 1x94
 383 1182 l 1
 604 1395 l 2
 653 1442 690 1458 733 1458 c 0
 778 1458 809 1440 842 1391 c 2
 991 1171 l 1
 922 1108 l 1
 707 1266 l 1
 442 1108 l 1x94
389 -23 m 0
 219 -23 63 100 63 356 c 0
 63 745 265 1008 621 1008 c 0
 697 1008 764 992 834 967 c 1
 877 992 932 1006 1006 1006 c 0x94
 1029 1006 1051 1003 1071 1001 c 0
 1071 999 944 235 944 182 c 0
 944 155 956 141 987 141 c 0
 1012 141 1050 152 1083 172 c 1x2c
 1110 94 l 1
 1059 61 944 -12 819 -12 c 0x54
 706 -12 655 47 655 115 c 1
 596 31 512 -23 389 -23 c 0
481 102 m 0
 581 102 653 240 700 510 c 2
 766 889 l 1
 733 901 703 907 668 907 c 0
 498 907 358 725 358 350 c 0
 358 182 409 102 481 102 c 0
EndSplineSet
EndChar

StartChar: adieresis
Encoding: 228 228 160
Width: 1155
GlyphClass: 2
Flags: HMW
HStem: -23 125<445 451> -12 43G<763 882> -12 154<763 999> 907 100<583 658 442 685> 965 41G<969 1017> 1145 272<513 568 847 902>
VStem: 63 295<266 538 266 551> 410 262<1257 1307> 743 262<1257 1307>
AnchorPoint: "Anchor-3" 664 991 basechar 0
AnchorPoint: "Anchor-2" 1014 0 basechar 0
LayerCount: 2
Fore
SplineSet
524 1145 m 0x9780
 452 1145 410 1187 410 1255 c 0
 410 1357 469 1417 557 1417 c 0
 629 1417 672 1375 672 1309 c 0
 672 1207 612 1145 524 1145 c 0x9780
858 1145 m 0
 786 1145 743 1187 743 1255 c 0
 743 1357 803 1417 891 1417 c 0
 963 1417 1006 1375 1006 1309 c 0
 1006 1207 946 1145 858 1145 c 0
389 -23 m 0x96
 219 -23 63 100 63 356 c 0
 63 745 265 1008 621 1008 c 0
 697 1008 764 992 834 967 c 1
 877 992 932 1006 1006 1006 c 0x96
 1029 1006 1051 1003 1071 1001 c 0
 1071 999 944 235 944 182 c 0
 944 155 956 141 987 141 c 0
 1012 141 1050 152 1083 172 c 1x2e
 1110 94 l 1
 1059 61 944 -12 819 -12 c 0x56
 706 -12 655 47 655 115 c 1
 596 31 512 -23 389 -23 c 0x96
481 102 m 0
 581 102 653 240 700 510 c 2
 766 889 l 1
 733 901 703 907 668 907 c 0
 498 907 358 725 358 350 c 0
 358 182 409 102 481 102 c 0
EndSplineSet
EndChar

StartChar: agrave
Encoding: 224 224 161
Width: 1155
GlyphClass: 2
Flags: HMW
HStem: -23 125<445 451> -12 43G<763 882> -12 154<763 999> 907 100<583 658 442 685> 965 41G<969 1017>
VStem: 63 295<266 538 266 551>
AnchorPoint: "Anchor-3" 664 991 basechar 0
AnchorPoint: "Anchor-2" 1014 0 basechar 0
LayerCount: 2
Fore
SplineSet
786 1104 m 1x94
 518 1276 l 2
 467 1309 446 1347 446 1384 c 0
 446 1435 488 1479 541 1479 c 0
 576 1479 616 1460 655 1413 c 2
 848 1174 l 1
 786 1104 l 1x94
389 -23 m 0
 219 -23 63 100 63 356 c 0
 63 745 265 1008 621 1008 c 0
 697 1008 764 992 834 967 c 1
 877 992 932 1006 1006 1006 c 0x94
 1029 1006 1051 1003 1071 1001 c 0
 1071 999 944 235 944 182 c 0
 944 155 956 141 987 141 c 0
 1012 141 1050 152 1083 172 c 1x2c
 1110 94 l 1
 1059 61 944 -12 819 -12 c 0x54
 706 -12 655 47 655 115 c 1
 596 31 512 -23 389 -23 c 0
481 102 m 0
 581 102 653 240 700 510 c 2
 766 889 l 1
 733 901 703 907 668 907 c 0
 498 907 358 725 358 350 c 0
 358 182 409 102 481 102 c 0
EndSplineSet
EndChar

StartChar: amacron
Encoding: 257 257 162
Width: 1155
GlyphClass: 2
Flags: HMW
HStem: -23 125<445 451> -12 43G<763 882> -12 154<763 999> 907 100<583 658 442 685> 965 41G<969 1017> 1184 139<375 1034 397 1012>
VStem: 63 295<266 538 266 551>
AnchorPoint: "Anchor-3" 664 991 basechar 0
AnchorPoint: "Anchor-2" 1014 0 basechar 0
LayerCount: 2
Fore
SplineSet
375 1184 m 1x96
 397 1323 l 1
 1034 1323 l 1
 1012 1184 l 1
 375 1184 l 1x96
389 -23 m 0
 219 -23 63 100 63 356 c 0
 63 745 265 1008 621 1008 c 0
 697 1008 764 992 834 967 c 1
 877 992 932 1006 1006 1006 c 0x96
 1029 1006 1051 1003 1071 1001 c 0
 1071 999 944 235 944 182 c 0
 944 155 956 141 987 141 c 0
 1012 141 1050 152 1083 172 c 1x2e
 1110 94 l 1
 1059 61 944 -12 819 -12 c 0x56
 706 -12 655 47 655 115 c 1
 596 31 512 -23 389 -23 c 0
481 102 m 0
 581 102 653 240 700 510 c 2
 766 889 l 1
 733 901 703 907 668 907 c 0
 498 907 358 725 358 350 c 0
 358 182 409 102 481 102 c 0
EndSplineSet
EndChar

StartChar: aogonek
Encoding: 261 261 163
Width: 1155
GlyphClass: 2
Flags: HMW
HStem: -418 121<709 847> -23 125<445 451> -8 43G 907 100<583 658 442 685> 965 41G<969 1017>
VStem: 63 295<266 538 266 551> 592 174<-252 -242>
AnchorPoint: "Anchor-3" 664 991 basechar 0
AnchorPoint: "Anchor-2" 1014 0 basechar 0
LayerCount: 2
Fore
SplineSet
1008 35 m 0xd4
 945 4 881 -39 836 -88 c 0
 793 -133 766 -182 766 -229 c 0
 766 -274 794 -297 829 -297 c 0
 864 -297 901 -275 932 -250 c 1
 971 -322 l 1
 912 -385 828 -418 752 -418 c 0
 666 -418 592 -366 592 -276 c 0
 592 -206 637 -147 698 -86 c 0
 727 -57 756 -33 776 -8 c 1xb6
 692 4 655 58 655 115 c 1
 596 31 512 -23 389 -23 c 0
 219 -23 63 100 63 356 c 0
 63 745 265 1008 621 1008 c 0
 697 1008 764 992 834 967 c 1
 877 992 932 1006 1006 1006 c 0xd6
 1029 1006 1051 1003 1071 1001 c 0xcc
 1071 999 944 235 944 182 c 0
 944 155 956 141 987 141 c 0
 1012 141 1050 152 1083 172 c 1
 1110 94 l 1
 1087 80 1051 58 1008 35 c 0xd4
700 510 m 2
 766 889 l 1
 733 901 703 907 668 907 c 0
 498 907 358 725 358 350 c 0
 358 182 409 102 481 102 c 0
 581 102 653 240 700 510 c 2
EndSplineSet
EndChar

StartChar: aring
Encoding: 229 229 164
Width: 1155
GlyphClass: 2
Flags: HMW
HStem: -23 125<445 451> -12 43G<763 882> -12 154<763 999> 907 100<583 658 442 685> 965 41G<969 1017> 1085 94<670 720 670 755> 1403 94<699 753>
VStem: 63 295<266 538 266 551> 483 145<1239 1308 1239 1325> 795 145<1272 1340>
AnchorPoint: "Anchor-3" 664 991 basechar 0
AnchorPoint: "Anchor-2" 1014 0 basechar 0
LayerCount: 2
Fore
SplineSet
678 1085 m 0x97c0
 563 1085 483 1149 483 1262 c 0
 483 1389 589 1497 743 1497 c 0
 862 1497 940 1421 940 1319 c 0
 940 1190 832 1085 678 1085 c 0x97c0
692 1180 m 0
 747 1180 795 1227 795 1317 c 0
 795 1364 776 1403 729 1403 c 0
 670 1403 629 1354 629 1262 c 0
 629 1217 647 1180 692 1180 c 0
389 -23 m 0
 219 -23 63 100 63 356 c 0
 63 745 265 1008 621 1008 c 0
 697 1008 764 992 834 967 c 1
 877 992 932 1006 1006 1006 c 0x97c0
 1029 1006 1051 1003 1071 1001 c 0
 1071 999 944 235 944 182 c 0
 944 155 956 141 987 141 c 0
 1012 141 1050 152 1083 172 c 1x2fc0
 1110 94 l 1
 1059 61 944 -12 819 -12 c 0x57c0
 706 -12 655 47 655 115 c 1
 596 31 512 -23 389 -23 c 0
481 102 m 0
 581 102 653 240 700 510 c 2
 766 889 l 1
 733 901 703 907 668 907 c 0
 498 907 358 725 358 350 c 0
 358 182 409 102 481 102 c 0
EndSplineSet
EndChar

StartChar: aringacute
Encoding: 507 507 165
Width: 1155
GlyphClass: 2
Flags: HMW
HStem: -23 125<445 451> -12 43G<763 882> -12 154<763 999> 907 100<583 658 442 685> 965 41G<969 1017> 1085 94<670 720 670 755> 1403 94<699 753>
VStem: 63 295<266 538 266 551> 483 145<1239 1308 1239 1325> 795 145<1272 1340>
AnchorPoint: "Anchor-3" 664 991 basechar 0
AnchorPoint: "Anchor-2" 1014 0 basechar 0
LayerCount: 2
Fore
SplineSet
666 1509 m 1x97c0
 618 1587 l 1
 840 1782 l 2
 885 1819 928 1829 961 1825 c 0
 1010 1815 1042 1767 1034 1718 c 0
 1028 1683 1001 1651 948 1628 c 2
 666 1509 l 1x97c0
678 1085 m 0
 563 1085 483 1149 483 1262 c 0
 483 1389 589 1497 743 1497 c 0
 862 1497 940 1421 940 1319 c 0
 940 1190 832 1085 678 1085 c 0
692 1180 m 0
 747 1180 795 1227 795 1317 c 0
 795 1364 776 1403 729 1403 c 0
 670 1403 629 1354 629 1262 c 0
 629 1217 647 1180 692 1180 c 0
389 -23 m 0
 219 -23 63 100 63 356 c 0
 63 745 265 1008 621 1008 c 0
 697 1008 764 992 834 967 c 1
 877 992 932 1006 1006 1006 c 0x97c0
 1029 1006 1051 1003 1071 1001 c 0
 1071 999 944 235 944 182 c 0
 944 155 956 141 987 141 c 0
 1012 141 1050 152 1083 172 c 1x2fc0
 1110 94 l 1
 1059 61 944 -12 819 -12 c 0x57c0
 706 -12 655 47 655 115 c 1
 596 31 512 -23 389 -23 c 0
481 102 m 0
 581 102 653 240 700 510 c 2
 766 889 l 1
 733 901 703 907 668 907 c 0
 498 907 358 725 358 350 c 0
 358 182 409 102 481 102 c 0
EndSplineSet
EndChar

StartChar: atilde
Encoding: 227 227 166
Width: 1155
GlyphClass: 2
Flags: HMW
HStem: -23 125<445 451> -12 43G<763 882> -12 154<763 999> 907 100<583 658 442 685> 965 41G<969 1017> 1137 178<768 829 768 831> 1217 180<526 588>
VStem: 63 295<266 538 266 551>
AnchorPoint: "Anchor-3" 664 991 basechar 0
AnchorPoint: "Anchor-2" 1014 0 basechar 0
LayerCount: 2
Fore
SplineSet
416 1139 m 1x93
 387 1149 340 1173 317 1204 c 1
 389 1319 479 1397 573 1397 c 0x93
 655 1397 727 1315 809 1315 c 0
 850 1315 899 1348 940 1395 c 1
 969 1385 1015 1360 1038 1331 c 1
 968 1216 878 1137 784 1137 c 0x95
 702 1137 629 1217 547 1217 c 0
 506 1217 459 1188 416 1139 c 1x93
389 -23 m 0x95
 219 -23 63 100 63 356 c 0
 63 745 265 1008 621 1008 c 0
 697 1008 764 992 834 967 c 1
 877 992 932 1006 1006 1006 c 0x95
 1029 1006 1051 1003 1071 1001 c 0
 1071 999 944 235 944 182 c 0
 944 155 956 141 987 141 c 0
 1012 141 1050 152 1083 172 c 1x2d
 1110 94 l 1
 1059 61 944 -12 819 -12 c 0x55
 706 -12 655 47 655 115 c 1
 596 31 512 -23 389 -23 c 0x95
481 102 m 0
 581 102 653 240 700 510 c 2
 766 889 l 1
 733 901 703 907 668 907 c 0
 498 907 358 725 358 350 c 0
 358 182 409 102 481 102 c 0
EndSplineSet
EndChar

StartChar: ae
Encoding: 230 230 167
Width: 1538
GlyphClass: 2
Flags: HMW
HStem: -14 133<365 387> -14 141<1069 1123> 430 119 440 119 907 100<1159 1224> 918 90<514 591>
VStem: 20 274<189 282 189 303> 150 264<792 821> 1284 254<732 842>
AnchorPoint: "Anchor-3" 893 991 basechar 0
LayerCount: 2
Fore
SplineSet
297 -14 m 0x6680
 119 -14 20 64 20 211 c 0x5680
 20 395 178 533 475 553 c 2
 657 565 l 1
 676 674 l 2
 684 721 688 760 688 793 c 0
 688 881 627 918 555 918 c 0
 473 918 414 864 414 807 c 0
 414 776 426 755 446 737 c 1
 430 667 353 627 283 627 c 0
 203 627 150 674 150 748 c 0x5580
 150 895 309 1008 565 1008 c 0
 723 1008 824 973 879 907 c 1
 971 970 1088 1008 1231 1008 c 0
 1436 1008 1538 913 1538 786 c 0
 1538 563 1297 430 961 430 c 2
 938 430 l 1
 932 393 930 359 930 328 c 0
 930 187 1011 127 1126 127 c 0
 1232 127 1356 174 1436 240 c 1
 1503 160 l 1
 1370 47 1201 -14 1047 -14 c 0
 916 -14 797 31 723 127 c 1
 621 51 477 -14 297 -14 c 0x6680
956 549 m 1
 1097 557 1284 653 1284 811 c 0
 1284 872 1253 907 1194 907 c 0x6a80
 1094 907 1001 776 956 549 c 1
397 119 m 0x9680
 458 119 526 145 606 211 c 1
 641 444 l 1
 539 436 l 2
 375 424 295 340 295 223 c 0
 295 155 331 119 397 119 c 0x9680
EndSplineSet
EndChar

StartChar: aeacute
Encoding: 509 509 168
Width: 1538
GlyphClass: 2
Flags: HMW
HStem: -14 133<365 387> -14 141<1069 1123> 430 119 440 119 907 100<1159 1224> 918 90<514 591>
VStem: 20 274<189 282 189 303> 150 264<792 821> 1284 254<732 842>
AnchorPoint: "Anchor-3" 893 991 basechar 0
LayerCount: 2
Fore
SplineSet
858 1104 m 1x6680
 797 1174 l 1
 989 1413 l 2
 1028 1460 1069 1479 1104 1479 c 0
 1157 1479 1198 1435 1198 1384 c 0
 1198 1347 1177 1309 1126 1276 c 2
 858 1104 l 1x6680
297 -14 m 0
 119 -14 20 64 20 211 c 0x5680
 20 395 178 533 475 553 c 2
 657 565 l 1
 676 674 l 2
 684 721 688 760 688 793 c 0
 688 881 627 918 555 918 c 0
 473 918 414 864 414 807 c 0
 414 776 426 755 446 737 c 1
 430 667 353 627 283 627 c 0
 203 627 150 674 150 748 c 0x5580
 150 895 309 1008 565 1008 c 0
 723 1008 824 973 879 907 c 1
 971 970 1088 1008 1231 1008 c 0
 1436 1008 1538 913 1538 786 c 0
 1538 563 1297 430 961 430 c 2
 938 430 l 1
 932 393 930 359 930 328 c 0
 930 187 1011 127 1126 127 c 0
 1232 127 1356 174 1436 240 c 1
 1503 160 l 1
 1370 47 1201 -14 1047 -14 c 0
 916 -14 797 31 723 127 c 1
 621 51 477 -14 297 -14 c 0
956 549 m 1
 1097 557 1284 653 1284 811 c 0
 1284 872 1253 907 1194 907 c 0x6a80
 1094 907 1001 776 956 549 c 1
397 119 m 0x9680
 458 119 526 145 606 211 c 1
 641 444 l 1
 539 436 l 2
 375 424 295 340 295 223 c 0
 295 155 331 119 397 119 c 0x9680
EndSplineSet
EndChar

StartChar: cacute
Encoding: 263 263 169
Width: 956
GlyphClass: 2
Flags: HMW
HStem: -14 119<488 554> 907 94<544 635>
VStem: 66 299<272 545 272 567> 696 270<816 852>
AnchorPoint: "Anchor-5" 483 0 basechar 0
AnchorPoint: "Anchor-3" 596 991 basechar 0
LayerCount: 2
Fore
SplineSet
561 1104 m 1
 500 1174 l 1
 692 1413 l 2
 731 1460 772 1479 807 1479 c 0
 860 1479 901 1435 901 1384 c 0
 901 1347 880 1309 829 1276 c 2
 561 1104 l 1
483 -14 m 0
 213 -14 66 119 66 387 c 0
 66 747 266 1001 641 1001 c 0
 874 1001 967 909 967 811 c 0
 967 729 893 651 782 651 c 0
 719 651 665 688 657 737 c 1
 684 768 696 802 696 829 c 0
 696 874 661 907 608 907 c 0
 479 907 365 727 365 362 c 0
 365 182 424 104 553 104 c 0
 639 104 731 141 819 213 c 1
 883 139 l 1
 774 43 624 -14 483 -14 c 0
EndSplineSet
EndChar

StartChar: ccaron
Encoding: 269 269 170
Width: 956
GlyphClass: 2
Flags: HMW
HStem: -14 119<488 554> 907 94<544 635> 1348 41G<348 348 958 958>
VStem: 66 299<272 545 272 567> 696 270<816 852>
AnchorPoint: "Anchor-5" 483 0 basechar 0
AnchorPoint: "Anchor-3" 596 991 basechar 0
LayerCount: 2
Fore
SplineSet
614 1114 m 0
 573 1114 537 1131 502 1178 c 2
 348 1389 l 1
 420 1464 l 1
 639 1315 l 1
 907 1464 l 1
 958 1389 l 1
 741 1180 l 2
 696 1137 653 1114 614 1114 c 0
483 -14 m 0
 213 -14 66 119 66 387 c 0
 66 747 266 1001 641 1001 c 0
 874 1001 967 909 967 811 c 0
 967 729 893 651 782 651 c 0
 719 651 665 688 657 737 c 1
 684 768 696 802 696 829 c 0
 696 874 661 907 608 907 c 0
 479 907 365 727 365 362 c 0
 365 182 424 104 553 104 c 0
 639 104 731 141 819 213 c 1
 883 139 l 1
 774 43 624 -14 483 -14 c 0
EndSplineSet
EndChar

StartChar: ccedilla
Encoding: 231 231 171
Width: 956
GlyphClass: 2
Flags: HMW
HStem: -430 86<366 407 366 439> -12 117<526 526> 907 94<544 635>
VStem: 66 299<272 545 272 567> 182 141<-296 -260 -296 -259> 467 156<-271 -210> 696 270<816 852>
AnchorPoint: "Anchor-5" 483 0 basechar 0
AnchorPoint: "Anchor-3" 596 991 basechar 0
LayerCount: 2
Fore
SplineSet
782 651 m 0xf6
 719 651 665 688 657 737 c 1
 684 768 696 802 696 829 c 0
 696 874 661 907 608 907 c 0
 479 907 365 727 365 362 c 0
 365 182 424 104 553 104 c 0xf6
 639 104 731 141 819 213 c 1
 883 139 l 1
 785 53 653 -2 526 -12 c 1
 504 -80 l 1
 576 -103 623 -137 623 -215 c 0
 623 -336 508 -430 371 -430 c 0
 234 -430 182 -352 182 -291 c 0
 182 -228 225 -178 293 -178 c 0
 311 -178 327 -183 354 -197 c 1
 336 -215 324 -243 324 -276 c 0xee
 324 -315 348 -344 383 -344 c 0
 430 -344 467 -303 467 -240 c 0
 467 -181 419 -156 360 -150 c 1
 326 -100 l 1
 416 -10 l 1
 189 10 66 143 66 387 c 0
 66 747 266 1001 641 1001 c 0
 874 1001 967 909 967 811 c 0
 967 729 893 651 782 651 c 0xf6
EndSplineSet
EndChar

StartChar: ccircumflex
Encoding: 265 265 172
Width: 956
GlyphClass: 2
Flags: HMW
HStem: -14 119<488 554> 907 94<544 635>
VStem: 66 299<272 545 272 567> 696 270<816 852>
AnchorPoint: "Anchor-5" 483 0 basechar 0
AnchorPoint: "Anchor-3" 596 991 basechar 0
LayerCount: 2
Fore
SplineSet
375 1108 m 1
 315 1182 l 1
 537 1395 l 2
 586 1442 623 1458 666 1458 c 0
 711 1458 741 1440 774 1391 c 2
 924 1171 l 1
 854 1108 l 1
 639 1266 l 1
 375 1108 l 1
483 -14 m 0
 213 -14 66 119 66 387 c 0
 66 747 266 1001 641 1001 c 0
 874 1001 967 909 967 811 c 0
 967 729 893 651 782 651 c 0
 719 651 665 688 657 737 c 1
 684 768 696 802 696 829 c 0
 696 874 661 907 608 907 c 0
 479 907 365 727 365 362 c 0
 365 182 424 104 553 104 c 0
 639 104 731 141 819 213 c 1
 883 139 l 1
 774 43 624 -14 483 -14 c 0
EndSplineSet
EndChar

StartChar: cdotaccent
Encoding: 267 267 173
Width: 956
GlyphClass: 2
Flags: HMW
HStem: -14 119<488 554> 907 94<544 635> 1147 287<612 678>
VStem: 66 299<272 545 272 567> 494 303<1264 1317> 696 270<816 852>
AnchorPoint: "Anchor-5" 483 0 basechar 0
AnchorPoint: "Anchor-3" 596 991 basechar 0
LayerCount: 2
Fore
SplineSet
627 1147 m 0xf8
 549 1147 494 1188 494 1266 c 0
 494 1368 562 1434 664 1434 c 0
 746 1434 797 1389 797 1315 c 0
 797 1213 729 1147 627 1147 c 0xf8
483 -14 m 0
 213 -14 66 119 66 387 c 0
 66 747 266 1001 641 1001 c 0
 874 1001 967 909 967 811 c 0
 967 729 893 651 782 651 c 0
 719 651 665 688 657 737 c 1
 684 768 696 802 696 829 c 0xf4
 696 874 661 907 608 907 c 0
 479 907 365 727 365 362 c 0
 365 182 424 104 553 104 c 0
 639 104 731 141 819 213 c 1
 883 139 l 1
 774 43 624 -14 483 -14 c 0
EndSplineSet
EndChar

StartChar: dcaron
Encoding: 271 271 174
Width: 1357
GlyphClass: 1
Flags: HMW
HStem: -14 123<275 548> 897 111<575 658 454 692> 1350 41G<1339 1396> 1397 29
VStem: 63 297<252 517 252 566> 1292 182<1237 1266>
LayerCount: 2
Fore
SplineSet
377 -14 m 0
 174 -14 63 112 63 352 c 0
 63 780 292 1008 614 1008 c 0
 702 1008 754 989 809 958 c 1
 815 999 840 1153 840 1198 c 0
 840 1247 815 1276 758 1276 c 0
 746 1276 731 1274 717 1272 c 1
 711 1352 l 1xe8
 805 1389 985 1425 1110 1425 c 1
 1167 1397 l 1xd8
 1153 1315 979 221 979 186 c 0
 979 155 995 141 1024 141 c 0
 1049 141 1081 154 1118 174 c 1
 1145 100 l 1
 1092 47 954 -10 858 -10 c 0
 737 -10 690 50 686 150 c 1
 618 33 490 -14 377 -14 c 0
1321 975 m 1xec
 1231 1010 l 1
 1274 1121 1292 1196 1292 1245 c 0
 1292 1286 1280 1318 1253 1341 c 1
 1276 1372 1315 1391 1364 1391 c 0
 1427 1391 1475 1339 1475 1280 c 0
 1475 1194 1384 1075 1321 975 c 1xec
487 109 m 0
 608 109 694 233 733 479 c 2
 793 858 l 1
 768 878 719 897 666 897 c 0
 486 897 360 701 360 334 c 0
 360 170 409 109 487 109 c 0
EndSplineSet
EndChar

StartChar: dcroat
Encoding: 273 273 175
Width: 1167
GlyphClass: 1
Flags: HMW
HStem: -14 123<275 548> 897 111<575 658 454 692> 1073 119<635 825 612 840 1135 1249> 1397 29
VStem: 63 297<252 517 252 566> 840 295<1192 1198 1192 1223>
LayerCount: 2
Fore
SplineSet
1249 1073 m 1
 1116 1073 l 1
 1059 721 979 211 979 186 c 0
 979 155 995 141 1024 141 c 0
 1049 141 1081 154 1118 174 c 1
 1145 100 l 1
 1092 47 954 -10 858 -10 c 0
 737 -10 690 50 686 150 c 1
 618 33 490 -14 377 -14 c 0
 174 -14 63 112 63 352 c 0
 63 780 292 1008 614 1008 c 0
 702 1008 754 989 809 958 c 1
 811 978 819 1026 825 1073 c 1
 612 1073 l 1
 635 1192 l 1
 840 1192 l 1
 840 1198 l 2
 840 1247 815 1276 758 1276 c 0
 746 1276 731 1274 717 1272 c 1
 711 1352 l 1
 805 1389 985 1425 1110 1425 c 1
 1167 1397 l 1
 1163 1377 1151 1298 1135 1192 c 1
 1272 1192 l 1
 1249 1073 l 1
733 479 m 2
 793 858 l 1
 768 878 719 897 666 897 c 0
 486 897 360 701 360 334 c 0
 360 170 409 109 487 109 c 0
 608 109 694 233 733 479 c 2
EndSplineSet
EndChar

StartChar: eacute
Encoding: 233 233 176
Width: 999
GlyphClass: 2
Flags: HMW
HStem: -14 141<481 544> 430 119 907 100<553 660>
VStem: 63 285<263 341 263 565> 731 254<731 833>
AnchorPoint: "Anchor-3" 641 991 basechar 0
AnchorPoint: "Anchor-2" 819 0 basechar 0
LayerCount: 2
Fore
SplineSet
606 1104 m 1
 545 1174 l 1
 737 1413 l 2
 776 1460 817 1479 852 1479 c 0
 905 1479 946 1435 946 1384 c 0
 946 1347 925 1309 874 1276 c 2
 606 1104 l 1
465 -14 m 0
 219 -14 63 139 63 385 c 0
 63 745 289 1008 645 1008 c 0
 881 1008 985 914 985 797 c 0
 985 568 751 430 356 430 c 1
 350 385 348 355 348 328 c 0
 348 199 418 127 545 127 c 0
 647 127 770 172 854 240 c 1
 922 160 l 1
 791 49 623 -14 465 -14 c 0
375 549 m 1
 559 555 731 664 731 799 c 0
 731 867 697 907 625 907 c 0
 482 907 418 774 375 549 c 1
EndSplineSet
EndChar

StartChar: ebreve
Encoding: 277 277 177
Width: 999
GlyphClass: 2
Flags: HMW
HStem: -14 141<481 544> 430 119 907 100<553 660> 1126 160<640 736 640 745>
VStem: 63 285<263 341 263 565> 412 129 731 254<731 833>
AnchorPoint: "Anchor-3" 641 991 basechar 0
AnchorPoint: "Anchor-2" 819 0 basechar 0
LayerCount: 2
Fore
SplineSet
664 1126 m 0
 508 1126 402 1221 412 1393 c 1
 437 1420 498 1433 541 1427 c 1
 541 1337 592 1286 688 1286 c 0
 784 1286 852 1337 881 1427 c 1
 938 1427 964 1421 999 1407 c 1
 956 1237 828 1126 664 1126 c 0
465 -14 m 0
 219 -14 63 139 63 385 c 0
 63 745 289 1008 645 1008 c 0
 881 1008 985 914 985 797 c 0
 985 568 751 430 356 430 c 1
 350 385 348 355 348 328 c 0
 348 199 418 127 545 127 c 0
 647 127 770 172 854 240 c 1
 922 160 l 1
 791 49 623 -14 465 -14 c 0
375 549 m 1
 559 555 731 664 731 799 c 0
 731 867 697 907 625 907 c 0
 482 907 418 774 375 549 c 1
EndSplineSet
EndChar

StartChar: ecaron
Encoding: 283 283 178
Width: 999
GlyphClass: 2
Flags: HMW
HStem: -14 141<481 544> 430 119 907 100<553 660> 1348 41G<393 393 1004 1004>
VStem: 63 285<263 341 263 565> 731 254<731 833>
AnchorPoint: "Anchor-3" 641 991 basechar 0
AnchorPoint: "Anchor-2" 819 0 basechar 0
LayerCount: 2
Fore
SplineSet
659 1114 m 0
 618 1114 582 1131 547 1178 c 2
 393 1389 l 1
 465 1464 l 1
 684 1315 l 1
 952 1464 l 1
 1004 1389 l 1
 786 1180 l 2
 741 1137 698 1114 659 1114 c 0
465 -14 m 0
 219 -14 63 139 63 385 c 0
 63 745 289 1008 645 1008 c 0
 881 1008 985 914 985 797 c 0
 985 568 751 430 356 430 c 1
 350 385 348 355 348 328 c 0
 348 199 418 127 545 127 c 0
 647 127 770 172 854 240 c 1
 922 160 l 1
 791 49 623 -14 465 -14 c 0
375 549 m 1
 559 555 731 664 731 799 c 0
 731 867 697 907 625 907 c 0
 482 907 418 774 375 549 c 1
EndSplineSet
EndChar

StartChar: ecircumflex
Encoding: 234 234 179
Width: 999
GlyphClass: 2
Flags: HMW
HStem: -14 141<481 544> 430 119 907 100<553 660>
VStem: 63 285<263 341 263 565> 731 254<731 833>
AnchorPoint: "Anchor-3" 641 991 basechar 0
AnchorPoint: "Anchor-2" 819 0 basechar 0
LayerCount: 2
Fore
SplineSet
420 1108 m 1
 360 1182 l 1
 582 1395 l 2
 631 1442 668 1458 711 1458 c 0
 756 1458 786 1440 819 1391 c 2
 969 1171 l 1
 899 1108 l 1
 684 1266 l 1
 420 1108 l 1
465 -14 m 0
 219 -14 63 139 63 385 c 0
 63 745 289 1008 645 1008 c 0
 881 1008 985 914 985 797 c 0
 985 568 751 430 356 430 c 1
 350 385 348 355 348 328 c 0
 348 199 418 127 545 127 c 0
 647 127 770 172 854 240 c 1
 922 160 l 1
 791 49 623 -14 465 -14 c 0
375 549 m 1
 559 555 731 664 731 799 c 0
 731 867 697 907 625 907 c 0
 482 907 418 774 375 549 c 1
EndSplineSet
EndChar

StartChar: edieresis
Encoding: 235 235 180
Width: 999
GlyphClass: 2
Flags: HMW
HStem: -14 141<481 544> 430 119 907 100<553 660> 1145 272<490 546 824 880>
VStem: 63 285<263 341 263 565> 387 262<1257 1307> 721 262<1257 1307> 731 254<731 833>
AnchorPoint: "Anchor-3" 641 991 basechar 0
AnchorPoint: "Anchor-2" 819 0 basechar 0
LayerCount: 2
Fore
SplineSet
502 1145 m 0xfe
 430 1145 387 1187 387 1255 c 0
 387 1357 447 1417 535 1417 c 0
 607 1417 649 1375 649 1309 c 0
 649 1207 590 1145 502 1145 c 0xfe
836 1145 m 0
 764 1145 721 1187 721 1255 c 0
 721 1357 780 1417 868 1417 c 0
 940 1417 983 1375 983 1309 c 0
 983 1207 924 1145 836 1145 c 0
465 -14 m 0xf9
 219 -14 63 139 63 385 c 0
 63 745 289 1008 645 1008 c 0
 881 1008 985 914 985 797 c 0
 985 568 751 430 356 430 c 1
 350 385 348 355 348 328 c 0
 348 199 418 127 545 127 c 0
 647 127 770 172 854 240 c 1
 922 160 l 1
 791 49 623 -14 465 -14 c 0xf9
375 549 m 1
 559 555 731 664 731 799 c 0
 731 867 697 907 625 907 c 0
 482 907 418 774 375 549 c 1
EndSplineSet
EndChar

StartChar: edotaccent
Encoding: 279 279 181
Width: 999
GlyphClass: 2
Flags: HMW
HStem: -14 141<481 544> 430 119 907 100<553 660> 1147 287<657 723>
VStem: 63 285<263 341 263 565> 539 303<1264 1317> 731 254<731 833>
AnchorPoint: "Anchor-3" 641 991 basechar 0
AnchorPoint: "Anchor-2" 819 0 basechar 0
LayerCount: 2
Fore
SplineSet
672 1147 m 0xfc
 594 1147 539 1188 539 1266 c 0
 539 1368 607 1434 709 1434 c 0
 791 1434 842 1389 842 1315 c 0
 842 1213 774 1147 672 1147 c 0xfc
465 -14 m 0
 219 -14 63 139 63 385 c 0
 63 745 289 1008 645 1008 c 0
 881 1008 985 914 985 797 c 0xfa
 985 568 751 430 356 430 c 1
 350 385 348 355 348 328 c 0
 348 199 418 127 545 127 c 0
 647 127 770 172 854 240 c 1
 922 160 l 1
 791 49 623 -14 465 -14 c 0
375 549 m 1xfa
 559 555 731 664 731 799 c 0
 731 867 697 907 625 907 c 0
 482 907 418 774 375 549 c 1xfa
EndSplineSet
EndChar

StartChar: egrave
Encoding: 232 232 182
Width: 999
GlyphClass: 2
Flags: HMW
HStem: -14 141<481 544> 430 119 907 100<553 660>
VStem: 63 285<263 341 263 565> 731 254<731 833>
AnchorPoint: "Anchor-3" 641 991 basechar 0
AnchorPoint: "Anchor-2" 819 0 basechar 0
LayerCount: 2
Fore
SplineSet
764 1104 m 1
 496 1276 l 2
 445 1309 424 1347 424 1384 c 0
 424 1435 465 1479 518 1479 c 0
 553 1479 594 1460 633 1413 c 2
 825 1174 l 1
 764 1104 l 1
465 -14 m 0
 219 -14 63 139 63 385 c 0
 63 745 289 1008 645 1008 c 0
 881 1008 985 914 985 797 c 0
 985 568 751 430 356 430 c 1
 350 385 348 355 348 328 c 0
 348 199 418 127 545 127 c 0
 647 127 770 172 854 240 c 1
 922 160 l 1
 791 49 623 -14 465 -14 c 0
375 549 m 1
 559 555 731 664 731 799 c 0
 731 867 697 907 625 907 c 0
 482 907 418 774 375 549 c 1
EndSplineSet
EndChar

StartChar: emacron
Encoding: 275 275 183
Width: 999
GlyphClass: 2
Flags: HMW
HStem: -14 141<481 544> 430 119 907 100<553 660> 1184 139<352 1012 375 989>
VStem: 63 285<263 341 263 565> 731 254<731 833>
AnchorPoint: "Anchor-3" 641 991 basechar 0
AnchorPoint: "Anchor-2" 819 0 basechar 0
LayerCount: 2
Fore
SplineSet
352 1184 m 1
 375 1323 l 1
 1012 1323 l 1
 989 1184 l 1
 352 1184 l 1
465 -14 m 0
 219 -14 63 139 63 385 c 0
 63 745 289 1008 645 1008 c 0
 881 1008 985 914 985 797 c 0
 985 568 751 430 356 430 c 1
 350 385 348 355 348 328 c 0
 348 199 418 127 545 127 c 0
 647 127 770 172 854 240 c 1
 922 160 l 1
 791 49 623 -14 465 -14 c 0
375 549 m 1
 559 555 731 664 731 799 c 0
 731 867 697 907 625 907 c 0
 482 907 418 774 375 549 c 1
EndSplineSet
EndChar

StartChar: eogonek
Encoding: 281 281 184
Width: 999
GlyphClass: 2
Flags: HMW
HStem: -418 121<512 650> -14 141<481 485> 430 119 907 100<553 660>
VStem: 63 285<263 341 263 565> 395 174<-252 -242> 731 254<731 833>
AnchorPoint: "Anchor-3" 641 991 basechar 0
AnchorPoint: "Anchor-2" 819 0 basechar 0
LayerCount: 2
Fore
SplineSet
811 82 m 0
 758 41 702 -13 653 -66 c 0
 602 -123 569 -182 569 -229 c 0
 569 -274 598 -297 633 -297 c 0
 668 -297 704 -275 735 -250 c 1
 774 -322 l 1
 715 -385 631 -418 555 -418 c 0
 469 -418 395 -366 395 -276 c 0
 395 -206 439 -147 502 -88 c 0
 535 -55 568 -29 588 -2 c 1xfe
 547 -10 506 -14 465 -14 c 0
 219 -14 63 139 63 385 c 0
 63 745 289 1008 645 1008 c 0
 881 1008 985 914 985 797 c 0
 985 568 751 430 356 430 c 1
 350 385 348 355 348 328 c 0
 348 199 418 127 545 127 c 0
 647 127 770 172 854 240 c 1
 922 160 l 1
 887 131 850 105 811 82 c 0
625 907 m 0
 482 907 418 774 375 549 c 1
 559 555 731 664 731 799 c 0
 731 867 697 907 625 907 c 0
EndSplineSet
EndChar

StartChar: eth
Encoding: 240 240 185
Width: 1116
GlyphClass: 1
Flags: HMW
HStem: -14 115<439 603 439 689> 858 119<529 617 429 659>
VStem: 47 297<265 462 265 549> 778 291<799 827 827 827>
LayerCount: 2
Fore
SplineSet
864 1221 m 1
 989 1104 1069 942 1069 721 c 0
 1069 313 905 -14 473 -14 c 0
 203 -14 47 125 47 375 c 0
 47 723 268 977 590 977 c 0
 645 977 703 968 762 954 c 1
 742 1038 711 1100 668 1149 c 1
 381 1044 l 1
 342 1165 l 1
 559 1241 l 1
 508 1274 447 1302 381 1333 c 1
 446 1434 l 1
 555 1405 658 1366 748 1311 c 1
 987 1403 l 1
 1030 1282 l 1
 864 1221 l 1
778 799 m 2
 778 827 l 1
 725 847 680 858 639 858 c 0
 420 858 344 586 344 338 c 0
 344 193 388 100 492 100 c 0
 715 100 778 512 778 799 c 2
EndSplineSet
EndChar

StartChar: uni1EBD
Encoding: 7869 7869 186
Width: 999
GlyphClass: 2
Flags: HMW
HStem: -14 141<481 544> 430 119 907 100<553 660> 1137 178<745 807 745 809> 1217 180<504 565>
VStem: 63 285<263 341 263 565> 731 254<731 833>
AnchorPoint: "Anchor-3" 641 991 basechar 0
AnchorPoint: "Anchor-2" 819 0 basechar 0
LayerCount: 2
Fore
SplineSet
393 1139 m 1xee
 364 1149 318 1173 295 1204 c 1
 367 1319 457 1397 551 1397 c 0xee
 633 1397 704 1315 786 1315 c 0
 827 1315 877 1348 918 1395 c 1
 947 1385 993 1360 1016 1331 c 1
 946 1216 856 1137 762 1137 c 0xf6
 680 1137 606 1217 524 1217 c 0
 483 1217 436 1188 393 1139 c 1xee
465 -14 m 0xf6
 219 -14 63 139 63 385 c 0
 63 745 289 1008 645 1008 c 0
 881 1008 985 914 985 797 c 0
 985 568 751 430 356 430 c 1
 350 385 348 355 348 328 c 0
 348 199 418 127 545 127 c 0
 647 127 770 172 854 240 c 1
 922 160 l 1
 791 49 623 -14 465 -14 c 0xf6
375 549 m 1
 559 555 731 664 731 799 c 0
 731 867 697 907 625 907 c 0
 482 907 418 774 375 549 c 1
EndSplineSet
EndChar

StartChar: gbreve
Encoding: 287 287 187
Width: 1116
GlyphClass: 2
Flags: HMW
HStem: -449 113<307 445 307 492> -23 125<306 535> 907 100<588 660 443 687> 965 41G<971 1019> 1126 160<642 738 642 748>
VStem: -31 250<-273 -224 -273 -185> 66 295<271 553 271 563> 414 129
AnchorPoint: "Anchor-3" 643 991 basechar 0
LayerCount: 2
Fore
SplineSet
666 1126 m 0xdd
 510 1126 404 1221 414 1393 c 1
 439 1420 500 1433 543 1427 c 1
 543 1337 594 1286 690 1286 c 0
 786 1286 854 1337 883 1427 c 1
 940 1427 966 1421 1001 1407 c 1
 958 1237 830 1126 666 1126 c 0xdd
317 -449 m 0
 73 -449 -31 -371 -31 -236 c 0
 -31 -136 41 -63 139 -63 c 0
 192 -63 243 -91 266 -150 c 1
 237 -166 219 -205 219 -244 c 0
 219 -303 266 -336 348 -336 c 0xec
 543 -336 618 -157 643 74 c 2
 645 98 l 1
 586 24 506 -23 391 -23 c 0
 221 -23 66 101 66 371 c 0
 66 756 265 1008 623 1008 c 0
 699 1008 766 992 836 967 c 1
 879 992 934 1006 1008 1006 c 0xea
 1031 1006 1053 1003 1073 1001 c 1
 928 100 l 2
 867 -277 665 -449 317 -449 c 0
483 102 m 0xea
 585 102 664 275 709 537 c 2
 768 889 l 1
 735 901 705 907 670 907 c 0
 506 907 360 733 360 373 c 0
 360 170 415 102 483 102 c 0xea
EndSplineSet
EndChar

StartChar: gcircumflex
Encoding: 285 285 188
Width: 1116
GlyphClass: 2
Flags: HMW
HStem: -449 113<307 445 307 492> -23 125<306 535> 907 100<588 660 443 687> 965 41G<971 1019>
VStem: -31 250<-273 -224 -273 -185> 66 295<271 553 271 563>
AnchorPoint: "Anchor-3" 643 991 basechar 0
LayerCount: 2
Fore
SplineSet
422 1108 m 1xe4
 362 1182 l 1
 584 1395 l 2
 633 1442 670 1458 713 1458 c 0
 758 1458 788 1440 821 1391 c 2
 971 1171 l 1
 901 1108 l 1
 686 1266 l 1
 422 1108 l 1xe4
317 -449 m 0xd8
 73 -449 -31 -371 -31 -236 c 0
 -31 -136 41 -63 139 -63 c 0
 192 -63 243 -91 266 -150 c 1
 237 -166 219 -205 219 -244 c 0
 219 -303 266 -336 348 -336 c 0xe8
 543 -336 618 -157 643 74 c 2
 645 98 l 1
 586 24 506 -23 391 -23 c 0
 221 -23 66 101 66 371 c 0
 66 756 265 1008 623 1008 c 0
 699 1008 766 992 836 967 c 1
 879 992 934 1006 1008 1006 c 0xe4
 1031 1006 1053 1003 1073 1001 c 1
 928 100 l 2
 867 -277 665 -449 317 -449 c 0xd8
483 102 m 0xe4
 585 102 664 275 709 537 c 2
 768 889 l 1
 735 901 705 907 670 907 c 0
 506 907 360 733 360 373 c 0
 360 170 415 102 483 102 c 0xe4
EndSplineSet
EndChar

StartChar: uni0123
Encoding: 291 291 189
Width: 1116
GlyphClass: 2
Flags: HMW
HStem: -449 113<307 445 307 492> -23 125<306 535> 907 100<588 660 443 687> 965 41G<971 1019>
VStem: -31 250<-273 -224 -273 -185> 66 295<271 553 271 563> 555 197<1212 1220>
AnchorPoint: "Anchor-3" 643 991 basechar 0
LayerCount: 2
Fore
SplineSet
729 1483 m 1xe6
 821 1442 l 1
 778 1360 752 1280 752 1229 c 0
 752 1196 761 1172 786 1149 c 1
 759 1118 707 1096 664 1096 c 0
 598 1096 555 1131 555 1184 c 0
 555 1256 631 1377 729 1483 c 1xe6
317 -449 m 0xda
 73 -449 -31 -371 -31 -236 c 0
 -31 -136 41 -63 139 -63 c 0
 192 -63 243 -91 266 -150 c 1
 237 -166 219 -205 219 -244 c 0
 219 -303 266 -336 348 -336 c 0xea
 543 -336 618 -157 643 74 c 2
 645 98 l 1
 586 24 506 -23 391 -23 c 0
 221 -23 66 101 66 371 c 0
 66 756 265 1008 623 1008 c 0
 699 1008 766 992 836 967 c 1
 879 992 934 1006 1008 1006 c 0xe6
 1031 1006 1053 1003 1073 1001 c 1
 928 100 l 2
 867 -277 665 -449 317 -449 c 0xda
483 102 m 0xe6
 585 102 664 275 709 537 c 2
 768 889 l 1
 735 901 705 907 670 907 c 0
 506 907 360 733 360 373 c 0
 360 170 415 102 483 102 c 0xe6
EndSplineSet
EndChar

StartChar: gdotaccent
Encoding: 289 289 190
Width: 1116
GlyphClass: 2
Flags: HMW
HStem: -449 113<307 445 307 492> -23 125<306 535> 907 100<588 660 443 687> 965 41G<971 1019> 1147 287<659 725>
VStem: -31 250<-273 -224 -273 -185> 66 295<271 553 271 563> 541 303<1264 1317>
AnchorPoint: "Anchor-3" 643 991 basechar 0
LayerCount: 2
Fore
SplineSet
674 1147 m 0xeb
 596 1147 541 1188 541 1266 c 0
 541 1368 609 1434 711 1434 c 0
 793 1434 844 1389 844 1315 c 0
 844 1213 776 1147 674 1147 c 0xeb
317 -449 m 0xdd
 73 -449 -31 -371 -31 -236 c 0
 -31 -136 41 -63 139 -63 c 0
 192 -63 243 -91 266 -150 c 1
 237 -166 219 -205 219 -244 c 0
 219 -303 266 -336 348 -336 c 0xed
 543 -336 618 -157 643 74 c 2
 645 98 l 1
 586 24 506 -23 391 -23 c 0
 221 -23 66 101 66 371 c 0
 66 756 265 1008 623 1008 c 0
 699 1008 766 992 836 967 c 1
 879 992 934 1006 1008 1006 c 0xeb
 1031 1006 1053 1003 1073 1001 c 1
 928 100 l 2
 867 -277 665 -449 317 -449 c 0xdd
483 102 m 0xeb
 585 102 664 275 709 537 c 2
 768 889 l 1
 735 901 705 907 670 907 c 0
 506 907 360 733 360 373 c 0
 360 170 415 102 483 102 c 0xeb
EndSplineSet
EndChar

StartChar: hbar
Encoding: 295 295 191
Width: 1187
GlyphClass: 2
Flags: HMW
HStem: -12 43G<802 914> 0 43G<63 352 63 63> 870 137<641 889> 1061 117<129 231 106 250 539 743>
VStem: 696 291<171 208 171 227> 776 291<721 783>
AnchorPoint: "Anchor-3" 868 1366 basechar 0
LayerCount: 2
Fore
SplineSet
1126 172 m 1x68
 1153 98 l 1
 1100 45 962 -12 866 -12 c 0
 737 -12 696 55 696 166 c 0xa8
 696 289 776 637 776 739 c 0
 776 827 745 870 690 870 c 0x64
 592 870 453 634 416 401 c 2
 352 0 l 1
 63 0 l 1
 231 1061 l 1
 106 1061 l 1
 129 1178 l 1
 250 1178 l 1
 250 1190 l 2
 250 1249 223 1278 168 1278 c 0
 154 1278 135 1276 125 1274 c 1
 119 1354 l 1
 221 1397 405 1425 518 1427 c 1
 573 1393 l 1
 539 1178 l 1
 766 1178 l 1
 743 1061 l 1
 520 1061 l 1x74
 479 809 l 1
 563 938 672 1008 807 1008 c 0
 971 1008 1067 914 1067 756 c 0x64
 1067 686 987 229 987 186 c 0
 987 155 1003 139 1032 139 c 0
 1057 139 1089 152 1126 172 c 1x68
EndSplineSet
EndChar

StartChar: hcircumflex
Encoding: 293 293 192
Width: 1185
GlyphClass: 2
Flags: HMW
HStem: -12 43G<802 914> 0 43G<63 352 63 63> 870 137<641 889>
VStem: 696 291<171 208 171 227> 776 291<721 783>
AnchorPoint: "Anchor-3" 868 1366 basechar 0
LayerCount: 2
Fore
SplineSet
647 1483 m 1x68
 588 1556 l 1
 809 1769 l 2
 858 1816 895 1833 938 1833 c 0
 983 1833 1014 1814 1047 1765 c 2
 1196 1546 l 1
 1126 1483 l 1
 911 1640 l 1
 647 1483 l 1x68
866 -12 m 0xb0
 737 -12 696 55 696 166 c 0xb0
 696 289 776 637 776 739 c 0
 776 827 745 870 690 870 c 0
 592 870 453 634 416 401 c 2
 352 0 l 1
 63 0 l 1
 240 1108 l 2
 244 1135 250 1155 250 1190 c 0
 250 1249 223 1278 168 1278 c 0
 154 1278 135 1276 125 1274 c 1
 119 1354 l 1
 221 1397 405 1425 518 1427 c 1
 573 1393 l 1
 479 809 l 1
 563 938 672 1008 807 1008 c 0
 971 1008 1067 914 1067 756 c 0x68
 1067 686 987 229 987 186 c 0
 987 155 1003 139 1032 139 c 0
 1057 139 1089 152 1126 172 c 1
 1153 98 l 1
 1100 45 962 -12 866 -12 c 0xb0
EndSplineSet
EndChar

StartChar: iacute
Encoding: 237 237 193
Width: 604
GlyphClass: 2
Flags: HMW
HStem: -12 43G<210 323> 967 41G<459 459> 979 29
VStem: 104 289<172 205 172 212>
AnchorPoint: "Anchor-3" 360 991 basechar 0
AnchorPoint: "Anchor-2" 469 0 basechar 0
LayerCount: 2
Fore
SplineSet
326 1104 m 1xd0
 264 1174 l 1
 457 1413 l 2
 496 1460 536 1479 571 1479 c 0
 624 1479 666 1435 666 1384 c 0
 666 1347 645 1309 594 1276 c 2
 326 1104 l 1xd0
274 -12 m 0
 145 -12 104 55 104 166 c 0
 104 258 190 715 190 770 c 0
 190 829 164 858 109 858 c 0
 97 858 82 856 66 854 c 1
 59 934 l 1
 161 977 346 1006 459 1008 c 1
 514 979 l 1xb0
 504 909 393 221 393 188 c 0
 393 155 411 139 440 139 c 0
 465 139 498 152 535 172 c 1
 561 98 l 1
 508 45 370 -12 274 -12 c 0
EndSplineSet
EndChar

StartChar: ibreve
Encoding: 301 301 194
Width: 604
GlyphClass: 2
Flags: HMW
HStem: -12 43G<210 323> 967 41G<459 459> 979 29 1126 160<359 456 359 465>
VStem: 104 289<172 205 172 212> 131 129
AnchorPoint: "Anchor-3" 360 991 basechar 0
AnchorPoint: "Anchor-2" 469 0 basechar 0
LayerCount: 2
Fore
SplineSet
383 1126 m 0xd4
 227 1126 121 1221 131 1393 c 1
 156 1420 217 1433 260 1427 c 1
 260 1337 312 1286 408 1286 c 0
 504 1286 571 1337 600 1427 c 1
 657 1427 684 1421 719 1407 c 1
 676 1237 547 1126 383 1126 c 0xd4
274 -12 m 0xb8
 145 -12 104 55 104 166 c 0
 104 258 190 715 190 770 c 0
 190 829 164 858 109 858 c 0
 97 858 82 856 66 854 c 1
 59 934 l 1
 161 977 346 1006 459 1008 c 1
 514 979 l 1
 504 909 393 221 393 188 c 0
 393 155 411 139 440 139 c 0
 465 139 498 152 535 172 c 1
 561 98 l 1
 508 45 370 -12 274 -12 c 0xb8
EndSplineSet
EndChar

StartChar: icircumflex
Encoding: 238 238 195
Width: 604
GlyphClass: 2
Flags: HMW
HStem: -12 43G<210 323> 967 41G<459 459> 979 29
VStem: 104 289<172 205 172 212>
AnchorPoint: "Anchor-3" 360 991 basechar 0
AnchorPoint: "Anchor-2" 469 0 basechar 0
LayerCount: 2
Fore
SplineSet
139 1108 m 1xd0
 80 1182 l 1
 301 1395 l 2
 350 1442 387 1458 430 1458 c 0
 475 1458 506 1440 539 1391 c 2
 688 1171 l 1
 618 1108 l 1
 403 1266 l 1
 139 1108 l 1xd0
274 -12 m 0
 145 -12 104 55 104 166 c 0
 104 258 190 715 190 770 c 0
 190 829 164 858 109 858 c 0
 97 858 82 856 66 854 c 1
 59 934 l 1
 161 977 346 1006 459 1008 c 1
 514 979 l 1xb0
 504 909 393 221 393 188 c 0
 393 155 411 139 440 139 c 0
 465 139 498 152 535 172 c 1
 561 98 l 1
 508 45 370 -12 274 -12 c 0
EndSplineSet
EndChar

StartChar: idieresis
Encoding: 239 239 196
Width: 604
GlyphClass: 2
Flags: HMW
HStem: -12 43G<210 323> 967 41G<459 459> 979 29 1145 272<210 265 525 581>
VStem: 104 289<172 205 172 212> 106 262<1257 1307> 422 262<1257 1307>
AnchorPoint: "Anchor-3" 360 991 basechar 0
AnchorPoint: "Anchor-2" 469 0 basechar 0
LayerCount: 2
Fore
SplineSet
221 1145 m 0xd4
 149 1145 106 1187 106 1255 c 0
 106 1357 166 1417 254 1417 c 0
 326 1417 369 1375 369 1309 c 0
 369 1207 309 1145 221 1145 c 0xd4
537 1145 m 0xda
 465 1145 422 1187 422 1255 c 0
 422 1357 481 1417 569 1417 c 0
 641 1417 684 1375 684 1309 c 0
 684 1207 625 1145 537 1145 c 0xda
274 -12 m 0xb8
 145 -12 104 55 104 166 c 0
 104 258 190 715 190 770 c 0
 190 829 164 858 109 858 c 0
 97 858 82 856 66 854 c 1
 59 934 l 1
 161 977 346 1006 459 1008 c 1
 514 979 l 1
 504 909 393 221 393 188 c 0
 393 155 411 139 440 139 c 0
 465 139 498 152 535 172 c 1
 561 98 l 1
 508 45 370 -12 274 -12 c 0xb8
EndSplineSet
EndChar

StartChar: dotlessi
Encoding: 305 305 197
Width: 604
GlyphClass: 2
Flags: HMW
HStem: -12 43G<210 323> 967 41G<459 459> 979 29
VStem: 104 289<172 205 172 212>
AnchorPoint: "Anchor-3" 360 991 basechar 0
AnchorPoint: "Anchor-2" 469 0 basechar 0
LayerCount: 2
Fore
SplineSet
274 -12 m 0xd0
 145 -12 104 55 104 166 c 0
 104 258 190 715 190 770 c 0
 190 829 164 858 109 858 c 0
 97 858 82 856 66 854 c 1
 59 934 l 1
 161 977 346 1006 459 1008 c 1
 514 979 l 1xb0
 504 909 393 221 393 188 c 0
 393 155 411 139 440 139 c 0
 465 139 498 152 535 172 c 1
 561 98 l 1
 508 45 370 -12 274 -12 c 0xd0
EndSplineSet
EndChar

StartChar: igrave
Encoding: 236 236 198
Width: 604
GlyphClass: 2
Flags: HMW
HStem: -12 43G<210 323> 967 41G<459 459> 979 29
VStem: 104 289<172 205 172 212>
AnchorPoint: "Anchor-3" 360 991 basechar 0
AnchorPoint: "Anchor-2" 469 0 basechar 0
LayerCount: 2
Fore
SplineSet
483 1104 m 1xd0
 215 1276 l 2
 164 1309 143 1347 143 1384 c 0
 143 1435 185 1479 238 1479 c 0
 273 1479 313 1460 352 1413 c 2
 545 1174 l 1
 483 1104 l 1xd0
274 -12 m 0
 145 -12 104 55 104 166 c 0
 104 258 190 715 190 770 c 0
 190 829 164 858 109 858 c 0
 97 858 82 856 66 854 c 1
 59 934 l 1
 161 977 346 1006 459 1008 c 1
 514 979 l 1xb0
 504 909 393 221 393 188 c 0
 393 155 411 139 440 139 c 0
 465 139 498 152 535 172 c 1
 561 98 l 1
 508 45 370 -12 274 -12 c 0
EndSplineSet
EndChar

StartChar: imacron
Encoding: 299 299 199
Width: 604
GlyphClass: 2
Flags: HMW
HStem: -12 43G<210 323> 967 41G<459 459> 979 29 1184 139<72 731 94 709>
VStem: 104 289<172 205 172 212>
AnchorPoint: "Anchor-3" 360 991 basechar 0
AnchorPoint: "Anchor-2" 469 0 basechar 0
LayerCount: 2
Fore
SplineSet
72 1184 m 1xd8
 94 1323 l 1
 731 1323 l 1
 709 1184 l 1
 72 1184 l 1xd8
274 -12 m 0
 145 -12 104 55 104 166 c 0
 104 258 190 715 190 770 c 0
 190 829 164 858 109 858 c 0
 97 858 82 856 66 854 c 1
 59 934 l 1
 161 977 346 1006 459 1008 c 1
 514 979 l 1xb8
 504 909 393 221 393 188 c 0
 393 155 411 139 440 139 c 0
 465 139 498 152 535 172 c 1
 561 98 l 1
 508 45 370 -12 274 -12 c 0
EndSplineSet
EndChar

StartChar: iogonek
Encoding: 303 303 200
Width: 604
GlyphClass: 2
Flags: HMW
HStem: -418 121<164 302> -10 43G 967 41G<459 459> 979 29 1147 287<377 442>
VStem: 47 174<-252 -242> 104 289<172 205 172 212> 258 303<1264 1317>
AnchorPoint: "Anchor-3" 360 991 basechar 0
AnchorPoint: "Anchor-2" 469 0 basechar 0
LayerCount: 2
Fore
SplineSet
391 1147 m 0xe9
 313 1147 258 1188 258 1266 c 0
 258 1368 326 1434 428 1434 c 0
 510 1434 561 1389 561 1315 c 0
 561 1213 493 1147 391 1147 c 0xe9
535 172 m 1xda
 561 98 l 1
 538 75 504 53 463 35 c 0xea
 400 4 336 -39 291 -88 c 0
 248 -133 221 -182 221 -229 c 0
 221 -274 250 -297 285 -297 c 0
 320 -297 356 -275 387 -250 c 1
 426 -322 l 1
 367 -385 283 -418 207 -418 c 0
 121 -418 47 -366 47 -276 c 0
 47 -206 93 -147 154 -86 c 0xec
 183 -57 211 -33 231 -10 c 1
 135 4 104 70 104 166 c 0
 104 258 190 715 190 770 c 0
 190 829 164 858 109 858 c 0
 97 858 82 856 66 854 c 1
 59 934 l 1
 161 977 346 1006 459 1008 c 1
 514 979 l 1
 504 909 393 221 393 188 c 0
 393 155 411 139 440 139 c 0
 465 139 498 152 535 172 c 1xda
EndSplineSet
EndChar

StartChar: itilde
Encoding: 297 297 201
Width: 604
GlyphClass: 2
Flags: HMW
HStem: -12 43G<210 323> 967 41G<459 459> 979 29 1137 178<465 526 465 528> 1217 180<223 285>
VStem: 104 289<172 205 172 212>
AnchorPoint: "Anchor-3" 360 991 basechar 0
AnchorPoint: "Anchor-2" 469 0 basechar 0
LayerCount: 2
Fore
SplineSet
113 1139 m 1xcc
 84 1149 37 1173 14 1204 c 1
 86 1319 176 1397 270 1397 c 0xcc
 352 1397 424 1315 506 1315 c 0
 547 1315 596 1348 637 1395 c 1
 666 1385 712 1360 735 1331 c 1
 665 1216 575 1137 481 1137 c 0xd4
 399 1137 326 1217 244 1217 c 0
 203 1217 156 1188 113 1139 c 1xcc
274 -12 m 0xb4
 145 -12 104 55 104 166 c 0
 104 258 190 715 190 770 c 0
 190 829 164 858 109 858 c 0
 97 858 82 856 66 854 c 1
 59 934 l 1
 161 977 346 1006 459 1008 c 1
 514 979 l 1
 504 909 393 221 393 188 c 0
 393 155 411 139 440 139 c 0
 465 139 498 152 535 172 c 1
 561 98 l 1
 508 45 370 -12 274 -12 c 0xb4
EndSplineSet
EndChar

StartChar: jcircumflex
Encoding: 309 309 202
Width: 575
GlyphClass: 2
Flags: HMW
HStem: -446 102<-36 -3 -36 17> 967 41G<459 459> 979 29
VStem: -256 190<-307 -273 -307 -247>
AnchorPoint: "Anchor-3" 358 991 basechar 0
LayerCount: 2
Fore
SplineSet
137 1108 m 1xd0
 78 1182 l 1
 299 1395 l 2
 348 1442 385 1458 428 1458 c 0
 473 1458 504 1440 537 1391 c 2
 686 1171 l 1
 616 1108 l 1
 401 1266 l 1
 137 1108 l 1xd0
-39 -446 m 0
 -174 -446 -256 -381 -256 -285 c 0
 -256 -209 -191 -147 -111 -147 c 0
 -70 -147 -36 -164 -18 -199 c 1
 -47 -222 -66 -258 -66 -289 c 0
 -66 -326 -50 -344 -23 -344 c 0
 16 -344 39 -309 53 -256 c 0
 78 -158 72 4 92 127 c 0
 112 254 190 749 190 776 c 0
 190 829 164 858 109 858 c 0
 97 858 82 856 66 854 c 1
 59 934 l 1
 161 977 346 1006 459 1008 c 1
 514 979 l 1
 485 797 l 1xb0
 350 -68 l 2
 336 -164 311 -260 256 -330 c 0
 195 -408 74 -446 -39 -446 c 0
EndSplineSet
EndChar

StartChar: uni0237
Encoding: 567 567 203
Width: 575
GlyphClass: 2
Flags: HMW
HStem: -446 102<-36 -3 -36 17> 967 41G<459 459> 979 29
VStem: -256 190<-307 -273 -307 -247>
AnchorPoint: "Anchor-3" 358 991 basechar 0
LayerCount: 2
Fore
SplineSet
-39 -446 m 0xd0
 -174 -446 -256 -381 -256 -285 c 0
 -256 -209 -191 -147 -111 -147 c 0
 -70 -147 -36 -164 -18 -199 c 1
 -47 -222 -66 -258 -66 -289 c 0
 -66 -326 -50 -344 -23 -344 c 0
 16 -344 39 -309 53 -256 c 0
 78 -158 72 4 92 127 c 0
 112 254 190 749 190 776 c 0
 190 829 164 858 109 858 c 0
 97 858 82 856 66 854 c 1
 59 934 l 1
 161 977 346 1006 459 1008 c 1
 514 979 l 1
 485 797 l 1xb0
 350 -68 l 2
 336 -164 311 -260 256 -330 c 0
 195 -408 74 -446 -39 -446 c 0xd0
EndSplineSet
EndChar

StartChar: uni0137
Encoding: 311 311 204
Width: 1110
GlyphClass: 2
Flags: HMW
HStem: -451 43G<463 463> -12 43G<791 873> 0 43G<66 66 66 354> 963 41G<941 1005> 1397 29
VStem: 66 1038<0 121> 440 197<-187 -180>
AnchorPoint: "Anchor-4" 551 0 basechar 0
LayerCount: 2
Fore
SplineSet
66 0 m 1xbc
 242 1120 l 2
 246 1143 250 1167 250 1194 c 0
 250 1247 223 1276 168 1276 c 0
 156 1276 141 1274 125 1272 c 1
 119 1352 l 1
 223 1397 395 1425 518 1425 c 1
 573 1397 l 1
 444 575 l 1
 626 636 829 752 829 852 c 0
 829 879 799 893 750 895 c 1
 741 961 l 1
 790 977 889 1004 993 1004 c 0
 1016 1004 1035 1001 1049 997 c 1
 1071 958 l 1
 1046 813 901 679 735 575 c 1
 907 201 l 2
 921 168 946 156 973 156 c 0
 1008 156 1046 174 1071 188 c 1
 1104 121 l 1
 1028 62 921 -12 825 -12 c 0
 755 -12 705 24 668 104 c 2xdc
 508 459 l 1
 477 445 449 434 420 424 c 1
 354 0 l 1
 66 0 l 1xbc
463 -451 m 1xba
 371 -410 l 1
 414 -328 440 -248 440 -197 c 0
 440 -164 431 -140 406 -117 c 1
 433 -86 485 -63 528 -63 c 0
 594 -63 637 -99 637 -152 c 0
 637 -224 561 -345 463 -451 c 1xba
EndSplineSet
EndChar

StartChar: kgreenlandic
Encoding: 312 312 205
Width: 1114
GlyphClass: 1
Flags: HMW
HStem: -14 43G<812 904> 0 43G<68 68 68 356> 961 41 973 29
VStem: 53 1038<176 928>
LayerCount: 2
Fore
SplineSet
68 0 m 1x68
 76 53 184 711 184 768 c 0
 184 823 157 852 102 852 c 0
 90 852 75 850 59 848 c 1
 53 928 l 1
 149 969 320 1001 453 1001 c 1x68
 508 973 l 1x58
 446 575 l 1
 628 636 831 752 831 850 c 0
 831 879 801 893 752 895 c 1
 743 961 l 1
 743 961 852 1004 995 1004 c 0
 1013 1004 1035 1001 1051 997 c 1
 1073 958 l 1
 1048 813 905 679 737 575 c 1
 889 260 l 2
 909 215 938 199 967 199 c 0
 992 199 1016 210 1036 233 c 1
 1092 176 l 1
 1047 67 952 -14 856 -14 c 0
 768 -14 700 45 647 160 c 2xa8
 510 459 l 1
 479 445 451 434 422 424 c 1
 356 0 l 1
 68 0 l 1x68
EndSplineSet
EndChar

StartChar: lacute
Encoding: 314 314 206
Width: 595
GlyphClass: 2
Flags: HMW
HStem: -12 43G<206 309> 1397 29
VStem: 94 289<174 213 174 220>
AnchorPoint: "Anchor-4" 250 0 basechar 0
AnchorPoint: "Anchor-3" 399 1386 basechar 0
LayerCount: 2
Fore
SplineSet
365 1499 m 1
 303 1569 l 1
 496 1808 l 2
 535 1855 575 1874 610 1874 c 0
 663 1874 705 1831 705 1780 c 0
 705 1743 684 1704 633 1671 c 2
 365 1499 l 1
264 -12 m 0
 147 -12 94 43 94 166 c 0
 94 275 246 1098 246 1188 c 0
 246 1247 219 1276 164 1276 c 0
 148 1276 135 1274 121 1272 c 1
 115 1352 l 1
 205 1389 383 1421 514 1425 c 1
 569 1397 l 1
 557 1297 383 235 383 190 c 0
 383 157 399 139 430 139 c 0
 453 139 485 149 524 172 c 1
 551 98 l 1
 494 41 354 -12 264 -12 c 0
EndSplineSet
EndChar

StartChar: lcaron
Encoding: 318 318 207
Width: 759
GlyphClass: 2
Flags: HMW
HStem: -12 43G<206 309> 969 41G<627 627> 1350 41G<735 792> 1397 29
VStem: 94 289<174 213 174 220> 688 182<1237 1266>
AnchorPoint: "Anchor-4" 250 0 basechar 0
AnchorPoint: "Anchor-3" 399 1386 basechar 0
LayerCount: 2
Fore
SplineSet
264 -12 m 0
 147 -12 94 43 94 166 c 0
 94 275 246 1098 246 1188 c 0
 246 1247 219 1276 164 1276 c 0
 148 1276 135 1274 121 1272 c 1
 115 1352 l 1xec
 205 1389 383 1421 514 1425 c 1
 569 1397 l 1xdc
 557 1297 383 235 383 190 c 0
 383 157 399 139 430 139 c 0
 453 139 485 149 524 172 c 1
 551 98 l 1
 494 41 354 -12 264 -12 c 0
717 975 m 1
 627 1010 l 1
 670 1121 688 1196 688 1245 c 0
 688 1286 676 1318 649 1341 c 1
 672 1372 711 1391 760 1391 c 0
 823 1391 870 1339 870 1280 c 0
 870 1194 780 1075 717 975 c 1
EndSplineSet
EndChar

StartChar: ldot
Encoding: 320 320 208
Width: 737
GlyphClass: 2
Flags: HMW
HStem: -12 43G<206 309> 600 287<655 721> 1397 29
VStem: 94 289<174 213 174 220> 537 303<717 770>
AnchorPoint: "Anchor-4" 250 0 basechar 0
AnchorPoint: "Anchor-3" 399 1386 basechar 0
LayerCount: 2
Fore
SplineSet
264 -12 m 0
 147 -12 94 43 94 166 c 0
 94 275 246 1098 246 1188 c 0
 246 1247 219 1276 164 1276 c 0
 148 1276 135 1274 121 1272 c 1
 115 1352 l 1
 205 1389 383 1421 514 1425 c 1
 569 1397 l 1
 557 1297 383 235 383 190 c 0
 383 157 399 139 430 139 c 0
 453 139 485 149 524 172 c 1
 551 98 l 1
 494 41 354 -12 264 -12 c 0
670 600 m 0
 592 600 537 641 537 719 c 0
 537 821 605 887 707 887 c 0
 789 887 840 842 840 768 c 0
 840 666 772 600 670 600 c 0
EndSplineSet
Ligature2: "Ligature Substitution lookup 13 subtable" l periodcentered
EndChar

StartChar: lslash
Encoding: 322 322 209
Width: 638
GlyphClass: 2
Flags: HMW
HStem: -12 43G<206 309> 1397 29
VStem: 94 289<174 185>
AnchorPoint: "Anchor-4" 250 0 basechar 0
AnchorPoint: "Anchor-3" 399 1386 basechar 0
LayerCount: 2
Fore
SplineSet
430 139 m 0
 453 139 485 149 524 172 c 1
 551 98 l 1
 494 41 354 -12 264 -12 c 0
 147 -12 94 43 94 166 c 0
 94 205 112 333 137 487 c 1
 45 438 l 1
 -4 561 l 1
 164 649 l 1
 205 891 246 1141 246 1188 c 0
 246 1247 219 1276 164 1276 c 0
 148 1276 135 1274 121 1272 c 1
 115 1352 l 1
 205 1389 383 1421 514 1425 c 1
 569 1397 l 1
 563 1350 520 1085 479 815 c 1
 659 911 l 1
 707 791 l 1
 453 655 l 1
 416 417 383 208 383 190 c 0
 383 157 399 139 430 139 c 0
EndSplineSet
EndChar

StartChar: nacute
Encoding: 324 324 210
Width: 1191
GlyphClass: 2
Flags: HMW
HStem: -12 43G<808 921> -12 152<808 1051> 0 43G<70 358 70 70> 870 137 989 18
VStem: 62 425 190 297 702 291<177 217> 782 291<715 787>
AnchorPoint: "Anchor-4" 584 0 basechar 0
AnchorPoint: "Anchor-3" 702 991 basechar 0
LayerCount: 2
Fore
SplineSet
668 1104 m 1x3280
 606 1174 l 1
 799 1413 l 2
 838 1460 878 1479 913 1479 c 0
 966 1479 1008 1435 1008 1384 c 0
 1008 1347 987 1309 936 1276 c 2
 668 1104 l 1x3280
872 -12 m 0x93
 743 -12 702 55 702 164 c 0x93
 702 270 782 654 782 748 c 0
 782 828 751 870 696 870 c 0
 596 870 461 634 424 401 c 2
 358 0 l 1
 70 0 l 1
 95 158 190 735 190 770 c 0
 190 829 160 858 109 858 c 0x3280
 97 858 82 856 66 854 c 1
 59 934 l 1x3480
 161 977 346 1006 459 1008 c 1x3280
 492 989 l 1x2a80
 483 803 l 1
 565 936 676 1008 813 1008 c 0
 977 1008 1073 914 1073 756 c 0x3280
 1073 674 993 258 993 190 c 0
 993 163 1003 139 1038 139 c 0
 1063 139 1096 152 1133 172 c 1x53
 1159 98 l 1
 1106 45 968 -12 872 -12 c 0x93
EndSplineSet
EndChar

StartChar: ncaron
Encoding: 328 328 211
Width: 1191
GlyphClass: 2
Flags: HMW
HStem: -12 43G<808 921> -12 152<808 1051> 0 43G<70 358 70 70> 870 137 989 18 1348 41G<455 455 1065 1065>
VStem: 62 425 190 297 702 291<177 217> 782 291<715 787>
AnchorPoint: "Anchor-4" 584 0 basechar 0
AnchorPoint: "Anchor-3" 702 991 basechar 0
LayerCount: 2
Fore
SplineSet
721 1114 m 0x3540
 680 1114 643 1131 608 1178 c 2
 455 1389 l 1
 526 1464 l 1
 745 1315 l 1
 1014 1464 l 1
 1065 1389 l 1
 848 1180 l 2
 803 1137 760 1114 721 1114 c 0x3540
872 -12 m 0x9580
 743 -12 702 55 702 164 c 0x9580
 702 270 782 654 782 748 c 0
 782 828 751 870 696 870 c 0
 596 870 461 634 424 401 c 2
 358 0 l 1
 70 0 l 1
 95 158 190 735 190 770 c 0
 190 829 160 858 109 858 c 0x3540
 97 858 82 856 66 854 c 1
 59 934 l 1x3640
 161 977 346 1006 459 1008 c 1x3540
 492 989 l 1x2d40
 483 803 l 1
 565 936 676 1008 813 1008 c 0
 977 1008 1073 914 1073 756 c 0x3540
 1073 674 993 258 993 190 c 0
 993 163 1003 139 1038 139 c 0
 1063 139 1096 152 1133 172 c 1x5580
 1159 98 l 1
 1106 45 968 -12 872 -12 c 0x9580
EndSplineSet
EndChar

StartChar: uni0146
Encoding: 326 326 212
Width: 1191
GlyphClass: 2
Flags: HMW
HStem: -451 43G<496 496> -12 43G<808 921> -12 152<808 1051> 0 43G<70 358 70 70> 870 137 989 18
VStem: 62 425 190 297 473 197<-187 -180> 702 291<177 217> 782 291<715 787>
AnchorPoint: "Anchor-4" 584 0 basechar 0
AnchorPoint: "Anchor-3" 702 991 basechar 0
LayerCount: 2
Fore
SplineSet
872 -12 m 0xc940
 743 -12 702 55 702 164 c 0xc940
 702 270 782 654 782 748 c 0
 782 828 751 870 696 870 c 0
 596 870 461 634 424 401 c 2
 358 0 l 1
 70 0 l 1
 95 158 190 735 190 770 c 0
 190 829 160 858 109 858 c 0x9920
 97 858 82 856 66 854 c 1
 59 934 l 1x9a20
 161 977 346 1006 459 1008 c 1x9920
 492 989 l 1x9520
 483 803 l 1
 565 936 676 1008 813 1008 c 0
 977 1008 1073 914 1073 756 c 0x9920
 1073 674 993 258 993 190 c 0
 993 163 1003 139 1038 139 c 0
 1063 139 1096 152 1133 172 c 1xa940
 1159 98 l 1
 1106 45 968 -12 872 -12 c 0xc940
496 -451 m 1x98a0
 403 -410 l 1
 446 -328 473 -248 473 -197 c 0
 473 -164 463 -140 438 -117 c 1
 465 -86 518 -63 561 -63 c 0
 627 -63 670 -99 670 -152 c 0
 670 -224 594 -345 496 -451 c 1x98a0
EndSplineSet
EndChar

StartChar: ntilde
Encoding: 241 241 213
Width: 1191
GlyphClass: 2
Flags: HMW
HStem: -12 43G<808 921> -12 152<808 1051> 0 43G<70 358 70 70> 870 137 989 18 1137 178<807 868 807 870> 1217 180<565 627>
VStem: 62 425 190 297 702 291<177 217> 782 291<715 787>
AnchorPoint: "Anchor-4" 584 0 basechar 0
AnchorPoint: "Anchor-3" 702 991 basechar 0
LayerCount: 2
Fore
SplineSet
455 1139 m 1x32a0
 426 1149 379 1173 356 1204 c 1
 428 1319 518 1397 612 1397 c 0x32a0
 694 1397 766 1315 848 1315 c 0
 889 1315 938 1348 979 1395 c 1
 1008 1385 1054 1360 1077 1331 c 1
 1007 1216 917 1137 823 1137 c 0x34a0
 741 1137 668 1217 586 1217 c 0
 545 1217 498 1188 455 1139 c 1x32a0
872 -12 m 0x94c0
 743 -12 702 55 702 164 c 0x94c0
 702 270 782 654 782 748 c 0
 782 828 751 870 696 870 c 0
 596 870 461 634 424 401 c 2
 358 0 l 1
 70 0 l 1
 95 158 190 735 190 770 c 0
 190 829 160 858 109 858 c 0x34a0
 97 858 82 856 66 854 c 1
 59 934 l 1x3520
 161 977 346 1006 459 1008 c 1x34a0
 492 989 l 1x2ca0
 483 803 l 1
 565 936 676 1008 813 1008 c 0
 977 1008 1073 914 1073 756 c 0x34a0
 1073 674 993 258 993 190 c 0
 993 163 1003 139 1038 139 c 0
 1063 139 1096 152 1133 172 c 1x54c0
 1159 98 l 1
 1106 45 968 -12 872 -12 c 0x94c0
EndSplineSet
EndChar

StartChar: eng
Encoding: 331 331 214
Width: 1185
GlyphClass: 1
Flags: HMW
HStem: -336 100<603 647 603 723> 0 43G<78 367 78 78> 870 137 989 18
VStem: 71 425 199 297 369 197<-194 -161 -194 -140> 791 291<727 787>
LayerCount: 2
Fore
SplineSet
598 -336 m 0xe3
 463 -336 369 -278 369 -182 c 0
 369 -98 436 -37 520 -37 c 0
 555 -37 590 -53 606 -88 c 1
 586 -104 565 -143 565 -178 c 0
 565 -209 582 -236 625 -236 c 0
 670 -236 725 -184 725 -37 c 0xe3
 725 35 713 92 713 184 c 0
 713 280 791 654 791 748 c 0
 791 828 760 870 705 870 c 0
 605 870 469 634 432 401 c 2
 367 0 l 1
 78 0 l 1
 90 76 199 721 199 770 c 0
 199 829 172 858 117 858 c 0xe5
 105 858 90 856 74 854 c 1
 68 934 l 1xe9
 185 983 322 1008 467 1008 c 1xe5
 500 989 l 1xd5
 492 803 l 1xe5
 574 936 684 1008 821 1008 c 0
 985 1008 1081 914 1081 756 c 0
 1081 699 995 172 975 43 c 0
 940 -174 848 -336 598 -336 c 0xe3
EndSplineSet
EndChar

StartChar: oacute
Encoding: 243 243 215
Width: 1134
GlyphClass: 2
Flags: HMW
HStem: -14 115<458 608 458 680> 893 115<527 677>
VStem: 66 295<257 436 239 570> 774 295<553 733 421 752>
AnchorPoint: "Anchor-3" 674 991 basechar 0
AnchorPoint: "Anchor-2" 606 0 basechar 0
LayerCount: 2
Fore
SplineSet
639 1104 m 1
 578 1174 l 1
 770 1413 l 2
 809 1460 850 1479 885 1479 c 0
 938 1479 979 1435 979 1384 c 0
 979 1347 958 1309 907 1276 c 2
 639 1104 l 1
492 -14 m 0
 218 -14 66 121 66 393 c 0
 66 747 268 1008 643 1008 c 0
 917 1008 1069 868 1069 598 c 0
 1069 244 869 -14 492 -14 c 0
508 100 m 0
 709 100 774 430 774 676 c 0
 774 828 727 893 627 893 c 0
 428 893 360 559 360 313 c 0
 360 163 408 100 508 100 c 0
EndSplineSet
EndChar

StartChar: obreve
Encoding: 335 335 216
Width: 1134
GlyphClass: 2
Flags: HMW
HStem: -14 115<458 608 458 680> 893 115<527 677> 1126 160<673 769 673 778>
VStem: 66 295<257 436 239 570> 444 129 774 295<553 733 421 752>
AnchorPoint: "Anchor-3" 674 991 basechar 0
AnchorPoint: "Anchor-2" 606 0 basechar 0
LayerCount: 2
Fore
SplineSet
696 1126 m 0
 540 1126 434 1221 444 1393 c 1
 469 1420 530 1433 573 1427 c 1
 573 1337 625 1286 721 1286 c 0
 817 1286 884 1337 913 1427 c 1
 970 1427 997 1421 1032 1407 c 1
 989 1237 860 1126 696 1126 c 0
492 -14 m 0
 218 -14 66 121 66 393 c 0
 66 747 268 1008 643 1008 c 0
 917 1008 1069 868 1069 598 c 0
 1069 244 869 -14 492 -14 c 0
508 100 m 0
 709 100 774 430 774 676 c 0
 774 828 727 893 627 893 c 0
 428 893 360 559 360 313 c 0
 360 163 408 100 508 100 c 0
EndSplineSet
EndChar

StartChar: ocircumflex
Encoding: 244 244 217
Width: 1134
GlyphClass: 2
Flags: HMW
HStem: -14 115<458 608 458 680> 893 115<527 677>
VStem: 66 295<257 436 239 570> 774 295<553 733 421 752>
AnchorPoint: "Anchor-3" 674 991 basechar 0
AnchorPoint: "Anchor-2" 606 0 basechar 0
LayerCount: 2
Fore
SplineSet
453 1108 m 1
 393 1182 l 1
 614 1395 l 2
 663 1442 700 1458 743 1458 c 0
 788 1458 819 1440 852 1391 c 2
 1001 1171 l 1
 932 1108 l 1
 717 1266 l 1
 453 1108 l 1
492 -14 m 0
 218 -14 66 121 66 393 c 0
 66 747 268 1008 643 1008 c 0
 917 1008 1069 868 1069 598 c 0
 1069 244 869 -14 492 -14 c 0
508 100 m 0
 709 100 774 430 774 676 c 0
 774 828 727 893 627 893 c 0
 428 893 360 559 360 313 c 0
 360 163 408 100 508 100 c 0
EndSplineSet
EndChar

StartChar: odieresis
Encoding: 246 246 218
Width: 1134
GlyphClass: 2
Flags: HMW
HStem: -14 115<458 608 458 680> 893 115<527 677> 1145 272<523 579 857 912>
VStem: 66 295<257 436 239 570> 420 262<1257 1307> 754 262<1257 1307> 774 295<553 733 421 752>
AnchorPoint: "Anchor-3" 674 991 basechar 0
AnchorPoint: "Anchor-2" 606 0 basechar 0
LayerCount: 2
Fore
SplineSet
535 1145 m 0xfc
 463 1145 420 1187 420 1255 c 0
 420 1357 479 1417 567 1417 c 0
 639 1417 682 1375 682 1309 c 0
 682 1207 623 1145 535 1145 c 0xfc
868 1145 m 0
 796 1145 754 1187 754 1255 c 0
 754 1357 813 1417 901 1417 c 0
 973 1417 1016 1375 1016 1309 c 0
 1016 1207 956 1145 868 1145 c 0
492 -14 m 0xd2
 218 -14 66 121 66 393 c 0
 66 747 268 1008 643 1008 c 0
 917 1008 1069 868 1069 598 c 0
 1069 244 869 -14 492 -14 c 0xd2
508 100 m 0
 709 100 774 430 774 676 c 0
 774 828 727 893 627 893 c 0
 428 893 360 559 360 313 c 0
 360 163 408 100 508 100 c 0
EndSplineSet
EndChar

StartChar: ograve
Encoding: 242 242 219
Width: 1134
GlyphClass: 2
Flags: HMW
HStem: -14 115<458 608 458 680> 893 115<527 677>
VStem: 66 295<257 436 239 570> 774 295<553 733 421 752>
AnchorPoint: "Anchor-3" 674 991 basechar 0
AnchorPoint: "Anchor-2" 606 0 basechar 0
LayerCount: 2
Fore
SplineSet
797 1104 m 1
 528 1276 l 2
 477 1309 457 1347 457 1384 c 0
 457 1435 498 1479 551 1479 c 0
 586 1479 627 1460 666 1413 c 2
 858 1174 l 1
 797 1104 l 1
492 -14 m 0
 218 -14 66 121 66 393 c 0
 66 747 268 1008 643 1008 c 0
 917 1008 1069 868 1069 598 c 0
 1069 244 869 -14 492 -14 c 0
508 100 m 0
 709 100 774 430 774 676 c 0
 774 828 727 893 627 893 c 0
 428 893 360 559 360 313 c 0
 360 163 408 100 508 100 c 0
EndSplineSet
EndChar

StartChar: ohungarumlaut
Encoding: 337 337 220
Width: 1134
GlyphClass: 2
Flags: HMW
HStem: -14 115<458 608 458 680> 893 115<527 677>
VStem: 66 295<257 436 239 570> 774 295<553 733 421 752>
AnchorPoint: "Anchor-3" 674 991 basechar 0
AnchorPoint: "Anchor-2" 606 0 basechar 0
LayerCount: 2
Fore
SplineSet
526 1098 m 1
 461 1163 l 1
 623 1409 l 2
 662 1468 696 1493 741 1493 c 0
 794 1493 840 1456 840 1403 c 0
 840 1360 821 1329 772 1290 c 2
 526 1098 l 1
819 1098 m 1
 758 1167 l 1
 956 1405 l 2
 989 1446 1028 1468 1069 1468 c 0
 1130 1468 1165 1423 1165 1378 c 0
 1165 1327 1136 1293 1081 1260 c 2
 819 1098 l 1
492 -14 m 0
 218 -14 66 121 66 393 c 0
 66 747 268 1008 643 1008 c 0
 917 1008 1069 868 1069 598 c 0
 1069 244 869 -14 492 -14 c 0
508 100 m 0
 709 100 774 430 774 676 c 0
 774 828 727 893 627 893 c 0
 428 893 360 559 360 313 c 0
 360 163 408 100 508 100 c 0
EndSplineSet
EndChar

StartChar: omacron
Encoding: 333 333 221
Width: 1134
GlyphClass: 2
Flags: HMW
HStem: -14 115<458 608 458 680> 893 115<527 677> 1184 139<385 1044 408 1022>
VStem: 66 295<257 436 239 570> 774 295<553 733 421 752>
AnchorPoint: "Anchor-3" 674 991 basechar 0
AnchorPoint: "Anchor-2" 606 0 basechar 0
LayerCount: 2
Fore
SplineSet
385 1184 m 1
 408 1323 l 1
 1044 1323 l 1
 1022 1184 l 1
 385 1184 l 1
492 -14 m 0
 218 -14 66 121 66 393 c 0
 66 747 268 1008 643 1008 c 0
 917 1008 1069 868 1069 598 c 0
 1069 244 869 -14 492 -14 c 0
508 100 m 0
 709 100 774 430 774 676 c 0
 774 828 727 893 627 893 c 0
 428 893 360 559 360 313 c 0
 360 163 408 100 508 100 c 0
EndSplineSet
EndChar

StartChar: oslash
Encoding: 248 248 222
Width: 1142
GlyphClass: 2
Flags: HMW
HStem: -14 115<480 597 480 680> 893 115<536 657>
VStem: 66 297<379 379 379 570> 772 297<590 590>
AnchorPoint: "Anchor-3" 678 991 basechar 0
AnchorPoint: "Anchor-2" 606 0 basechar 0
LayerCount: 2
Fore
SplineSet
1112 973 m 1
 1004 852 l 1
 1047 786 1069 702 1069 598 c 0
 1069 244 869 -14 492 -14 c 0
 406 -14 329 0 268 27 c 1
 180 -74 l 1
 147 -76 l 1
 110 -56 68 -15 41 18 c 1
 139 129 l 1
 90 195 66 282 66 393 c 0
 66 747 268 1008 643 1008 c 0
 737 1008 816 992 879 961 c 1
 979 1071 l 1
 1012 1069 l 1
 1049 1049 1089 1010 1112 973 c 1
627 893 m 0
 445 893 372 615 362 379 c 1
 752 817 l 1
 729 868 688 893 627 893 c 0
508 100 m 0
 686 100 758 361 772 590 c 1
 389 162 l 1
 414 119 453 100 508 100 c 0
EndSplineSet
EndChar

StartChar: oslashacute
Encoding: 511 511 223
Width: 1142
GlyphClass: 2
Flags: HMW
HStem: -14 115<480 597 480 680> 893 115<536 657>
VStem: 66 297<379 379 379 570> 772 297<590 590>
AnchorPoint: "Anchor-3" 678 991 basechar 0
AnchorPoint: "Anchor-2" 606 0 basechar 0
LayerCount: 2
Fore
SplineSet
911 1276 m 2
 643 1104 l 1
 582 1174 l 1
 774 1413 l 2
 813 1460 854 1479 889 1479 c 0
 942 1479 983 1435 983 1384 c 0
 983 1347 962 1309 911 1276 c 2
1112 973 m 1
 1004 852 l 1
 1047 786 1069 702 1069 598 c 0
 1069 244 869 -14 492 -14 c 0
 406 -14 329 0 268 27 c 1
 180 -74 l 1
 147 -76 l 1
 110 -56 68 -15 41 18 c 1
 139 129 l 1
 90 195 66 282 66 393 c 0
 66 747 268 1008 643 1008 c 0
 737 1008 816 992 879 961 c 1
 979 1071 l 1
 1012 1069 l 1
 1049 1049 1089 1010 1112 973 c 1
627 893 m 0
 445 893 372 615 362 379 c 1
 752 817 l 1
 729 868 688 893 627 893 c 0
508 100 m 0
 686 100 758 361 772 590 c 1
 389 162 l 1
 414 119 453 100 508 100 c 0
EndSplineSet
EndChar

StartChar: otilde
Encoding: 245 245 224
Width: 1134
GlyphClass: 2
Flags: HMW
HStem: -14 115<458 608 458 680> 893 115<527 677> 1137 178<778 840 778 842> 1217 180<537 598>
VStem: 66 295<257 436 239 570> 774 295<553 733 421 752>
AnchorPoint: "Anchor-3" 674 991 basechar 0
AnchorPoint: "Anchor-2" 606 0 basechar 0
LayerCount: 2
Fore
SplineSet
426 1139 m 1xdc
 397 1149 351 1173 328 1204 c 1
 400 1319 490 1397 584 1397 c 0xdc
 666 1397 737 1315 819 1315 c 0
 860 1315 909 1348 950 1395 c 1
 979 1385 1026 1360 1049 1331 c 1
 979 1216 889 1137 795 1137 c 0xec
 713 1137 639 1217 557 1217 c 0
 516 1217 469 1188 426 1139 c 1xdc
492 -14 m 0
 218 -14 66 121 66 393 c 0
 66 747 268 1008 643 1008 c 0
 917 1008 1069 868 1069 598 c 0
 1069 244 869 -14 492 -14 c 0
508 100 m 0
 709 100 774 430 774 676 c 0
 774 828 727 893 627 893 c 0
 428 893 360 559 360 313 c 0
 360 163 408 100 508 100 c 0
EndSplineSet
EndChar

StartChar: oe
Encoding: 339 339 225
Width: 1646
GlyphClass: 2
Flags: HMW
HStem: -14 115<458 567> -14 141<1128 1191> 430 119 893 115<527 677> 907 100<1221 1308>
VStem: 66 295<257 436 239 570> 774 221<263 752> 1378 254<731 833>
AnchorPoint: "Anchor-3" 983 991 basechar 0
LayerCount: 2
Fore
SplineSet
1192 127 m 0x77
 1294 127 1417 172 1501 240 c 1x77
 1569 160 l 1
 1438 49 1270 -14 1112 -14 c 0
 997 -14 905 41 848 131 c 1
 764 39 644 -14 492 -14 c 0xb7
 218 -14 66 121 66 393 c 0
 66 747 268 1008 643 1008 c 0
 782 1008 885 958 944 860 c 1
 1030 952 1149 1008 1292 1008 c 0
 1528 1008 1632 914 1632 797 c 0
 1632 568 1399 430 1004 430 c 1
 998 385 995 355 995 328 c 0
 995 199 1065 127 1192 127 c 0x77
1272 907 m 0xaf
 1129 907 1065 774 1022 549 c 1
 1206 555 1378 664 1378 799 c 0
 1378 867 1344 907 1272 907 c 0xaf
508 100 m 0
 709 100 774 430 774 676 c 0
 774 828 727 893 627 893 c 0xb7
 428 893 360 559 360 313 c 0
 360 163 408 100 508 100 c 0
EndSplineSet
EndChar

